<svg width="32" height="32" viewBox="0 0 32 32" fill="none" xmlns="http://www.w3.org/2000/svg">
<path d="M27.877 4.15476V27.877H4.15476V4.15476H27.877ZM29.7409 0.765869H2.29087C1.44365 0.765869 0.765869 1.44365 0.765869 2.29087V29.7409C0.765869 30.4186 1.44365 31.2659 2.29087 31.2659H29.7409C30.4186 31.2659 31.2659 30.4186 31.2659 29.7409V2.29087C31.2659 1.44365 30.4186 0.765869 29.7409 0.765869ZM14.3214 7.54365H24.4881V10.9325H14.3214V7.54365ZM14.3214 14.3214H24.4881V17.7103H14.3214V14.3214ZM14.3214 21.0992H24.4881V24.4881H14.3214V21.0992ZM7.54365 7.54365H10.9325V10.9325H7.54365V7.54365ZM7.54365 14.3214H10.9325V17.7103H7.54365V14.3214ZM7.54365 21.0992H10.9325V24.4881H7.54365V21.0992Z" fill="white"/>
</svg>
