<svg width="106" height="54" viewBox="0 0 106 54" fill="none" xmlns="http://www.w3.org/2000/svg">
<path d="M17.6667 31.4167C22.525 31.4167 26.5 27.4417 26.5 22.5833C26.5 17.725 22.525 13.75 17.6667 13.75C12.8083 13.75 8.83333 17.725 8.83333 22.5833C8.83333 27.4417 12.8083 31.4167 17.6667 31.4167ZM22.6575 36.275C21.0233 36.01 19.3892 35.8333 17.6667 35.8333C13.2942 35.8333 9.1425 36.7608 5.38833 38.395C2.12 39.8083 0 42.9883 0 46.5658V53.5H19.875V46.3892C19.875 42.7233 20.8908 39.2783 22.6575 36.275ZM88.3333 31.4167C93.1917 31.4167 97.1667 27.4417 97.1667 22.5833C97.1667 17.725 93.1917 13.75 88.3333 13.75C83.475 13.75 79.5 17.725 79.5 22.5833C79.5 27.4417 83.475 31.4167 88.3333 31.4167ZM106 46.5658C106 42.9883 103.88 39.8083 100.612 38.395C96.8575 36.7608 92.7058 35.8333 88.3333 35.8333C86.6108 35.8333 84.9767 36.01 83.3425 36.275C85.1092 39.2783 86.125 42.7233 86.125 46.3892V53.5H106V46.5658ZM71.7267 34.2875C66.5592 31.9908 60.1992 30.3125 53 30.3125C45.8008 30.3125 39.4408 32.035 34.2733 34.2875C29.5033 36.4075 26.5 41.1775 26.5 46.3892V53.5H79.5V46.3892C79.5 41.1775 76.4967 36.4075 71.7267 34.2875ZM35.6425 44.6667C36.04 43.6508 36.2167 42.9442 39.6617 41.6192C43.9458 39.9408 48.4508 39.1458 53 39.1458C57.5492 39.1458 62.0542 39.9408 66.3383 41.6192C69.7392 42.9442 69.9158 43.6508 70.3575 44.6667H35.6425ZM53 9.33333C55.4292 9.33333 57.4167 11.3208 57.4167 13.75C57.4167 16.1792 55.4292 18.1667 53 18.1667C50.5708 18.1667 48.5833 16.1792 48.5833 13.75C48.5833 11.3208 50.5708 9.33333 53 9.33333ZM53 0.5C45.6683 0.5 39.75 6.41833 39.75 13.75C39.75 21.0817 45.6683 27 53 27C60.3317 27 66.25 21.0817 66.25 13.75C66.25 6.41833 60.3317 0.5 53 0.5Z" fill="#234361"/>
</svg>
