<svg width="23" height="29" viewBox="0 0 23 29" fill="none" xmlns="http://www.w3.org/2000/svg">
<path d="M11.5002 29C12.9735 29 14.1655 27.7995 14.1655 26.3158H8.83494C8.83494 27.7995 10.027 29 11.5002 29ZM22.6034 22.647L20.8756 20.907V12.814C20.8756 8.29535 17.7148 4.5186 13.5092 3.6014V2.02326C13.5092 0.903721 12.6119 0 11.5002 0C10.3886 0 9.49122 0.903721 9.49122 2.02326V3.6014C5.28568 4.5186 2.12484 8.29535 2.12484 12.814V20.907L0.397084 22.647C-0.446701 23.4967 0.142609 24.9535 1.33462 24.9535H21.6524C22.8578 24.9535 23.4472 23.4967 22.6034 22.647ZM12.8396 19.5581H10.1609V16.8605H12.8396V19.5581ZM12.8396 12.814C12.8396 13.5558 12.2369 14.1628 11.5002 14.1628C10.7636 14.1628 10.1609 13.5558 10.1609 12.814V10.1163C10.1609 9.37442 10.7636 8.76744 11.5002 8.76744C12.2369 8.76744 12.8396 9.37442 12.8396 10.1163V12.814Z" fill="white"/>
</svg>
