<svg width="23" height="26" viewBox="0 0 23 26" fill="none" xmlns="http://www.w3.org/2000/svg">
<path fill-rule="evenodd" clip-rule="evenodd" d="M18.8215 9.72973V13.6543C18.8215 16.3506 19.8481 18.7422 21.8716 20.763C21.9871 20.8782 22.0288 21.0484 21.9798 21.2037C21.9307 21.3595 21.7995 21.4751 21.6392 21.5026L17.5166 22.2178C16.7528 22.3504 16.0491 22.4591 15.3788 22.5486C14.6212 24.0418 13.132 25 11.5051 25C9.87863 25 8.38988 24.0422 7.63182 22.5499C6.95891 22.46 6.25168 22.3509 5.48363 22.2178L1.36058 21.5026C1.20028 21.4747 1.06865 21.3595 1.01999 21.2037C0.971338 21.0479 1.01304 20.8782 1.12816 20.763C3.06088 18.8334 4.04093 16.4418 4.04093 13.6543V9.72711C4.05831 6.96978 5.98538 4.84735 7.88726 3.96678C8.33123 3.76082 8.78867 3.59632 9.25393 3.47021V3.18178C9.25393 1.97875 10.2283 1 11.426 1C12.6237 1 13.5981 1.97875 13.5981 3.18178V3.43225C14.1146 3.56184 14.6229 3.73639 15.116 3.96286C16.8371 4.7531 18.8402 6.73764 18.8215 9.72973ZM11.4259 1.87271C10.7074 1.87271 10.1227 2.46005 10.1227 3.18178V3.2817C10.985 3.14163 11.8634 3.1364 12.7292 3.2612V3.18178C12.7292 2.46005 12.1445 1.87271 11.4259 1.87271ZM11.5054 24.1269C10.4055 24.1269 9.37767 23.5779 8.71779 22.6803C9.68871 22.7807 10.5949 22.8313 11.5007 22.8313C12.4099 22.8313 13.3191 22.7807 14.294 22.679C13.6337 23.5775 12.6054 24.1269 11.5054 24.1269ZM15.0505 21.7116C15.7725 21.6191 16.5366 21.5017 17.3703 21.3573L20.6962 20.7809C18.8985 18.7352 17.9537 16.2873 17.9537 13.6548V9.72755C17.9689 7.31407 16.3585 5.49272 14.7559 4.75659C14.2186 4.51004 13.6608 4.33027 13.0943 4.21158C13.0916 4.21117 13.089 4.21153 13.0863 4.21189C13.0833 4.2123 13.0803 4.21271 13.0774 4.21201C11.9944 3.98904 10.8553 3.99994 9.78447 4.24169C9.7823 4.24212 9.78002 4.24223 9.77774 4.24234C9.77546 4.24245 9.77318 4.24256 9.77101 4.243C9.25275 4.36212 8.74318 4.53186 8.25185 4.7592C6.59976 5.52457 4.92552 7.35814 4.91075 9.72973V13.6543C4.91075 16.3999 4.03453 18.7928 2.30424 20.78L5.63188 21.3569C6.469 21.5017 7.23618 21.62 7.96079 21.7121H7.9647C8.28009 21.7522 8.58679 21.7876 8.8874 21.8177L8.91694 21.8203C9.18585 21.8473 9.4491 21.8692 9.70932 21.8879C9.76406 21.8918 9.81836 21.8953 9.87266 21.8988C10.1016 21.9141 10.3279 21.9254 10.5525 21.9346C10.5766 21.9355 10.6009 21.9366 10.6251 21.9377C10.6493 21.9387 10.6735 21.9398 10.6976 21.9407C11.2376 21.9586 11.7706 21.9586 12.311 21.9403C12.339 21.9395 12.3672 21.9382 12.3952 21.937C12.4138 21.9361 12.4324 21.9353 12.4509 21.9346C12.6794 21.9259 12.9092 21.9137 13.1417 21.8984C13.1916 21.8953 13.242 21.8918 13.2924 21.8883C13.5609 21.8692 13.8319 21.8465 14.1095 21.8185C14.1108 21.8185 14.112 21.8184 14.1132 21.8183C14.1144 21.8182 14.1156 21.8181 14.1169 21.8181C14.4197 21.7876 14.729 21.7522 15.0474 21.7116H15.0505Z" fill="#222222"/>
<path d="M18.8215 9.72973L18.7215 9.72911V9.72973H18.8215ZM21.8716 20.763L21.8009 20.8337L21.801 20.8338L21.8716 20.763ZM21.9798 21.2037L21.8844 21.1736L21.8844 21.1736L21.9798 21.2037ZM21.6392 21.5026L21.6223 21.404L21.6221 21.4041L21.6392 21.5026ZM17.5166 22.2178L17.4995 22.1193L17.4994 22.1193L17.5166 22.2178ZM15.3788 22.5486L15.3656 22.4494L15.3134 22.4564L15.2896 22.5033L15.3788 22.5486ZM7.63182 22.5499L7.72098 22.5046L7.69717 22.4577L7.64506 22.4507L7.63182 22.5499ZM5.48363 22.2178L5.46654 22.3163L5.46656 22.3163L5.48363 22.2178ZM1.36058 21.5026L1.34341 21.6011L1.34349 21.6011L1.36058 21.5026ZM1.01999 21.2037L1.11545 21.1739L1.01999 21.2037ZM1.12816 20.763L1.05751 20.6922L1.05743 20.6923L1.12816 20.763ZM4.04093 9.72711L3.94093 9.72648V9.72711H4.04093ZM7.88726 3.96678L7.92927 4.05753L7.92934 4.0575L7.88726 3.96678ZM9.25393 3.47021L9.2801 3.56673L9.35394 3.54671V3.47021H9.25393ZM13.5981 3.43225H13.4981V3.51026L13.5738 3.52924L13.5981 3.43225ZM15.116 3.96286L15.0742 4.05373L15.0742 4.05373L15.116 3.96286ZM10.1227 3.2817H10.0227V3.39926L10.1387 3.38041L10.1227 3.2817ZM12.7292 3.2612L12.7149 3.36017L12.8292 3.37664V3.2612H12.7292ZM8.71779 22.6803L8.72807 22.5809L8.50348 22.5576L8.63722 22.7396L8.71779 22.6803ZM14.294 22.679L14.3746 22.7382L14.5084 22.5561L14.2836 22.5796L14.294 22.679ZM17.3703 21.3573L17.3873 21.4558H17.3873L17.3703 21.3573ZM15.0505 21.7116V21.8124L15.0632 21.8108L15.0505 21.7116ZM20.6962 20.7809L20.7132 20.8794L20.8891 20.8489L20.7713 20.7149L20.6962 20.7809ZM17.9537 9.72755L17.8537 9.72692V9.72755H17.9537ZM14.7559 4.75659L14.7977 4.66571L14.7976 4.66569L14.7559 4.75659ZM13.0943 4.21158L13.1148 4.11356L13.1096 4.11275L13.0943 4.21158ZM13.0863 4.21189L13.0728 4.11281L13.0728 4.11281L13.0863 4.21189ZM13.0774 4.21201L13.0999 4.11457L13.0975 4.11407L13.0774 4.21201ZM9.78447 4.24169L9.80418 4.33975L9.80649 4.33923L9.78447 4.24169ZM9.77774 4.24234L9.77297 4.14245L9.77296 4.14245L9.77774 4.24234ZM9.77101 4.243L9.7513 4.14492L9.74861 4.14554L9.77101 4.243ZM8.25185 4.7592L8.20986 4.66845L8.20982 4.66847L8.25185 4.7592ZM4.91075 9.72973L4.81075 9.72911V9.72973H4.91075ZM2.30424 20.78L2.22883 20.7143L2.11226 20.8482L2.28716 20.8785L2.30424 20.78ZM5.63188 21.3569L5.6148 21.4554L5.61483 21.4554L5.63188 21.3569ZM7.96079 21.7121L7.94808 21.8121H7.96079V21.7121ZM7.9647 21.7121L7.97743 21.6121H7.9647V21.7121ZM8.8874 21.8177L8.87744 21.9172L8.87857 21.9173L8.8874 21.8177ZM8.91694 21.8203L8.92695 21.7208L8.92577 21.7207L8.91694 21.8203ZM9.70932 21.8879L9.70213 21.9877L9.70216 21.9877L9.70932 21.8879ZM9.87266 21.8988L9.87932 21.799L9.87908 21.799L9.87266 21.8988ZM10.5525 21.9346L10.5484 22.0345L10.5489 22.0345L10.5525 21.9346ZM10.6976 21.9407L10.694 22.0406L10.6943 22.0407L10.6976 21.9407ZM12.311 21.9403L12.3082 21.8403L12.3077 21.8403L12.311 21.9403ZM12.3952 21.937L12.3997 22.0369H12.3997L12.3952 21.937ZM12.4509 21.9346L12.4547 22.0345L12.4547 22.0345L12.4509 21.9346ZM13.1417 21.8984L13.1356 21.7986L13.1351 21.7986L13.1417 21.8984ZM13.2924 21.8883L13.2993 21.9881L13.2995 21.9881L13.2924 21.8883ZM14.1095 21.8185V21.718L14.0995 21.719L14.1095 21.8185ZM14.1169 21.8181V21.9186L14.127 21.9176L14.1169 21.8181ZM15.0474 21.7116V21.6108L15.0348 21.6124L15.0474 21.7116ZM18.9215 13.6543V9.72973H18.7215V13.6543H18.9215ZM21.9422 20.6922C19.9362 18.6889 18.9215 16.3223 18.9215 13.6543H18.7215C18.7215 16.3789 19.7599 18.7955 21.8009 20.8337L21.9422 20.6922ZM22.0751 21.2338C22.1355 21.0428 22.0842 20.8337 21.9422 20.6922L21.801 20.8338C21.8901 20.9226 21.9222 21.0539 21.8844 21.1736L22.0751 21.2338ZM21.6561 21.6012C21.8538 21.5673 22.0149 21.4248 22.0751 21.2338L21.8844 21.1736C21.8464 21.2942 21.7451 21.383 21.6223 21.404L21.6561 21.6012ZM17.5336 22.3163L21.6563 21.6011L21.6221 21.4041L17.4995 22.1193L17.5336 22.3163ZM15.392 22.6477C16.0638 22.558 16.7688 22.4492 17.5337 22.3163L17.4994 22.1193C16.7369 22.2517 16.0344 22.3602 15.3656 22.4494L15.392 22.6477ZM11.5051 25.1C13.1721 25.1 14.6944 24.1184 15.468 22.5938L15.2896 22.5033C14.5479 23.9651 13.0919 24.9 11.5051 24.9V25.1ZM7.54267 22.5951C8.31664 24.1188 9.83854 25.1 11.5051 25.1V24.9C9.91871 24.9 8.46312 23.9656 7.72098 22.5046L7.54267 22.5951ZM5.46656 22.3163C6.23573 22.4496 6.94425 22.5589 7.61858 22.649L7.64506 22.4507C6.97357 22.361 6.26763 22.2522 5.5007 22.1193L5.46656 22.3163ZM1.34349 21.6011L5.46654 22.3163L5.50072 22.1193L1.37767 21.4041L1.34349 21.6011ZM0.92454 21.2335C0.984379 21.4251 1.14626 21.5668 1.34341 21.6011L1.37774 21.4041C1.25429 21.3826 1.15292 21.2939 1.11545 21.1739L0.92454 21.2335ZM1.05743 20.6923C0.91598 20.8338 0.86482 21.0423 0.92454 21.2335L1.11545 21.1739C1.07786 21.0535 1.1101 20.9225 1.1989 20.8337L1.05743 20.6923ZM3.94093 13.6543C3.94093 16.4158 2.97101 18.7818 1.05751 20.6922L1.19882 20.8338C3.15076 18.885 4.14093 16.4677 4.14093 13.6543H3.94093ZM3.94093 9.72711V13.6543H4.14093V9.72711H3.94093ZM7.84524 3.87604C5.91728 4.76868 3.95861 6.92134 3.94093 9.72648L4.14093 9.72774C4.158 7.01822 6.05348 4.92602 7.92927 4.05753L7.84524 3.87604ZM9.22777 3.37369C8.75729 3.50121 8.2945 3.66762 7.84518 3.87607L7.92934 4.0575C8.36796 3.85402 8.82006 3.69142 9.2801 3.56673L9.22777 3.37369ZM9.15393 3.18178V3.47021H9.35394V3.18178H9.15393ZM11.426 0.9C10.1727 0.9 9.15393 1.92394 9.15393 3.18178H9.35394C9.35394 2.03355 10.284 1.1 11.426 1.1V0.9ZM13.6981 3.18178C13.6981 1.92394 12.6794 0.9 11.426 0.9V1.1C12.5681 1.1 13.4981 2.03355 13.4981 3.18178H13.6981ZM13.6981 3.43225V3.18178H13.4981V3.43225H13.6981ZM15.1577 3.87198C14.6586 3.64276 14.1445 3.46624 13.6224 3.33525L13.5738 3.52924C14.0847 3.65745 14.5872 3.83001 15.0742 4.05373L15.1577 3.87198ZM18.9215 9.73036C18.9405 6.68879 16.9043 4.6739 15.1577 3.87198L15.0742 4.05373C16.7699 4.83229 18.7399 6.7865 18.7215 9.72911L18.9215 9.73036ZM10.2227 3.18178C10.2227 2.51485 10.7631 1.97271 11.4259 1.97271V1.77271C10.6518 1.77271 10.0227 2.40524 10.0227 3.18178H10.2227ZM10.2227 3.2817V3.18178H10.0227V3.2817H10.2227ZM12.7435 3.16222C11.8678 3.036 10.9792 3.04127 10.1067 3.183L10.1387 3.38041C10.9908 3.242 11.859 3.23679 12.7149 3.36017L12.7435 3.16222ZM12.6292 3.18178V3.2612H12.8292V3.18178H12.6292ZM11.4259 1.97271C12.0888 1.97271 12.6292 2.51485 12.6292 3.18178H12.8292C12.8292 2.40524 12.2001 1.77271 11.4259 1.77271V1.97271ZM8.63722 22.7396C9.31474 23.6611 10.3717 24.2269 11.5054 24.2269V24.0268C10.4393 24.0268 9.4406 23.4947 8.79836 22.6211L8.63722 22.7396ZM11.5007 22.7313C10.5987 22.7313 9.696 22.6809 8.72807 22.5809L8.70751 22.7798C9.68143 22.8805 10.5911 22.9313 11.5007 22.9313V22.7313ZM14.2836 22.5796C13.3118 22.6809 12.4061 22.7313 11.5007 22.7313V22.9313C12.4137 22.9313 13.3264 22.8805 14.3043 22.7785L14.2836 22.5796ZM11.5054 24.2269C12.6392 24.2269 13.6966 23.6607 14.3746 22.7382L14.2134 22.6198C13.5707 23.4943 12.5716 24.0268 11.5054 24.0268V24.2269ZM17.3532 21.2588C16.5207 21.403 15.758 21.5202 15.0378 21.6124L15.0632 21.8108C15.7869 21.7181 16.5526 21.6005 17.3873 21.4558L17.3532 21.2588ZM20.6791 20.6823L17.3532 21.2588L17.3873 21.4558L20.7132 20.8794L20.6791 20.6823ZM17.8537 13.6548C17.8537 16.3126 18.8081 18.7838 20.621 20.8469L20.7713 20.7149C18.989 18.6867 18.0537 16.262 18.0537 13.6548H17.8537ZM17.8537 9.72755V13.6548H18.0537V9.72755H17.8537ZM14.7142 4.84746C16.2884 5.57056 17.8686 7.36022 17.8537 9.72692L18.0537 9.72818C18.0692 7.26791 16.4286 5.41488 14.7977 4.66571L14.7142 4.84746ZM13.0738 4.30945C13.6333 4.42669 14.184 4.6042 14.7142 4.84748L14.7976 4.66569C14.2532 4.41589 13.6882 4.23385 13.1148 4.1137L13.0738 4.30945ZM13.0998 4.31097C13.1018 4.31071 13.0995 4.31106 13.0967 4.31124C13.0933 4.31146 13.087 4.31164 13.079 4.3104L13.1096 4.11275C13.0901 4.10975 13.073 4.11279 13.0728 4.11281L13.0998 4.31097ZM13.0548 4.30943C13.0677 4.31242 13.0788 4.3126 13.0863 4.31227C13.0931 4.31196 13.0991 4.31107 13.0998 4.31097L13.0728 4.11281C13.0705 4.11312 13.0736 4.11263 13.0774 4.11246C13.0819 4.11226 13.09 4.1123 13.0999 4.1146L13.0548 4.30943ZM9.80649 4.33923C10.8634 4.10063 11.9881 4.08984 13.0572 4.30996L13.0975 4.11407C12.0006 3.88823 10.8472 3.89926 9.76245 4.14414L9.80649 4.33923ZM9.78252 4.34223C9.78335 4.34219 9.79332 4.34191 9.80417 4.33973L9.76478 4.14365C9.76861 4.14287 9.77151 4.14259 9.77271 4.14249C9.77372 4.14241 9.77443 4.14238 9.77297 4.14245L9.78252 4.34223ZM9.79071 4.34104C9.78687 4.34181 9.78397 4.34209 9.78278 4.34219C9.78177 4.34227 9.78106 4.3423 9.78252 4.34223L9.77296 4.14245C9.77212 4.14249 9.76216 4.14277 9.75131 4.14495L9.79071 4.34104ZM8.29384 4.84996C8.77846 4.62572 9.28142 4.45814 9.79341 4.34045L9.74861 4.14554C9.22408 4.2661 8.70789 4.438 8.20986 4.66845L8.29384 4.84996ZM5.01075 9.73036C5.02522 7.40702 6.66737 5.60346 8.29389 4.84994L8.20982 4.66847C6.53215 5.44568 4.82582 7.30926 4.81075 9.72911L5.01075 9.73036ZM5.01075 13.6543V9.72973H4.81075V13.6543H5.01075ZM2.37966 20.8457C4.12649 18.8395 5.01075 16.4229 5.01075 13.6543H4.81075C4.81075 16.3768 3.94257 18.7462 2.22883 20.7143L2.37966 20.8457ZM5.64896 21.2583L2.32133 20.6815L2.28716 20.8785L5.6148 21.4554L5.64896 21.2583ZM7.9734 21.6129C7.25063 21.521 6.48498 21.403 5.64893 21.2583L5.61483 21.4554C6.45303 21.6005 7.22174 21.719 7.94819 21.8113L7.9734 21.6129ZM7.9647 21.6121H7.96079V21.8121H7.9647V21.6121ZM8.89737 21.7182C8.59776 21.6882 8.29196 21.6529 7.97733 21.6129L7.95207 21.8113C8.26822 21.8515 8.57581 21.887 8.87744 21.9172L8.89737 21.7182ZM8.92577 21.7207L8.89623 21.7181L8.87857 21.9173L8.90811 21.9199L8.92577 21.7207ZM9.71651 21.7882C9.45701 21.7695 9.19472 21.7477 8.92695 21.7208L8.90693 21.9198C9.17698 21.9469 9.4412 21.9688 9.70213 21.9877L9.71651 21.7882ZM9.87908 21.799C9.82471 21.7955 9.77078 21.7921 9.71648 21.7882L9.70216 21.9877C9.75733 21.9916 9.812 21.9951 9.86625 21.9986L9.87908 21.799ZM10.5566 21.8347C10.3326 21.8255 10.1072 21.8142 9.87932 21.799L9.86601 21.9986C10.096 22.0139 10.3232 22.0253 10.5484 22.0345L10.5566 21.8347ZM10.6296 21.8378C10.6054 21.8367 10.5808 21.8356 10.5561 21.8347L10.5489 22.0345C10.5725 22.0354 10.5963 22.0365 10.6206 22.0376L10.6296 21.8378ZM10.7012 21.8408C10.6776 21.8399 10.6539 21.8389 10.6296 21.8378L10.6206 22.0376C10.6447 22.0386 10.6694 22.0398 10.694 22.0406L10.7012 21.8408ZM12.3077 21.8403C11.7695 21.8586 11.2387 21.8586 10.7009 21.8408L10.6943 22.0407C11.2365 22.0586 11.7718 22.0586 12.3144 22.0402L12.3077 21.8403ZM12.3908 21.8371C12.3625 21.8383 12.3352 21.8396 12.3082 21.8403L12.3139 22.0402C12.3428 22.0394 12.3718 22.0381 12.3997 22.0369L12.3908 21.8371ZM12.4472 21.8347C12.4282 21.8354 12.4093 21.8362 12.3908 21.8371L12.3997 22.0369C12.4184 22.036 12.4366 22.0352 12.4547 22.0345L12.4472 21.8347ZM13.1351 21.7986C12.9035 21.8138 12.6746 21.826 12.4471 21.8347L12.4547 22.0345C12.6842 22.0258 12.915 22.0135 13.1482 21.9982L13.1351 21.7986ZM13.2855 21.7886C13.235 21.7921 13.185 21.7955 13.1356 21.7986L13.1478 21.9982C13.1982 21.9951 13.249 21.9916 13.2993 21.9881L13.2855 21.7886ZM14.0995 21.719C13.823 21.7469 13.5529 21.7695 13.2853 21.7886L13.2995 21.9881C13.5688 21.9688 13.8409 21.9461 14.1195 21.918L14.0995 21.719ZM14.1042 21.7187C14.1025 21.7189 14.1056 21.7185 14.1095 21.7185V21.9185C14.116 21.9185 14.1216 21.918 14.1223 21.9179L14.1042 21.7187ZM14.1169 21.7181C14.1104 21.7181 14.1049 21.7187 14.1042 21.7187L14.1223 21.9179C14.124 21.9177 14.1208 21.9181 14.1169 21.9181V21.7181ZM15.0348 21.6124C14.7172 21.6529 14.4088 21.6881 14.1069 21.7186L14.127 21.9176C14.4306 21.887 14.7408 21.8515 15.0601 21.8108L15.0348 21.6124ZM15.0505 21.6116H15.0474V21.8116H15.0505V21.6116Z" fill="#222222"/>
<path d="M14.7235 5.60449C12.888 4.79881 10.6405 4.7979 8.81735 5.6054C7.77766 6.06578 6.01422 7.41282 6.00001 9.54234C5.99859 9.79346 6.20889 9.99818 6.47083 10C6.47178 10 6.47272 10 6.47367 10C6.73371 10 6.94591 9.79847 6.94733 9.5478C6.95823 7.87503 8.37732 6.80231 9.21381 6.43154C10.7911 5.73232 12.7407 5.73414 14.3289 6.43154C14.5671 6.53618 14.848 6.43564 14.957 6.20727C15.0659 5.97844 14.9608 5.70866 14.7235 5.60449Z" fill="#222222" stroke="#222222" stroke-width="0.2"/>
<circle cx="18.5" cy="7.5" r="3.75" fill="#F03737" stroke="white" stroke-width="0.5"/>
</svg>
