<svg width="26" height="25" viewBox="0 0 26 25" fill="none" xmlns="http://www.w3.org/2000/svg">
<path fill-rule="evenodd" clip-rule="evenodd" d="M2.66667 1.09375C2.20242 1.09375 1.76619 1.2508 1.46007 1.55939C1.15395 1.86798 1 2.3017 1 2.74936V15.4423C1 15.8901 1.1541 16.3184 1.46007 16.6237C1.76604 16.9289 2.20071 17.0875 2.65799 17.098H3.77778V20.961C3.77942 21.1745 3.91791 21.3809 4.11565 21.4646C4.31339 21.5482 4.55917 21.5044 4.71528 21.3577L9.27257 17.098H20.4444C20.9087 17.098 21.3449 16.9323 21.651 16.6237C21.9572 16.3151 22.1111 15.89 22.1111 15.4423V2.74936C22.1111 2.3017 21.9658 1.86802 21.6597 1.55939C21.3536 1.25076 20.9088 1.09363 20.4444 1.09375H2.66667ZM2.66734 2.19751H20.4451C20.6732 2.19745 20.7855 2.25853 20.8618 2.33548C20.9381 2.41243 21.0007 2.53171 21.0007 2.74938V15.4424C21.0007 15.66 20.9381 15.7793 20.8618 15.8563C20.7855 15.9332 20.6733 15.9942 20.4451 15.9942H9.05623C8.91645 15.9942 8.77694 16.0466 8.67429 16.1408L4.88956 19.6762V16.5461C4.88953 16.2571 4.62489 15.9942 4.33401 15.9942H2.66734C2.44059 15.9868 2.31716 15.9226 2.24199 15.8476C2.16545 15.7712 2.11179 15.66 2.11179 15.4424V2.74938C2.11179 2.53171 2.17435 2.41242 2.25067 2.33548C2.327 2.25853 2.43916 2.19751 2.66734 2.19751ZM24.3346 5.77589C24.3329 5.506 24.5593 5.25356 24.8293 5.22402C25.1398 5.19012 25.4475 5.46568 25.4457 5.77589V18.7534C25.4457 19.1999 25.2912 19.6309 24.9856 19.9348C24.68 20.2387 24.251 20.3925 23.7964 20.409H23.779H22.3901V24.2721C22.3885 24.4856 22.25 24.692 22.0522 24.7757C21.8545 24.8594 21.6087 24.8155 21.4526 24.6688L16.8953 20.409H9.89011C9.5966 20.4131 9.32664 20.1488 9.32664 19.8572C9.32664 19.5656 9.5966 19.3012 9.89011 19.3053H17.1123C17.2521 19.3041 17.3916 19.3576 17.4943 19.4519L21.279 22.9873V19.8572C21.279 19.5682 21.5437 19.3053 21.8346 19.3053H23.7616C24.0031 19.2966 24.1284 19.2256 24.2043 19.1501C24.2803 19.0746 24.3346 18.9717 24.3346 18.7534V5.77589Z" fill="#222222"/>
<path d="M1.46007 1.55939L1.38907 1.48896L1.38907 1.48896L1.46007 1.55939ZM1.46007 16.6237L1.5307 16.5529L1.46007 16.6237ZM2.65799 17.098L2.65571 17.198H2.65799V17.098ZM3.77778 17.098H3.87778V16.998H3.77778V17.098ZM3.77778 20.961H3.67777L3.67778 20.9618L3.77778 20.961ZM4.11565 21.4646L4.07668 21.5567L4.07669 21.5567L4.11565 21.4646ZM4.71528 21.3577L4.64699 21.2846L4.64678 21.2848L4.71528 21.3577ZM9.27257 17.098V16.998H9.23311L9.20428 17.0249L9.27257 17.098ZM21.6597 1.55939L21.7307 1.48897V1.48897L21.6597 1.55939ZM20.4444 1.09375V1.19375L20.4445 1.19375L20.4444 1.09375ZM20.4451 2.19751V2.29751H20.4451L20.4451 2.19751ZM20.8618 2.33548L20.7908 2.4059L20.8618 2.33548ZM8.67429 16.1408L8.60666 16.0671L8.60602 16.0677L8.67429 16.1408ZM4.88956 19.6762H4.78956V19.9065L4.95783 19.7493L4.88956 19.6762ZM4.88956 16.5461H4.98956V16.5461L4.88956 16.5461ZM4.33401 15.9942L4.33402 15.8942H4.33401V15.9942ZM2.66734 15.9942L2.66406 16.0942H2.66734V15.9942ZM2.24199 15.8476L2.17135 15.9184L2.17137 15.9184L2.24199 15.8476ZM2.25067 2.33548L2.32167 2.4059L2.32167 2.4059L2.25067 2.33548ZM24.8293 5.22402L24.8185 5.12461L24.8185 5.12462L24.8293 5.22402ZM24.3346 5.77589H24.4346L24.4346 5.7753L24.3346 5.77589ZM25.4457 5.77589L25.3457 5.7753V5.77589H25.4457ZM25.4457 18.7534H25.3457V18.7534L25.4457 18.7534ZM24.9856 19.9348L24.9151 19.8639L24.9151 19.8639L24.9856 19.9348ZM23.7964 20.409V20.5091L23.8 20.509L23.7964 20.409ZM22.3901 20.409V20.309H22.2901V20.409H22.3901ZM22.3901 24.2721L22.4901 24.2729V24.2721H22.3901ZM21.4526 24.6688L21.5211 24.5959L21.5209 24.5957L21.4526 24.6688ZM16.8953 20.409L16.9636 20.336L16.9348 20.309H16.8953V20.409ZM9.89011 20.409V20.309L9.88871 20.309L9.89011 20.409ZM9.89011 19.3053L9.8887 19.4053H9.89011V19.3053ZM17.1123 19.3053V19.4053L17.1132 19.4053L17.1123 19.3053ZM17.4943 19.4519L17.5625 19.3788L17.5619 19.3782L17.4943 19.4519ZM21.279 22.9873L21.2107 23.0604L21.379 23.2176V22.9873H21.279ZM21.279 19.8572L21.179 19.8572V19.8572H21.279ZM21.8346 19.3053V19.2053H21.8345L21.8346 19.3053ZM23.7616 19.3053V19.4054L23.7653 19.4052L23.7616 19.3053ZM24.2043 19.1501L24.1338 19.0792L24.1338 19.0792L24.2043 19.1501ZM24.3346 18.7534H24.2346V18.7534L24.3346 18.7534ZM1.53106 1.62981C1.81524 1.34334 2.22421 1.19375 2.66667 1.19375V0.99375C2.18062 0.99375 1.71714 1.15825 1.38907 1.48896L1.53106 1.62981ZM1.1 2.74936C1.1 2.32373 1.24638 1.9168 1.53106 1.62981L1.38907 1.48896C1.06152 1.81917 0.9 2.27967 0.9 2.74936H1.1ZM1.1 15.4423V2.74936H0.9V15.4423H1.1ZM1.5307 16.5529C1.24637 16.2692 1.1 15.8678 1.1 15.4423H0.9C0.9 15.9123 1.06182 16.3676 1.38944 16.6945L1.5307 16.5529ZM2.66027 16.998C2.22364 16.988 1.8152 16.8367 1.5307 16.5529L1.38944 16.6945C1.71689 17.0211 2.17779 17.187 2.65571 17.1979L2.66027 16.998ZM3.77778 16.998H2.65799V17.198H3.77778V16.998ZM3.87778 20.961V17.098H3.67778V20.961H3.87778ZM4.15462 21.3725C3.99334 21.3043 3.8791 21.1336 3.87777 20.9602L3.67778 20.9618C3.67973 21.2155 3.84248 21.4576 4.07668 21.5567L4.15462 21.3725ZM4.64678 21.2848C4.51961 21.4044 4.31599 21.4408 4.15461 21.3725L4.07669 21.5567C4.31079 21.6557 4.59873 21.6045 4.78377 21.4305L4.64678 21.2848ZM9.20428 17.0249L4.64699 21.2846L4.78356 21.4307L9.34085 17.171L9.20428 17.0249ZM20.4444 16.998H9.27257V17.198H20.4444V16.998ZM21.58 16.5533C21.295 16.8406 20.8855 16.998 20.4444 16.998V17.198C20.9319 17.198 21.3948 17.0239 21.722 16.6941L21.58 16.5533ZM22.0111 15.4423C22.0111 15.8674 21.8651 16.266 21.58 16.5533L21.722 16.6941C22.0493 16.3643 22.2111 15.9126 22.2111 15.4423H22.0111ZM22.0111 2.74936V15.4423H22.2111V2.74936H22.0111ZM21.5887 1.62981C21.8725 1.91596 22.0111 2.32227 22.0111 2.74936H22.2111C22.2111 2.28113 22.0591 1.82009 21.7307 1.48897L21.5887 1.62981ZM20.4445 1.19375C20.8875 1.19363 21.3049 1.34362 21.5887 1.62981L21.7307 1.48897C21.4023 1.15789 20.93 0.99362 20.4444 0.99375L20.4445 1.19375ZM2.66667 1.19375H20.4444V0.99375H2.66667V1.19375ZM20.4451 2.09751H2.66734V2.29751H20.4451V2.09751ZM20.9328 2.26506C20.8343 2.16576 20.6947 2.09744 20.4451 2.09751L20.4451 2.29751C20.6518 2.29745 20.7366 2.35129 20.7908 2.4059L20.9328 2.26506ZM21.1007 2.74938C21.1007 2.50973 21.0306 2.36364 20.9328 2.26506L20.7908 2.4059C20.8457 2.46122 20.9007 2.5537 20.9007 2.74938H21.1007ZM21.1007 15.4424V2.74938H20.9007V15.4424H21.1007ZM20.9328 15.9267C21.0306 15.8281 21.1007 15.682 21.1007 15.4424H20.9007C20.9007 15.6381 20.8457 15.7305 20.7908 15.7858L20.9328 15.9267ZM20.4451 16.0942C20.6947 16.0942 20.8343 16.026 20.9328 15.9267L20.7908 15.7858C20.7366 15.8404 20.6519 15.8942 20.4451 15.8942V16.0942ZM9.05623 16.0942H20.4451V15.8942H9.05623V16.0942ZM8.74191 16.2145C8.8254 16.1378 8.94051 16.0942 9.05623 16.0942V15.8942C8.8924 15.8942 8.72848 15.9553 8.60666 16.0671L8.74191 16.2145ZM4.95783 19.7493L8.74255 16.2139L8.60602 16.0677L4.8213 19.6032L4.95783 19.7493ZM4.78956 16.5461V19.6762H4.98956V16.5461H4.78956ZM4.334 16.0942C4.57029 16.0942 4.78954 16.313 4.78956 16.5461L4.98956 16.5461C4.98953 16.2013 4.67949 15.8943 4.33402 15.8942L4.334 16.0942ZM2.66734 16.0942H4.33401V15.8942H2.66734V16.0942ZM2.17137 15.9184C2.2685 16.0153 2.41828 16.0861 2.66406 16.0942L2.67062 15.8943C2.46289 15.8875 2.36583 15.8299 2.31262 15.7768L2.17137 15.9184ZM2.01179 15.4424C2.01179 15.6787 2.07111 15.8184 2.17135 15.9184L2.31263 15.7768C2.2598 15.7241 2.21179 15.6412 2.21179 15.4424H2.01179ZM2.01179 2.74938V15.4424H2.21179V2.74938H2.01179ZM2.17968 2.26505C2.08189 2.36363 2.01179 2.50973 2.01179 2.74938H2.21179C2.21179 2.5537 2.26681 2.46121 2.32167 2.4059L2.17968 2.26505ZM2.66734 2.09751C2.41774 2.09751 2.27818 2.16576 2.17968 2.26505L2.32167 2.4059C2.37583 2.35131 2.46058 2.29751 2.66734 2.29751V2.09751ZM24.8185 5.12462C24.498 5.15967 24.2326 5.45481 24.2346 5.77649L24.4346 5.7753C24.4333 5.55718 24.6206 5.34746 24.8402 5.32343L24.8185 5.12462ZM25.5457 5.77648C25.5468 5.58789 25.4543 5.41547 25.3213 5.29642C25.1883 5.17735 25.0065 5.10408 24.8185 5.12461L24.8402 5.32343C24.9626 5.31006 25.0898 5.35763 25.1879 5.44541C25.2859 5.53322 25.3464 5.65368 25.3457 5.7753L25.5457 5.77648ZM25.5457 18.7534V5.77589H25.3457V18.7534H25.5457ZM25.0561 20.0057C25.3836 19.6801 25.5457 19.2221 25.5457 18.7534L25.3457 18.7534C25.3457 19.1778 25.1989 19.5817 24.9151 19.8639L25.0561 20.0057ZM23.8 20.509C24.2739 20.4917 24.7288 20.3311 25.0561 20.0057L24.9151 19.8639C24.6311 20.1463 24.2281 20.2932 23.7927 20.3091L23.8 20.509ZM23.779 20.509H23.7964V20.309H23.779V20.509ZM22.3901 20.509H23.779V20.309H22.3901V20.509ZM22.4901 24.2721V20.409H22.2901V24.2721H22.4901ZM22.0912 24.8678C22.3254 24.7687 22.4882 24.5266 22.4901 24.2729L22.2901 24.2714C22.2888 24.4447 22.1745 24.6153 22.0133 24.6836L22.0912 24.8678ZM21.3841 24.7416C21.5691 24.9156 21.8571 24.9668 22.0912 24.8678L22.0133 24.6836C21.8519 24.7519 21.6483 24.7155 21.5211 24.5959L21.3841 24.7416ZM16.827 20.4821L21.3843 24.7418L21.5209 24.5957L16.9636 20.336L16.827 20.4821ZM9.89011 20.509H16.8953V20.309H9.89011V20.509ZM9.22664 19.8572C9.22664 20.2052 9.54288 20.5139 9.89151 20.509L9.88871 20.309C9.65032 20.3124 9.42664 20.0923 9.42664 19.8572H9.22664ZM9.89152 19.2053C9.54287 19.2004 9.22664 19.5092 9.22664 19.8572H9.42664C9.42664 19.622 9.65033 19.4019 9.8887 19.4053L9.89152 19.2053ZM17.1123 19.2053H9.89011V19.4053H17.1123V19.2053ZM17.5619 19.3782C17.4405 19.2668 17.2765 19.2039 17.1115 19.2053L17.1132 19.4053C17.2277 19.4043 17.3427 19.4485 17.4266 19.5255L17.5619 19.3782ZM21.3473 22.9142L17.5625 19.3788L17.426 19.525L21.2107 23.0604L21.3473 22.9142ZM21.179 19.8572V22.9873H21.379V19.8572H21.179ZM21.8345 19.2053C21.4891 19.2053 21.179 19.5123 21.179 19.8572L21.379 19.8572C21.379 19.6241 21.5983 19.4053 21.8346 19.4053L21.8345 19.2053ZM23.7616 19.2053H21.8346V19.4053H23.7616V19.2053ZM24.1338 19.0792C24.0787 19.134 23.9788 19.1974 23.758 19.2054L23.7653 19.4052C24.0273 19.3958 24.1781 19.3172 24.2749 19.221L24.1338 19.0792ZM24.2346 18.7534C24.2346 18.8546 24.2219 18.9224 24.2041 18.9706C24.1868 19.0174 24.1631 19.05 24.1338 19.0792L24.2749 19.221C24.3215 19.1746 24.3629 19.1181 24.3917 19.0399C24.4201 18.9632 24.4346 18.8705 24.4346 18.7534L24.2346 18.7534ZM24.2346 5.77589V18.7534H24.4346V5.77589H24.2346Z" fill="#222222"/>
</svg>
