<svg width="20" height="20" viewBox="0 0 20 20" fill="none" xmlns="http://www.w3.org/2000/svg">
<path fill-rule="evenodd" clip-rule="evenodd" d="M5.13018 13.4583C2.68646 10.3198 2.90718 5.77911 5.79237 2.89393C8.91656 -0.230268 13.9819 -0.230267 17.1061 2.89393C20.2303 6.01812 20.2303 11.0834 17.1061 14.2076C14.2209 17.0928 9.68023 17.3135 6.54175 14.8698C6.5282 14.8851 6.51411 14.9001 6.49947 14.9147L2.25683 19.1574C1.86631 19.5479 1.23314 19.5479 0.842617 19.1574C0.452093 18.7669 0.452093 18.1337 0.842617 17.7432L5.08526 13.5005C5.0999 13.4859 5.11489 13.4718 5.13018 13.4583ZM7.20658 4.30814C4.86343 6.65129 4.86343 10.4503 7.20658 12.7934C9.54972 15.1366 13.3487 15.1366 15.6919 12.7934C18.035 10.4503 18.035 6.65129 15.6919 4.30814C13.3487 1.96499 9.54972 1.96499 7.20658 4.30814Z" fill="#818181"/>
</svg>
