<svg width="20" height="20" viewBox="0 0 20 20" fill="none" xmlns="http://www.w3.org/2000/svg">
<path d="M10 20C4.48593 20 0 15.5141 0 10C0 4.48593 4.48593 0 10 0C15.5141 0 20 4.48593 20 10C20 15.5141 15.5141 20 10 20ZM10 1.42853C5.27374 1.42853 1.42853 5.27374 1.42853 10C1.42853 14.7263 5.27374 18.5715 10 18.5715C14.7263 18.5715 18.5715 14.7263 18.5715 10C18.5715 5.27374 14.7263 1.42853 10 1.42853Z" fill="white"/>
<path d="M13.5715 14.2857C13.3887 14.2857 13.2059 14.216 13.0665 14.0764L5.92367 6.93359C5.64458 6.65451 5.64458 6.20254 5.92367 5.92361C6.2026 5.64468 6.65472 5.64453 6.93365 5.92361L14.0764 13.0664C14.3555 13.3455 14.3555 13.7975 14.0764 14.0764C13.937 14.216 13.7543 14.2857 13.5715 14.2857Z" fill="white"/>
<path d="M6.42858 14.2858C6.24578 14.2858 6.06313 14.2161 5.92367 14.0764C5.64458 13.7975 5.64458 13.3454 5.92367 13.0665L13.0665 5.92367C13.3455 5.64458 13.7975 5.64458 14.0764 5.92367C14.3554 6.2026 14.3555 6.65472 14.0764 6.93365L6.93365 14.0764C6.79418 14.2161 6.61138 14.2858 6.42858 14.2858Z" fill="white"/>
</svg>
