<svg width="23" height="26" viewBox="0 0 23 26" fill="none" xmlns="http://www.w3.org/2000/svg">
<path fill-rule="evenodd" clip-rule="evenodd" d="M18.822 9.72973V13.6543C18.822 16.3506 19.8486 18.7422 21.8721 20.763C21.9876 20.8782 22.0293 21.0484 21.9802 21.2037C21.9312 21.3595 21.8 21.4751 21.6397 21.5026L17.517 22.2178C16.7533 22.3504 16.0496 22.4591 15.3793 22.5486C14.6216 24.0418 13.1325 25 11.5056 25C9.87912 25 8.39037 24.0422 7.63231 22.5499C6.9594 22.46 6.25217 22.3509 5.48412 22.2178L1.36106 21.5026C1.20076 21.4747 1.06914 21.3595 1.02048 21.2037C0.971826 21.0479 1.01353 20.8782 1.12865 20.763C3.06137 18.8334 4.04142 16.4418 4.04142 13.6543V9.72711C4.05879 6.96978 5.98587 4.84735 7.88775 3.96678C8.33172 3.76082 8.78916 3.59632 9.25442 3.47021V3.18178C9.25442 1.97875 10.2288 1 11.4265 1C12.6242 1 13.5986 1.97875 13.5986 3.18178V3.43225C14.1151 3.56184 14.6234 3.73639 15.1164 3.96286C16.8376 4.7531 18.8407 6.73764 18.822 9.72973ZM11.4264 1.87271C10.7079 1.87271 10.1232 2.46005 10.1232 3.18178V3.2817C10.9855 3.14163 11.8639 3.1364 12.7297 3.2612V3.18178C12.7297 2.46005 12.145 1.87271 11.4264 1.87271ZM11.5059 24.1269C10.406 24.1269 9.37816 23.5779 8.71828 22.6803C9.6892 22.7807 10.5954 22.8313 11.5012 22.8313C12.4104 22.8313 13.3196 22.7807 14.2945 22.679C13.6341 23.5775 12.6059 24.1269 11.5059 24.1269ZM15.051 21.7116C15.773 21.6191 16.5371 21.5017 17.3708 21.3573L20.6967 20.7809C18.899 18.7352 17.9542 16.2873 17.9542 13.6548V9.72755C17.9694 7.31407 16.359 5.49272 14.7564 4.75659C14.2191 4.51004 13.6613 4.33027 13.0948 4.21158C13.0921 4.21117 13.0895 4.21153 13.0868 4.21189C13.0838 4.2123 13.0808 4.21271 13.0778 4.21201C11.9948 3.98904 10.8558 3.99994 9.78496 4.24169C9.78279 4.24212 9.78051 4.24223 9.77823 4.24234C9.77595 4.24245 9.77367 4.24256 9.7715 4.243C9.25324 4.36212 8.74366 4.53186 8.25234 4.7592C6.60025 5.52457 4.92601 7.35814 4.91124 9.72973V13.6543C4.91124 16.3999 4.03502 18.7928 2.30473 20.78L5.63237 21.3569C6.46949 21.5017 7.23667 21.62 7.96128 21.7121H7.96519C8.28058 21.7522 8.58727 21.7876 8.88789 21.8177L8.91743 21.8203C9.18634 21.8473 9.44959 21.8692 9.70981 21.8879C9.76455 21.8918 9.81885 21.8953 9.87315 21.8988C10.1021 21.9141 10.3284 21.9254 10.553 21.9346C10.5771 21.9355 10.6013 21.9366 10.6256 21.9377C10.6498 21.9387 10.674 21.9398 10.6981 21.9407C11.2381 21.9586 11.7711 21.9586 12.3115 21.9403C12.3395 21.9395 12.3676 21.9382 12.3957 21.937C12.4143 21.9361 12.4329 21.9353 12.4514 21.9346C12.6799 21.9259 12.9097 21.9137 13.1421 21.8984C13.1921 21.8953 13.2425 21.8918 13.2929 21.8883C13.5614 21.8692 13.8324 21.8465 14.11 21.8185C14.1113 21.8185 14.1125 21.8184 14.1137 21.8183C14.1149 21.8182 14.1161 21.8181 14.1174 21.8181C14.4202 21.7876 14.7295 21.7522 15.0479 21.7116H15.051Z" fill="#222222"/>
<path d="M18.822 9.72973L18.722 9.72911V9.72973H18.822ZM21.8721 20.763L21.8014 20.8337L21.8015 20.8338L21.8721 20.763ZM21.9802 21.2037L21.8849 21.1736L21.8849 21.1736L21.9802 21.2037ZM21.6397 21.5026L21.6228 21.404L21.6226 21.4041L21.6397 21.5026ZM17.517 22.2178L17.4999 22.1193L17.4999 22.1193L17.517 22.2178ZM15.3793 22.5486L15.366 22.4494L15.3139 22.4564L15.2901 22.5033L15.3793 22.5486ZM7.63231 22.5499L7.72147 22.5046L7.69766 22.4577L7.64555 22.4507L7.63231 22.5499ZM5.48412 22.2178L5.46703 22.3163L5.46704 22.3163L5.48412 22.2178ZM1.36106 21.5026L1.3439 21.6011L1.34397 21.6011L1.36106 21.5026ZM1.02048 21.2037L1.11593 21.1739L1.02048 21.2037ZM1.12865 20.763L1.058 20.6922L1.05792 20.6923L1.12865 20.763ZM4.04142 9.72711L3.94142 9.72648V9.72711H4.04142ZM7.88775 3.96678L7.92976 4.05753L7.92983 4.0575L7.88775 3.96678ZM9.25442 3.47021L9.28058 3.56673L9.35442 3.54671V3.47021H9.25442ZM13.5986 3.43225H13.4986V3.51026L13.5743 3.52924L13.5986 3.43225ZM15.1164 3.96286L15.0747 4.05373L15.0747 4.05373L15.1164 3.96286ZM10.1232 3.2817H10.0232V3.39926L10.1392 3.38041L10.1232 3.2817ZM12.7297 3.2612L12.7154 3.36017L12.8297 3.37664V3.2612H12.7297ZM8.71828 22.6803L8.72856 22.5809L8.50397 22.5576L8.63771 22.7396L8.71828 22.6803ZM14.2945 22.679L14.375 22.7382L14.5089 22.5561L14.2841 22.5796L14.2945 22.679ZM17.3708 21.3573L17.3878 21.4558H17.3878L17.3708 21.3573ZM15.051 21.7116V21.8124L15.0637 21.8108L15.051 21.7116ZM20.6967 20.7809L20.7137 20.8794L20.8896 20.8489L20.7718 20.7149L20.6967 20.7809ZM17.9542 9.72755L17.8542 9.72692V9.72755H17.9542ZM14.7564 4.75659L14.7982 4.66571L14.7981 4.66569L14.7564 4.75659ZM13.0948 4.21158L13.1153 4.11356L13.1101 4.11275L13.0948 4.21158ZM13.0868 4.21189L13.0733 4.11281L13.0733 4.11281L13.0868 4.21189ZM13.0778 4.21201L13.1004 4.11457L13.098 4.11407L13.0778 4.21201ZM9.78496 4.24169L9.80467 4.33975L9.80698 4.33923L9.78496 4.24169ZM9.77823 4.24234L9.77346 4.14245L9.77345 4.14245L9.77823 4.24234ZM9.7715 4.243L9.75179 4.14492L9.74909 4.14554L9.7715 4.243ZM8.25234 4.7592L8.21035 4.66845L8.2103 4.66847L8.25234 4.7592ZM4.91124 9.72973L4.81124 9.72911V9.72973H4.91124ZM2.30473 20.78L2.22932 20.7143L2.11275 20.8482L2.28765 20.8785L2.30473 20.78ZM5.63237 21.3569L5.61529 21.4554L5.61532 21.4554L5.63237 21.3569ZM7.96128 21.7121L7.94857 21.8121H7.96128V21.7121ZM7.96519 21.7121L7.97792 21.6121H7.96519V21.7121ZM8.88789 21.8177L8.87793 21.9172L8.87906 21.9173L8.88789 21.8177ZM8.91743 21.8203L8.92744 21.7208L8.92626 21.7207L8.91743 21.8203ZM9.70981 21.8879L9.70262 21.9877L9.70265 21.9877L9.70981 21.8879ZM9.87315 21.8988L9.87981 21.799L9.87956 21.799L9.87315 21.8988ZM10.553 21.9346L10.5489 22.0345L10.5494 22.0345L10.553 21.9346ZM10.6981 21.9407L10.6945 22.0406L10.6948 22.0407L10.6981 21.9407ZM12.3115 21.9403L12.3087 21.8403L12.3081 21.8403L12.3115 21.9403ZM12.3957 21.937L12.4002 22.0369H12.4002L12.3957 21.937ZM12.4514 21.9346L12.4552 22.0345L12.4552 22.0345L12.4514 21.9346ZM13.1421 21.8984L13.136 21.7986L13.1356 21.7986L13.1421 21.8984ZM13.2929 21.8883L13.2998 21.9881L13.3 21.9881L13.2929 21.8883ZM14.11 21.8185V21.718L14.1 21.719L14.11 21.8185ZM14.1174 21.8181V21.9186L14.1274 21.9176L14.1174 21.8181ZM15.0479 21.7116V21.6108L15.0353 21.6124L15.0479 21.7116ZM18.922 13.6543V9.72973H18.722V13.6543H18.922ZM21.9427 20.6922C19.9367 18.6889 18.922 16.3223 18.922 13.6543H18.722C18.722 16.3789 19.7604 18.7955 21.8014 20.8337L21.9427 20.6922ZM22.0756 21.2338C22.1359 21.0428 22.0847 20.8337 21.9427 20.6922L21.8015 20.8338C21.8906 20.9226 21.9227 21.0539 21.8849 21.1736L22.0756 21.2338ZM21.6566 21.6012C21.8543 21.5673 22.0154 21.4248 22.0756 21.2338L21.8849 21.1736C21.8469 21.2942 21.7456 21.383 21.6228 21.404L21.6566 21.6012ZM17.5341 22.3163L21.6567 21.6011L21.6226 21.4041L17.4999 22.1193L17.5341 22.3163ZM15.3925 22.6477C16.0642 22.558 16.7693 22.4492 17.5342 22.3163L17.4999 22.1193C16.7374 22.2517 16.0349 22.3602 15.366 22.4494L15.3925 22.6477ZM11.5056 25.1C13.1726 25.1 14.6949 24.1184 15.4684 22.5938L15.2901 22.5033C14.5484 23.9651 13.0924 24.9 11.5056 24.9V25.1ZM7.54315 22.5951C8.31713 24.1188 9.83903 25.1 11.5056 25.1V24.9C9.9192 24.9 8.46361 23.9656 7.72147 22.5046L7.54315 22.5951ZM5.46704 22.3163C6.23622 22.4496 6.94474 22.5589 7.61907 22.649L7.64555 22.4507C6.97406 22.361 6.26812 22.2522 5.50119 22.1193L5.46704 22.3163ZM1.34397 21.6011L5.46703 22.3163L5.50121 22.1193L1.37816 21.4041L1.34397 21.6011ZM0.925029 21.2335C0.984868 21.4251 1.14675 21.5668 1.3439 21.6011L1.37823 21.4041C1.25478 21.3826 1.1534 21.2939 1.11593 21.1739L0.925029 21.2335ZM1.05792 20.6923C0.916468 20.8338 0.865309 21.0423 0.925029 21.2335L1.11593 21.1739C1.07834 21.0535 1.11059 20.9225 1.19939 20.8337L1.05792 20.6923ZM3.94142 13.6543C3.94142 16.4158 2.9715 18.7818 1.058 20.6922L1.1993 20.8338C3.15124 18.885 4.14142 16.4677 4.14142 13.6543H3.94142ZM3.94142 9.72711V13.6543H4.14142V9.72711H3.94142ZM7.84573 3.87604C5.91777 4.76868 3.9591 6.92134 3.94142 9.72648L4.14142 9.72774C4.15849 7.01822 6.05397 4.92602 7.92976 4.05753L7.84573 3.87604ZM9.22826 3.37369C8.75778 3.50121 8.29499 3.66762 7.84566 3.87607L7.92983 4.0575C8.36845 3.85402 8.82055 3.69142 9.28058 3.56673L9.22826 3.37369ZM9.15442 3.18178V3.47021H9.35442V3.18178H9.15442ZM11.4265 0.9C10.1732 0.9 9.15442 1.92394 9.15442 3.18178H9.35442C9.35442 2.03355 10.2845 1.1 11.4265 1.1V0.9ZM13.6986 3.18178C13.6986 1.92394 12.6798 0.9 11.4265 0.9V1.1C12.5686 1.1 13.4986 2.03355 13.4986 3.18178H13.6986ZM13.6986 3.43225V3.18178H13.4986V3.43225H13.6986ZM15.1582 3.87198C14.6591 3.64276 14.145 3.46624 13.6229 3.33525L13.5743 3.52924C14.0852 3.65745 14.5876 3.83001 15.0747 4.05373L15.1582 3.87198ZM18.922 9.73036C18.941 6.68879 16.9048 4.6739 15.1582 3.87198L15.0747 4.05373C16.7704 4.83229 18.7404 6.7865 18.722 9.72911L18.922 9.73036ZM10.2232 3.18178C10.2232 2.51485 10.7636 1.97271 11.4264 1.97271V1.77271C10.6523 1.77271 10.0232 2.40524 10.0232 3.18178H10.2232ZM10.2232 3.2817V3.18178H10.0232V3.2817H10.2232ZM12.7439 3.16222C11.8683 3.036 10.9797 3.04127 10.1071 3.183L10.1392 3.38041C10.9913 3.242 11.8595 3.23679 12.7154 3.36017L12.7439 3.16222ZM12.6297 3.18178V3.2612H12.8297V3.18178H12.6297ZM11.4264 1.97271C12.0893 1.97271 12.6297 2.51485 12.6297 3.18178H12.8297C12.8297 2.40524 12.2006 1.77271 11.4264 1.77271V1.97271ZM8.63771 22.7396C9.31523 23.6611 10.3722 24.2269 11.5059 24.2269V24.0268C10.4398 24.0268 9.44109 23.4947 8.79885 22.6211L8.63771 22.7396ZM11.5012 22.7313C10.5992 22.7313 9.69649 22.6809 8.72856 22.5809L8.708 22.7798C9.68191 22.8805 10.5916 22.9313 11.5012 22.9313V22.7313ZM14.2841 22.5796C13.3123 22.6809 12.4066 22.7313 11.5012 22.7313V22.9313C12.4142 22.9313 13.3269 22.8805 14.3048 22.7785L14.2841 22.5796ZM11.5059 24.2269C12.6397 24.2269 13.6971 23.6607 14.375 22.7382L14.2139 22.6198C13.5712 23.4943 12.5721 24.0268 11.5059 24.0268V24.2269ZM17.3537 21.2588C16.5212 21.403 15.7585 21.5202 15.0383 21.6124L15.0637 21.8108C15.7874 21.7181 16.553 21.6005 17.3878 21.4558L17.3537 21.2588ZM20.6796 20.6823L17.3537 21.2588L17.3878 21.4558L20.7137 20.8794L20.6796 20.6823ZM17.8542 13.6548C17.8542 16.3126 18.8086 18.7838 20.6215 20.8469L20.7718 20.7149C18.9895 18.6867 18.0542 16.262 18.0542 13.6548H17.8542ZM17.8542 9.72755V13.6548H18.0542V9.72755H17.8542ZM14.7147 4.84746C16.2889 5.57056 17.8691 7.36022 17.8542 9.72692L18.0542 9.72818C18.0697 7.26791 16.4291 5.41488 14.7982 4.66571L14.7147 4.84746ZM13.0743 4.30945C13.6338 4.42669 14.1845 4.6042 14.7147 4.84748L14.7981 4.66569C14.2537 4.41589 13.6887 4.23385 13.1153 4.1137L13.0743 4.30945ZM13.1003 4.31097C13.1023 4.31071 13.1 4.31106 13.0972 4.31124C13.0938 4.31146 13.0875 4.31164 13.0795 4.3104L13.1101 4.11275C13.0906 4.10975 13.0734 4.11279 13.0733 4.11281L13.1003 4.31097ZM13.0553 4.30943C13.0682 4.31242 13.0792 4.3126 13.0868 4.31227C13.0936 4.31196 13.0996 4.31107 13.1003 4.31097L13.0733 4.11281C13.071 4.11312 13.0741 4.11263 13.0779 4.11246C13.0824 4.11226 13.0905 4.1123 13.1004 4.1146L13.0553 4.30943ZM9.80698 4.33923C10.8639 4.10063 11.9886 4.08984 13.0577 4.30996L13.098 4.11407C12.0011 3.88823 10.8477 3.89926 9.76294 4.14414L9.80698 4.33923ZM9.783 4.34223C9.78384 4.34219 9.79381 4.34191 9.80466 4.33973L9.76526 4.14365C9.7691 4.14287 9.772 4.14259 9.7732 4.14249C9.77421 4.14241 9.77492 4.14238 9.77346 4.14245L9.783 4.34223ZM9.7912 4.34104C9.78736 4.34181 9.78446 4.34209 9.78327 4.34219C9.78226 4.34227 9.78155 4.3423 9.78301 4.34223L9.77345 4.14245C9.77261 4.14249 9.76265 4.14277 9.75179 4.14495L9.7912 4.34104ZM8.29433 4.84996C8.77895 4.62572 9.2819 4.45814 9.7939 4.34045L9.74909 4.14554C9.22457 4.2661 8.70838 4.438 8.21035 4.66845L8.29433 4.84996ZM5.01123 9.73036C5.0257 7.40702 6.66786 5.60346 8.29437 4.84994L8.2103 4.66847C6.53264 5.44568 4.82631 7.30926 4.81124 9.72911L5.01123 9.73036ZM5.01124 13.6543V9.72973H4.81124V13.6543H5.01124ZM2.38015 20.8457C4.12698 18.8395 5.01124 16.4229 5.01124 13.6543H4.81124C4.81124 16.3768 3.94306 18.7462 2.22932 20.7143L2.38015 20.8457ZM5.64945 21.2583L2.32181 20.6815L2.28765 20.8785L5.61529 21.4554L5.64945 21.2583ZM7.97388 21.6129C7.25112 21.521 6.48547 21.403 5.64942 21.2583L5.61532 21.4554C6.45352 21.6005 7.22222 21.719 7.94867 21.8113L7.97388 21.6129ZM7.96519 21.6121H7.96128V21.8121H7.96519V21.6121ZM8.89786 21.7182C8.59825 21.6882 8.29244 21.6529 7.97782 21.6129L7.95256 21.8113C8.26871 21.8515 8.5763 21.887 8.87793 21.9172L8.89786 21.7182ZM8.92626 21.7207L8.89672 21.7181L8.87906 21.9173L8.9086 21.9199L8.92626 21.7207ZM9.717 21.7882C9.4575 21.7695 9.19521 21.7477 8.92744 21.7208L8.90742 21.9198C9.17746 21.9469 9.44168 21.9688 9.70262 21.9877L9.717 21.7882ZM9.87956 21.799C9.8252 21.7955 9.77127 21.7921 9.71696 21.7882L9.70265 21.9877C9.75782 21.9916 9.81249 21.9951 9.86674 21.9986L9.87956 21.799ZM10.5571 21.8347C10.3331 21.8255 10.1077 21.8142 9.87981 21.799L9.86649 21.9986C10.0965 22.0139 10.3237 22.0253 10.5489 22.0345L10.5571 21.8347ZM10.6301 21.8378C10.6059 21.8367 10.5813 21.8356 10.5566 21.8347L10.5494 22.0345C10.573 22.0354 10.5968 22.0365 10.6211 22.0376L10.6301 21.8378ZM10.7017 21.8408C10.6781 21.8399 10.6544 21.8389 10.6301 21.8378L10.6211 22.0376C10.6452 22.0386 10.6699 22.0398 10.6945 22.0406L10.7017 21.8408ZM12.3081 21.8403C11.77 21.8586 11.2392 21.8586 10.7014 21.8408L10.6948 22.0407C11.237 22.0586 11.7723 22.0586 12.3149 22.0402L12.3081 21.8403ZM12.3913 21.8371C12.363 21.8383 12.3357 21.8396 12.3087 21.8403L12.3143 22.0402C12.3433 22.0394 12.3723 22.0381 12.4002 22.0369L12.3913 21.8371ZM12.4477 21.8347C12.4287 21.8354 12.4098 21.8362 12.3912 21.8371L12.4002 22.0369C12.4189 22.036 12.4371 22.0352 12.4552 22.0345L12.4477 21.8347ZM13.1356 21.7986C12.904 21.8138 12.6751 21.826 12.4476 21.8347L12.4552 22.0345C12.6847 22.0258 12.9155 22.0135 13.1487 21.9982L13.1356 21.7986ZM13.286 21.7886C13.2355 21.7921 13.1855 21.7955 13.136 21.7986L13.1482 21.9982C13.1987 21.9951 13.2495 21.9916 13.2998 21.9881L13.286 21.7886ZM14.1 21.719C13.8235 21.7469 13.5534 21.7695 13.2857 21.7886L13.3 21.9881C13.5693 21.9688 13.8413 21.9461 14.12 21.918L14.1 21.719ZM14.1047 21.7187C14.103 21.7189 14.1061 21.7185 14.11 21.7185V21.9185C14.1165 21.9185 14.1221 21.918 14.1228 21.9179L14.1047 21.7187ZM14.1174 21.7181C14.1109 21.7181 14.1054 21.7187 14.1047 21.7187L14.1228 21.9179C14.1245 21.9177 14.1213 21.9181 14.1174 21.9181V21.7181ZM15.0353 21.6124C14.7177 21.6529 14.4093 21.6881 14.1074 21.7186L14.1274 21.9176C14.4311 21.887 14.7413 21.8515 15.0606 21.8108L15.0353 21.6124ZM15.051 21.6116H15.0479V21.8116H15.051V21.6116Z" fill="#222222"/>
<path d="M14.7239 5.60449C12.8885 4.79881 10.641 4.7979 8.81784 5.6054C7.77815 6.06578 6.01471 7.41282 6.0005 9.54234C5.99907 9.79346 6.20938 9.99818 6.47132 10C6.47226 10 6.47321 10 6.47416 10C6.7342 10 6.9464 9.79847 6.94782 9.5478C6.95872 7.87503 8.37781 6.80231 9.2143 6.43154C10.7916 5.73232 12.7412 5.73414 14.3294 6.43154C14.5676 6.53618 14.8485 6.43564 14.9575 6.20727C15.0664 5.97844 14.9612 5.70866 14.7239 5.60449Z" fill="#222222" stroke="#222222" stroke-width="0.2"/>
<circle cx="18.5005" cy="7.5" r="3.75" fill="#F03737" stroke="white" stroke-width="0.5"/>
</svg>
