<svg width="22" height="22" viewBox="0 0 22 22" fill="none" xmlns="http://www.w3.org/2000/svg">
<path d="M17.4167 2.75H4.58333C3.575 2.75 2.75 3.575 2.75 4.58333V17.4167C2.75 18.425 3.575 19.25 4.58333 19.25H17.4167C18.425 19.25 19.25 18.425 19.25 17.4167V4.58333C19.25 3.575 18.425 2.75 17.4167 2.75ZM17.4167 17.4167H4.58333V4.58333H17.4167V17.4167Z" fill="#9B9B9B"/>
<path d="M8.24999 11H6.41666V15.5833H8.24999V11Z" fill="#9B9B9B"/>
<path d="M15.5833 6.41666H13.75V15.5833H15.5833V6.41666Z" fill="#9B9B9B"/>
<path d="M11.9167 12.8333H10.0833V15.5833H11.9167V12.8333Z" fill="#9B9B9B"/>
<path d="M11.9167 9.16666H10.0833V11H11.9167V9.16666Z" fill="#9B9B9B"/>
</svg>
