<svg width="20" height="20" viewBox="0 0 20 20" fill="none" xmlns="http://www.w3.org/2000/svg">
<path d="M10.9167 5.41668H9.08334V9.08334H5.41668V10.9167H9.08334V14.5833H10.9167V10.9167H14.5833V9.08334H10.9167V5.41668ZM10 0.833344C4.94918 0.833344 0.833344 4.94918 0.833344 10C0.833344 15.0508 4.94918 19.1667 10 19.1667C15.0508 19.1667 19.1667 15.0508 19.1667 10C19.1667 4.94918 15.0508 0.833344 10 0.833344ZM10 17.3333C5.95751 17.3333 2.66668 14.0425 2.66668 10C2.66668 5.95751 5.95751 2.66668 10 2.66668C14.0425 2.66668 17.3333 5.95751 17.3333 10C17.3333 14.0425 14.0425 17.3333 10 17.3333Z" fill="#9B9B9B"/>
</svg>
