<svg width="18" height="20" viewBox="0 0 18 20" fill="none" xmlns="http://www.w3.org/2000/svg">
<path d="M15.8108 10.8983C15.8475 10.605 15.875 10.3117 15.875 10C15.875 9.68833 15.8475 9.395 15.8108 9.10167L17.745 7.58917C17.9192 7.45167 17.965 7.20416 17.855 7.0025L16.0217 3.83083C15.9392 3.68417 15.7833 3.60167 15.6183 3.60167C15.5633 3.60167 15.5083 3.61083 15.4625 3.62917L13.18 4.54583C12.7033 4.17917 12.19 3.87667 11.6308 3.6475L11.2825 1.21833C11.255 0.998332 11.0625 0.833332 10.8333 0.833332H7.16667C6.93751 0.833332 6.74501 0.998332 6.71751 1.21833L6.36917 3.6475C5.81001 3.87667 5.29667 4.18833 4.82001 4.54583L2.53751 3.62917C2.48251 3.61083 2.42751 3.60167 2.37251 3.60167C2.21667 3.60167 2.06084 3.68417 1.97834 3.83083L0.145005 7.0025C0.0258387 7.20416 0.0808388 7.45167 0.255005 7.58917L2.18917 9.10167C2.15251 9.395 2.12501 9.6975 2.12501 10C2.12501 10.3025 2.15251 10.605 2.18917 10.8983L0.255005 12.4108C0.0808388 12.5483 0.0350053 12.7958 0.145005 12.9975L1.97834 16.1692C2.06084 16.3158 2.21667 16.3983 2.38167 16.3983C2.43667 16.3983 2.49167 16.3892 2.53751 16.3708L4.82001 15.4542C5.29667 15.8208 5.81001 16.1233 6.36917 16.3525L6.71751 18.7817C6.74501 19.0017 6.93751 19.1667 7.16667 19.1667H10.8333C11.0625 19.1667 11.255 19.0017 11.2825 18.7817L11.6308 16.3525C12.19 16.1233 12.7033 15.8117 13.18 15.4542L15.4625 16.3708C15.5175 16.3892 15.5725 16.3983 15.6275 16.3983C15.7833 16.3983 15.9392 16.3158 16.0217 16.1692L17.855 12.9975C17.965 12.7958 17.9192 12.5483 17.745 12.4108L15.8108 10.8983ZM13.9958 9.33083C14.0325 9.615 14.0417 9.8075 14.0417 10C14.0417 10.1925 14.0233 10.3942 13.9958 10.6692L13.8675 11.705L14.6833 12.3467L15.6733 13.1167L15.0317 14.2258L13.8675 13.7583L12.9142 13.3733L12.0892 13.9967C11.695 14.29 11.3192 14.51 10.9433 14.6658L9.97167 15.06L9.82501 16.0958L9.64167 17.3333H8.35834L8.18417 16.0958L8.03751 15.06L7.06584 14.6658C6.67167 14.5008 6.30501 14.29 5.93834 14.015L5.10417 13.3733L4.13251 13.7675L2.96834 14.235L2.32667 13.1258L3.31667 12.3558L4.13251 11.7142L4.00417 10.6783C3.97667 10.3942 3.95834 10.1833 3.95834 10C3.95834 9.81667 3.97667 9.60583 4.00417 9.33083L4.13251 8.295L3.31667 7.65333L2.32667 6.88333L2.96834 5.77417L4.13251 6.24167L5.08584 6.62667L5.91084 6.00333C6.30501 5.71 6.68084 5.49 7.05667 5.33417L8.02834 4.94L8.17501 3.90417L8.35834 2.66667H9.63251L9.80667 3.90417L9.95334 4.94L10.925 5.33417C11.3192 5.49917 11.6858 5.71 12.0525 5.985L12.8867 6.62667L13.8583 6.2325L15.0225 5.765L15.6642 6.87417L14.6833 7.65333L13.8675 8.295L13.9958 9.33083ZM9.00001 6.33333C6.97417 6.33333 5.33334 7.97417 5.33334 10C5.33334 12.0258 6.97417 13.6667 9.00001 13.6667C11.0258 13.6667 12.6667 12.0258 12.6667 10C12.6667 7.97417 11.0258 6.33333 9.00001 6.33333ZM9.00001 11.8333C7.99167 11.8333 7.16667 11.0083 7.16667 10C7.16667 8.99167 7.99167 8.16667 9.00001 8.16667C10.0083 8.16667 10.8333 8.99167 10.8333 10C10.8333 11.0083 10.0083 11.8333 9.00001 11.8333Z" fill="#9B9B9B"/>
</svg>
