<svg width="22" height="12" viewBox="0 0 22 12" fill="none" xmlns="http://www.w3.org/2000/svg">
<path d="M3.66667 6.91667C4.675 6.91667 5.5 6.09167 5.5 5.08333C5.5 4.075 4.675 3.25 3.66667 3.25C2.65833 3.25 1.83333 4.075 1.83333 5.08333C1.83333 6.09167 2.65833 6.91667 3.66667 6.91667ZM4.7025 7.925C4.36333 7.87 4.02417 7.83333 3.66667 7.83333C2.75917 7.83333 1.8975 8.02583 1.11833 8.365C0.44 8.65833 0 9.31833 0 10.0608V11.5H4.125V10.0242C4.125 9.26333 4.33583 8.54833 4.7025 7.925ZM18.3333 6.91667C19.3417 6.91667 20.1667 6.09167 20.1667 5.08333C20.1667 4.075 19.3417 3.25 18.3333 3.25C17.325 3.25 16.5 4.075 16.5 5.08333C16.5 6.09167 17.325 6.91667 18.3333 6.91667ZM22 10.0608C22 9.31833 21.56 8.65833 20.8817 8.365C20.1025 8.02583 19.2408 7.83333 18.3333 7.83333C17.9758 7.83333 17.6367 7.87 17.2975 7.925C17.6642 8.54833 17.875 9.26333 17.875 10.0242V11.5H22V10.0608ZM14.8867 7.5125C13.8142 7.03583 12.4942 6.6875 11 6.6875C9.50583 6.6875 8.18583 7.045 7.11333 7.5125C6.12333 7.9525 5.5 8.9425 5.5 10.0242V11.5H16.5V10.0242C16.5 8.9425 15.8767 7.9525 14.8867 7.5125ZM7.3975 9.66667C7.48 9.45583 7.51667 9.30917 8.23167 9.03417C9.12083 8.68583 10.0558 8.52083 11 8.52083C11.9442 8.52083 12.8792 8.68583 13.7683 9.03417C14.4742 9.30917 14.5108 9.45583 14.6025 9.66667H7.3975ZM11 2.33333C11.5042 2.33333 11.9167 2.74583 11.9167 3.25C11.9167 3.75417 11.5042 4.16667 11 4.16667C10.4958 4.16667 10.0833 3.75417 10.0833 3.25C10.0833 2.74583 10.4958 2.33333 11 2.33333ZM11 0.5C9.47833 0.5 8.25 1.72833 8.25 3.25C8.25 4.77167 9.47833 6 11 6C12.5217 6 13.75 4.77167 13.75 3.25C13.75 1.72833 12.5217 0.5 11 0.5Z" fill="#9B9B9B"/>
</svg>
