<svg width="82" height="85" viewBox="0 0 82 85" fill="none" xmlns="http://www.w3.org/2000/svg">
<path d="M44.9196 15L44.9196 68.1239C59.5893 68.1239 71.4815 56.2316 71.4815 41.5619C71.4815 26.8922 59.5893 15 44.9196 15Z" fill="#62CE97"/>
<path d="M66.454 41.5619C66.454 26.8922 56.8128 15 44.9196 15C30.2499 15 18.3577 26.8922 18.3577 41.5619C18.3577 56.2316 30.2499 68.1238 44.9196 68.1238C56.8128 68.1238 66.454 56.2316 66.454 41.5619Z" fill="#62CE97"/>
<path d="M55.7659 41.6448C57.5356 41.3867 59.0204 43.0106 58.5696 44.7401C57.8205 47.6108 56.1899 50.1262 53.9829 51.9763L44.9183 51.1034L53.9862 41.8979C54.2795 41.8593 54.5744 41.8191 54.8677 41.7755L55.7659 41.6448Z" fill="#3F865A"/>
<path d="M34.9707 41.7755L34.0724 41.6448C32.3027 41.3867 30.8179 43.0106 31.2687 44.7401C32.0178 47.6108 33.6484 50.1262 35.8538 51.9763L51.7591 50.4446C53.0579 48.1353 53.8791 45.1641 53.9863 41.8979C47.6735 42.7375 41.275 42.6956 34.9707 41.7755Z" fill="#3F865A"/>
<path d="M51.759 50.4446L44.9183 55.2743C48.3705 55.2743 51.5311 54.0359 53.9829 51.9763C53.2941 51.3981 52.55 50.8836 51.759 50.4446Z" fill="#3F865A"/>
<path d="M51.759 50.4448C50.0949 53.4043 47.6465 55.2745 44.9182 55.2745C41.4677 55.2745 38.3054 54.0361 35.8537 51.9765C38.3054 49.9169 41.4677 48.6768 44.9182 48.6768C47.4001 48.6768 49.7329 49.3186 51.759 50.4448Z" fill="#3F865A"/>
<path d="M57.4882 36.589C58.8765 36.589 60.002 35.4636 60.002 34.0753C60.002 32.687 58.8765 31.5615 57.4882 31.5615C56.0999 31.5615 54.9745 32.687 54.9745 34.0753C54.9745 35.4636 56.0999 36.589 57.4882 36.589Z" fill="#3F865A"/>
<path d="M32.3509 36.589C33.7392 36.589 34.8646 35.4636 34.8646 34.0753C34.8646 32.687 33.7392 31.5615 32.3509 31.5615C30.9626 31.5615 29.8371 32.687 29.8371 34.0753C29.8371 35.4636 30.9626 36.589 32.3509 36.589Z" fill="#3F865A"/>
<g clip-path="url(#clip0)">
<path d="M7.02408 18.5968L4.35793 18.5968L4.35793 15.9307C4.35793 15.7834 4.23856 15.6641 4.0913 15.6641C3.94405 15.6641 3.82468 15.7834 3.82468 15.9307L3.82468 18.5969L1.15853 18.5969C1.01127 18.5968 0.891907 18.7162 0.891907 18.8635C0.891907 19.0107 1.01127 19.1301 1.15853 19.1301L3.8247 19.1301L3.8247 21.7963C3.8247 21.9435 3.94407 22.0629 4.09132 22.0629C4.23857 22.0629 4.35794 21.9435 4.35794 21.7963L4.35794 19.1301L7.02411 19.1301C7.17137 19.1301 7.29073 19.0107 7.29073 18.8635C7.29073 18.7162 7.17133 18.5968 7.02408 18.5968Z" fill="#21F9AE"/>
</g>
<g clip-path="url(#clip1)">
<path d="M81.7657 18.6859L79.9883 18.6859L79.9883 16.9085C79.9883 16.8103 79.9087 16.7307 79.8105 16.7307C79.7123 16.7307 79.6328 16.8103 79.6328 16.9085L79.6328 18.6859L77.8553 18.6859C77.7572 18.6859 77.6776 18.7655 77.6776 18.8636C77.6776 18.9618 77.7572 19.0414 77.8553 19.0414L79.6328 19.0414L79.6328 20.8188C79.6328 20.917 79.7124 20.9966 79.8105 20.9966C79.9087 20.9966 79.9883 20.917 79.9883 20.8188L79.9883 19.0414L81.7657 19.0414C81.8639 19.0414 81.9435 18.9618 81.9435 18.8636C81.9435 18.7655 81.8639 18.6859 81.7657 18.6859Z" fill="#21F9AE"/>
</g>
<g clip-path="url(#clip2)">
<path d="M25.2429 9.08775L23.4655 9.08775L23.4655 7.31032C23.4655 7.21215 23.3859 7.13257 23.2877 7.13257C23.1896 7.13257 23.11 7.21215 23.11 7.31032L23.11 9.08776L21.3326 9.08776C21.2344 9.08775 21.1548 9.16733 21.1548 9.2655C21.1548 9.36367 21.2344 9.44325 21.3326 9.44325L23.11 9.44325L23.11 11.2207C23.11 11.3189 23.1896 11.3984 23.2878 11.3984C23.3859 11.3984 23.4655 11.3189 23.4655 11.2207L23.4655 9.44325L25.243 9.44325C25.3411 9.44325 25.4207 9.36367 25.4207 9.2655C25.4207 9.16733 25.3411 9.08775 25.2429 9.08775Z" fill="#C4C4C4"/>
</g>
<g clip-path="url(#clip3)">
<path d="M30.5753 2.68883L28.7978 2.68883L28.7978 0.91139C28.7978 0.813221 28.7183 0.733643 28.6201 0.733643C28.5219 0.733643 28.4423 0.813221 28.4423 0.91139L28.4423 2.68884L26.6649 2.68884C26.5667 2.68883 26.4872 2.76841 26.4872 2.86657C26.4872 2.96474 26.5667 3.04432 26.6649 3.04432L28.4423 3.04432L28.4423 4.82177C28.4423 4.91994 28.5219 4.99952 28.6201 4.99952C28.7183 4.99952 28.7978 4.91994 28.7978 4.82177L28.7978 3.04432L30.5753 3.04432C30.6735 3.04432 30.753 2.96474 30.753 2.86657C30.753 2.76841 30.6734 2.68883 30.5753 2.68883Z" fill="#C4C4C4"/>
</g>
<g clip-path="url(#clip4)">
<path d="M73.3228 73.1646L72.4341 73.1646L72.4341 72.2759C72.4341 72.2268 72.3943 72.187 72.3452 72.187C72.2961 72.187 72.2563 72.2268 72.2563 72.2759L72.2563 73.1646L71.3676 73.1646C71.3185 73.1646 71.2787 73.2044 71.2787 73.2535C71.2787 73.3026 71.3185 73.3424 71.3676 73.3424L72.2563 73.3424L72.2563 74.2311C72.2563 74.2802 72.2961 74.3199 72.3452 74.3199C72.3943 74.3199 72.4341 74.2802 72.4341 74.2311L72.4341 73.3424L73.3228 73.3424C73.3719 73.3424 73.4117 73.3026 73.4117 73.2535C73.4117 73.2044 73.3719 73.1646 73.3228 73.1646Z" fill="#C4C4C4"/>
</g>
<g clip-path="url(#clip5)">
<path d="M31.7306 77.4305L30.8419 77.4305L30.8419 76.5418C30.8419 76.4927 30.8021 76.4529 30.753 76.4529C30.7039 76.4529 30.6641 76.4927 30.6641 76.5418L30.6641 77.4305L29.7754 77.4305C29.7263 77.4305 29.6866 77.4703 29.6866 77.5193C29.6866 77.5684 29.7263 77.6082 29.7754 77.6082L30.6642 77.6082L30.6642 78.4969C30.6642 78.546 30.7039 78.5858 30.753 78.5858C30.8021 78.5858 30.8419 78.546 30.8419 78.4969L30.8419 77.6082L31.7306 77.6082C31.7797 77.6082 31.8195 77.5684 31.8195 77.5193C31.8195 77.4703 31.7797 77.4305 31.7306 77.4305Z" fill="#C4C4C4"/>
</g>
<g clip-path="url(#clip6)">
<path d="M57.2369 82.6739L55.4595 82.6739L55.4595 80.8965C55.4595 80.7983 55.3799 80.7187 55.2817 80.7187C55.1836 80.7187 55.104 80.7983 55.104 80.8965L55.104 82.6739L53.3266 82.6739C53.2284 82.6739 53.1488 82.7535 53.1488 82.8517C53.1488 82.9499 53.2284 83.0294 53.3266 83.0294L55.104 83.0294L55.104 84.8069C55.104 84.905 55.1836 84.9846 55.2817 84.9846C55.3799 84.9846 55.4595 84.905 55.4595 84.8069L55.4595 83.0294L57.2369 83.0294C57.3351 83.0294 57.4147 82.9499 57.4147 82.8517C57.4147 82.7535 57.3351 82.6739 57.2369 82.6739Z" fill="#21F9AE"/>
</g>
<defs>
<clipPath id="clip0">
<rect width="6.3988" height="6.3988" fill="white" transform="translate(0.891907 15.6641)"/>
</clipPath>
<clipPath id="clip1">
<rect width="4.26587" height="4.26587" fill="white" transform="translate(77.6776 16.7307)"/>
</clipPath>
<clipPath id="clip2">
<rect width="4.26587" height="4.26587" fill="white" transform="translate(21.1548 7.13257)"/>
</clipPath>
<clipPath id="clip3">
<rect width="4.26587" height="4.26587" fill="white" transform="translate(26.4872 0.733643)"/>
</clipPath>
<clipPath id="clip4">
<rect width="2.13293" height="2.13293" fill="white" transform="translate(71.2787 72.187)"/>
</clipPath>
<clipPath id="clip5">
<rect width="2.13293" height="2.13293" fill="white" transform="translate(29.6866 76.4529)"/>
</clipPath>
<clipPath id="clip6">
<rect width="4.26587" height="4.26587" fill="white" transform="translate(53.1488 80.7188)"/>
</clipPath>
</defs>
</svg>
