<svg width="60" height="60" viewBox="0 0 60 60" fill="none" xmlns="http://www.w3.org/2000/svg">
<path d="M43.0746 30.1065C41.9216 29.5584 40.7451 29.0863 39.548 28.6908C43.425 25.7808 45.9375 21.1471 45.9375 15.9375C45.9375 7.14961 38.788 0 30 0C21.2119 0 14.0625 7.14961 14.0625 15.9375C14.0625 21.1528 16.5806 25.7911 20.4648 28.7005C16.906 29.8721 13.5668 31.6952 10.6441 34.0992C5.28488 38.5075 1.55867 44.6562 0.152064 51.4128C-0.288795 53.53 0.239369 55.7045 1.60085 57.3786C2.95566 59.0446 4.9646 60 7.11242 60H35.9765C37.271 60 38.3203 58.9507 38.3203 57.6562C38.3203 56.3618 37.271 55.3125 35.9765 55.3125H7.11242C6.11187 55.3125 5.50824 54.754 5.23753 54.4212C4.77007 53.8464 4.58913 53.0981 4.74113 52.3682C7.17335 40.6852 17.4784 32.1509 29.3786 31.863C29.5848 31.871 29.7918 31.875 30 31.875C30.2101 31.875 30.4193 31.8709 30.6274 31.8628C34.2743 31.9484 37.7817 32.7806 41.0622 34.3402C42.2314 34.8956 43.6294 34.3986 44.1852 33.2295C44.7409 32.0604 44.2437 30.6622 43.0746 30.1065ZM30.5716 27.1731C30.3814 27.1697 30.1909 27.1679 30 27.1679C29.8108 27.1679 29.6217 27.1698 29.4328 27.1733C23.4919 26.877 18.75 21.9506 18.75 15.9375C18.75 9.73418 23.7966 4.6875 30 4.6875C36.2033 4.6875 41.25 9.73418 41.25 15.9375C41.25 21.9491 36.5103 26.8745 30.5716 27.1731Z" fill="#234361"/>
<path d="M57.6562 46.5234H51.2109V40.0781C51.2109 38.7837 50.1616 37.7344 48.8672 37.7344C47.5727 37.7344 46.5234 38.7837 46.5234 40.0781V46.5234H40.0781C38.7837 46.5234 37.7344 47.5727 37.7344 48.8672C37.7344 50.1616 38.7837 51.2109 40.0781 51.2109H46.5234V57.6562C46.5234 58.9507 47.5727 60 48.8672 60C50.1616 60 51.2109 58.9507 51.2109 57.6562V51.2109H57.6562C58.9507 51.2109 60 50.1616 60 48.8672C60 47.5727 58.9507 46.5234 57.6562 46.5234Z" fill="#234361"/>
</svg>
