<svg width="812" height="116" viewBox="0 0 812 116" fill="none" xmlns="http://www.w3.org/2000/svg">
<path d="M34.5676 12.4277H30.5547V103.506H34.5676V12.4277Z" fill="black"/>
<path d="M24.4045 12.4277H22.3984V103.506H24.4045V12.4277Z" fill="black"/>
<path d="M46.8019 12.4277H44.7949V103.506H46.8019V12.4277Z" fill="black"/>
<path d="M42.7238 12.4277H40.7168V103.506H42.7238V12.4277Z" fill="black"/>
<path d="M8.15733 12.4277H6.08594V103.506H8.15733V12.4277Z" fill="black"/>
<path d="M14.2411 12.4277H12.2344V103.506H14.2411V12.4277Z" fill="black"/>
<path d="M4.07816 12.4277H0V103.571H4.07816V12.4277Z" fill="black"/>
<path d="M50.88 12.4277H48.873V103.506H50.88V12.4277Z" fill="black"/>
<path d="M93.6033 12.4277H89.5254V103.506H93.6033V12.4277Z" fill="black"/>
<path d="M105.837 12.4277H99.752V103.506H105.837V12.4277Z" fill="black"/>
<path d="M109.915 12.4277H107.844V103.506H109.915V12.4277Z" fill="black"/>
<path d="M116 12.4277H111.922V103.571H116V12.4277Z" fill="black"/>
<path d="M79.3614 12.4277H75.2832V103.506H79.3614V12.4277Z" fill="black"/>
<path d="M87.5176 12.4277H83.4395V103.506H87.5176V12.4277Z" fill="black"/>
<path d="M71.2068 12.4277H67.1289V103.506H71.2068V12.4277Z" fill="black"/>
<path d="M61.0415 12.4277H56.9629V103.506H61.0415V12.4277Z" fill="black"/>
<path d="M150.568 12.4277H146.555V103.506H150.568V12.4277Z" fill="black"/>
<path d="M140.405 12.4277H138.398V103.506H140.405V12.4277Z" fill="black"/>
<path d="M162.802 12.4277H160.795V103.506H162.802V12.4277Z" fill="black"/>
<path d="M158.724 12.4277H156.717V103.506H158.724V12.4277Z" fill="black"/>
<path d="M124.157 12.4277H122.086V103.506H124.157V12.4277Z" fill="black"/>
<path d="M130.241 12.4277H128.234V103.506H130.241V12.4277Z" fill="black"/>
<path d="M120.078 12.4277H116V103.571H120.078V12.4277Z" fill="black"/>
<path d="M166.88 12.4277H164.873V103.506H166.88V12.4277Z" fill="black"/>
<path d="M209.603 12.4277H205.525V103.506H209.603V12.4277Z" fill="black"/>
<path d="M221.837 12.4277H215.752V103.506H221.837V12.4277Z" fill="black"/>
<path d="M225.915 12.4277H223.844V103.506H225.915V12.4277Z" fill="black"/>
<path d="M232 12.4277H227.922V103.571H232V12.4277Z" fill="black"/>
<path d="M195.361 12.4277H191.283V103.506H195.361V12.4277Z" fill="black"/>
<path d="M203.518 12.4277H199.439V103.506H203.518V12.4277Z" fill="black"/>
<path d="M187.207 12.4277H183.129V103.506H187.207V12.4277Z" fill="black"/>
<path d="M177.042 12.4277H172.963V103.506H177.042V12.4277Z" fill="black"/>
<path d="M266.568 12.4277H262.555V103.506H266.568V12.4277Z" fill="black"/>
<path d="M256.405 12.4277H254.398V103.506H256.405V12.4277Z" fill="black"/>
<path d="M278.802 12.4277H276.795V103.506H278.802V12.4277Z" fill="black"/>
<path d="M274.724 12.4277H272.717V103.506H274.724V12.4277Z" fill="black"/>
<path d="M240.157 12.4277H238.086V103.506H240.157V12.4277Z" fill="black"/>
<path d="M246.241 12.4277H244.234V103.506H246.241V12.4277Z" fill="black"/>
<path d="M236.078 12.4277H232V103.571H236.078V12.4277Z" fill="black"/>
<path d="M282.88 12.4277H280.873V103.506H282.88V12.4277Z" fill="black"/>
<path d="M325.603 12.4277H321.525V103.506H325.603V12.4277Z" fill="black"/>
<path d="M337.837 12.4277H331.752V103.506H337.837V12.4277Z" fill="black"/>
<path d="M341.915 12.4277H339.844V103.506H341.915V12.4277Z" fill="black"/>
<path d="M348 12.4277H343.922V103.571H348V12.4277Z" fill="black"/>
<path d="M311.361 12.4277H307.283V103.506H311.361V12.4277Z" fill="black"/>
<path d="M319.518 12.4277H315.439V103.506H319.518V12.4277Z" fill="black"/>
<path d="M303.207 12.4277H299.129V103.506H303.207V12.4277Z" fill="black"/>
<path d="M293.042 12.4277H288.963V103.506H293.042V12.4277Z" fill="black"/>
<path d="M382.568 12.4277H378.555V103.506H382.568V12.4277Z" fill="black"/>
<path d="M372.405 12.4277H370.398V103.506H372.405V12.4277Z" fill="black"/>
<path d="M394.802 12.4277H392.795V103.506H394.802V12.4277Z" fill="black"/>
<path d="M390.724 12.4277H388.717V103.506H390.724V12.4277Z" fill="black"/>
<path d="M356.157 12.4277H354.086V103.506H356.157V12.4277Z" fill="black"/>
<path d="M362.241 12.4277H360.234V103.506H362.241V12.4277Z" fill="black"/>
<path d="M352.078 12.4277H348V103.571H352.078V12.4277Z" fill="black"/>
<path d="M398.88 12.4277H396.873V103.506H398.88V12.4277Z" fill="black"/>
<path d="M441.603 12.4277H437.525V103.506H441.603V12.4277Z" fill="black"/>
<path d="M453.837 12.4277H447.752V103.506H453.837V12.4277Z" fill="black"/>
<path d="M457.915 12.4277H455.844V103.506H457.915V12.4277Z" fill="black"/>
<path d="M464 12.4277H459.922V103.571H464V12.4277Z" fill="black"/>
<path d="M427.361 12.4277H423.283V103.506H427.361V12.4277Z" fill="black"/>
<path d="M435.518 12.4277H431.439V103.506H435.518V12.4277Z" fill="black"/>
<path d="M419.207 12.4277H415.129V103.506H419.207V12.4277Z" fill="black"/>
<path d="M409.042 12.4277H404.963V103.506H409.042V12.4277Z" fill="black"/>
<path d="M498.568 12.4277H494.555V103.506H498.568V12.4277Z" fill="black"/>
<path d="M488.405 12.4277H486.398V103.506H488.405V12.4277Z" fill="black"/>
<path d="M510.802 12.4277H508.795V103.506H510.802V12.4277Z" fill="black"/>
<path d="M506.724 12.4277H504.717V103.506H506.724V12.4277Z" fill="black"/>
<path d="M472.157 12.4277H470.086V103.506H472.157V12.4277Z" fill="black"/>
<path d="M478.241 12.4277H476.234V103.506H478.241V12.4277Z" fill="black"/>
<path d="M468.078 12.4277H464V103.571H468.078V12.4277Z" fill="black"/>
<path d="M514.88 12.4277H512.873V103.506H514.88V12.4277Z" fill="black"/>
<path d="M557.603 12.4277H553.525V103.506H557.603V12.4277Z" fill="black"/>
<path d="M569.837 12.4277H563.752V103.506H569.837V12.4277Z" fill="black"/>
<path d="M573.915 12.4277H571.844V103.506H573.915V12.4277Z" fill="black"/>
<path d="M580 12.4277H575.922V103.571H580V12.4277Z" fill="black"/>
<path d="M543.361 12.4277H539.283V103.506H543.361V12.4277Z" fill="black"/>
<path d="M551.518 12.4277H547.439V103.506H551.518V12.4277Z" fill="black"/>
<path d="M535.207 12.4277H531.129V103.506H535.207V12.4277Z" fill="black"/>
<path d="M525.042 12.4277H520.963V103.506H525.042V12.4277Z" fill="black"/>
<path d="M614.568 12.4277H610.555V103.506H614.568V12.4277Z" fill="black"/>
<path d="M604.405 12.4277H602.398V103.506H604.405V12.4277Z" fill="black"/>
<path d="M626.802 12.4277H624.795V103.506H626.802V12.4277Z" fill="black"/>
<path d="M622.724 12.4277H620.717V103.506H622.724V12.4277Z" fill="black"/>
<path d="M588.157 12.4277H586.086V103.506H588.157V12.4277Z" fill="black"/>
<path d="M594.241 12.4277H592.234V103.506H594.241V12.4277Z" fill="black"/>
<path d="M584.078 12.4277H580V103.571H584.078V12.4277Z" fill="black"/>
<path d="M630.88 12.4277H628.873V103.506H630.88V12.4277Z" fill="black"/>
<path d="M673.603 12.4277H669.525V103.506H673.603V12.4277Z" fill="black"/>
<path d="M685.837 12.4277H679.752V103.506H685.837V12.4277Z" fill="black"/>
<path d="M689.915 12.4277H687.844V103.506H689.915V12.4277Z" fill="black"/>
<path d="M696 12.4277H691.922V103.571H696V12.4277Z" fill="black"/>
<path d="M659.361 12.4277H655.283V103.506H659.361V12.4277Z" fill="black"/>
<path d="M667.518 12.4277H663.439V103.506H667.518V12.4277Z" fill="black"/>
<path d="M651.207 12.4277H647.129V103.506H651.207V12.4277Z" fill="black"/>
<path d="M641.042 12.4277H636.963V103.506H641.042V12.4277Z" fill="black"/>
<path d="M730.568 12.4277H726.555V103.506H730.568V12.4277Z" fill="black"/>
<path d="M720.405 12.4277H718.398V103.506H720.405V12.4277Z" fill="black"/>
<path d="M742.802 12.4277H740.795V103.506H742.802V12.4277Z" fill="black"/>
<path d="M738.724 12.4277H736.717V103.506H738.724V12.4277Z" fill="black"/>
<path d="M704.157 12.4277H702.086V103.506H704.157V12.4277Z" fill="black"/>
<path d="M710.241 12.4277H708.234V103.506H710.241V12.4277Z" fill="black"/>
<path d="M700.078 12.4277H696V103.571H700.078V12.4277Z" fill="black"/>
<path d="M746.88 12.4277H744.873V103.506H746.88V12.4277Z" fill="black"/>
<path d="M789.603 12.4277H785.525V103.506H789.603V12.4277Z" fill="black"/>
<path d="M801.837 12.4277H795.752V103.506H801.837V12.4277Z" fill="black"/>
<path d="M805.915 12.4277H803.844V103.506H805.915V12.4277Z" fill="black"/>
<path d="M812 12.4277H807.922V103.571H812V12.4277Z" fill="black"/>
<path d="M775.361 12.4277H771.283V103.506H775.361V12.4277Z" fill="black"/>
<path d="M783.518 12.4277H779.439V103.506H783.518V12.4277Z" fill="black"/>
<path d="M767.207 12.4277H763.129V103.506H767.207V12.4277Z" fill="black"/>
<path d="M757.042 12.4277H752.963V103.506H757.042V12.4277Z" fill="black"/>
</svg>
