<svg width="69" height="65" viewBox="0 0 69 65" fill="none" xmlns="http://www.w3.org/2000/svg">
<path d="M67.503 42.6461C67.483 42.623 67.4621 42.6006 67.4405 42.579C66.3537 41.4923 64.8834 40.9329 63.3993 40.9786V21.0557L67.8226 19.2981C68.1794 19.1563 68.4584 18.8686 68.5889 18.5074C68.7195 18.1463 68.6892 17.7467 68.5055 17.4094C68.5055 17.4094 63.1805 7.63865 63.1799 7.63785C63.0664 7.46422 62.9173 7.32386 62.7472 7.22202C62.7455 7.22095 62.7437 7.21987 62.742 7.21894C62.7363 7.21558 62.5019 7.10663 62.4737 7.0975L41.479 0.0693383C41.2027 -0.0231128 40.9035 -0.0231128 40.6271 0.0693383L19.6419 7.09401C19.355 7.18539 19.0995 7.37271 18.9264 7.63704C18.9256 7.63825 18.8705 7.73017 18.8701 7.73111L13.6005 17.4092C13.417 17.7466 13.3866 18.1461 13.5172 18.5072C13.6477 18.8683 13.9267 19.1561 14.2835 19.298L18.7068 21.0556V38.9424C17.2694 39.5287 16.0147 40.3421 14.9559 41.2047C14.7256 40.7971 14.2885 40.5219 13.7869 40.5219H1.34182C0.600731 40.5219 0 41.1226 0 41.8637V59.6986C0 60.4396 0.600731 61.0404 1.34182 61.0404H8.42768C9.16876 61.0404 9.76949 60.4396 9.76949 59.6986V58.4045H13.7866C14.0161 58.4045 14.2321 58.3468 14.4209 58.2454L14.7617 58.3272C16.4195 58.7255 18.0686 59.2343 19.663 59.8395L29.5033 63.5752C31.9925 64.5202 34.6045 64.9993 37.2667 64.9993C41.5947 64.9993 45.7868 63.7314 49.3897 61.3325C55.9411 56.9702 66.507 49.9084 66.6128 49.8376C66.6222 49.8312 66.6316 49.8248 66.641 49.8182C67.764 49.0258 68.5021 47.7885 68.6661 46.4237C68.8303 45.0591 68.4064 43.682 67.503 42.6461ZM7.08586 58.3567H2.68363V43.2055H7.08586V58.3567ZM12.4449 55.7209H9.76949V43.2055H12.4448L12.4449 55.7209ZM65.4248 17.3631L47.4839 24.4921L43.0314 17.1437L61.4419 10.0482L65.4248 17.3631ZM41.0531 29.713C40.312 29.713 39.7113 30.3139 39.7113 31.0548V42.8929H36.5426C34.3572 42.8929 32.4714 41.5304 31.3446 40.7162C31.0245 40.4848 30.7717 40.3022 30.5411 40.1702C27.0813 38.188 24.0134 37.7671 21.3906 38.1862V22.1221L34.6862 27.4053C34.848 27.4696 35.0158 27.5003 35.1813 27.5003C35.6392 27.5003 36.0801 27.2653 36.3294 26.8539L41.0534 19.0576L45.7771 26.8537C46.0266 27.2653 46.4674 27.5003 46.9252 27.5003C47.0908 27.5003 47.2585 27.4696 47.4203 27.4053L60.716 22.1221V41.7453L52.7602 45.4011C51.793 43.8937 50.1026 42.893 48.1829 42.893H42.3949V31.055C42.3949 30.3139 41.7942 29.713 41.0531 29.713ZM41.0531 2.75659L58.0959 8.46173L41.0531 15.03L24.0103 8.46173L41.0531 2.75659ZM16.6813 17.3631L20.6642 10.0482L39.0749 17.1437L34.6222 24.4921L16.6813 17.3631ZM66.0019 46.1035C65.928 46.7194 65.6101 47.2563 65.1062 47.6168C64.6382 47.9296 54.3347 54.8157 47.9027 59.0985C44.7419 61.2031 41.0643 62.3155 37.2671 62.3155C34.9315 62.3155 32.6399 61.8951 30.4563 61.0661L20.6158 57.3304C18.9154 56.6848 17.1569 56.1422 15.3889 55.7175L15.1287 55.655V44.7055C18.0721 41.5751 22.8176 38.8378 29.2072 42.4985C29.3151 42.5604 29.5479 42.7286 29.773 42.8912C31.0718 43.8296 33.4893 45.5763 36.5427 45.5763H48.183C49.7002 45.5763 50.9345 46.8115 50.9345 48.3299C50.9345 49.848 49.7002 51.0833 48.183 51.0833H27.9158C27.1747 51.0833 26.574 51.6842 26.574 52.4251C26.574 53.1661 27.1747 53.7669 27.9158 53.7669H48.1827C51.1797 53.7669 53.6179 51.3279 53.6179 48.3299C53.6179 48.2075 53.6137 48.0862 53.6058 47.9659L62.5944 43.8353C63.6017 43.4595 64.737 43.6969 65.5095 44.4439C65.9001 44.9101 66.0748 45.4977 66.0019 46.1035Z" fill="#234361"/>
</svg>
