<svg width="31" height="31" viewBox="0 0 31 31" fill="none" xmlns="http://www.w3.org/2000/svg">
<path d="M30.8945 15.1889L29.3446 13.1224L28.5182 13.7425L29.4481 14.9823H25.2888C25.1728 12.7415 24.2884 10.609 22.7844 8.94378L25.6969 6.03151L25.8347 7.28906L26.8619 7.17656L26.6066 4.84867C26.5803 4.60792 26.3902 4.41773 26.1495 4.39132L23.8216 4.13604L23.7086 5.16324L24.9661 5.30111L22.0539 8.21319C20.3887 6.70933 18.2563 5.82498 16.0155 5.70906V1.54976L17.2557 2.47964L17.8752 1.65322L15.8087 0.103311C15.6252 -0.034437 15.3727 -0.034437 15.1891 0.103311L13.1226 1.65322L13.7422 2.47964L14.9823 1.54976V5.70906C12.7416 5.82505 10.6092 6.70933 8.94397 8.21319L6.0317 5.30118L7.28926 5.16324L7.17624 4.13604L4.84835 4.39138C4.6076 4.4178 4.41754 4.60798 4.39125 4.84873L4.13597 7.17663L5.16317 7.28913L5.30092 6.03157L8.21339 8.94384C6.7094 10.609 5.82498 12.7415 5.709 14.9824H1.54976L2.47964 13.7425L1.65322 13.1225L0.103311 15.189C-0.034437 15.3727 -0.034437 15.6253 0.103311 15.8091L1.65322 17.8756L2.47964 17.2555L1.54976 16.0157H5.70906C5.82505 18.2565 6.70946 20.3891 8.21345 22.0542L5.27024 24.9973L5.05119 23.4628L4.028 23.6091L4.39326 26.1663C4.42593 26.3935 4.6045 26.572 4.83169 26.6045L7.38864 26.97L7.53498 25.9473L6.00064 25.7278L8.94397 22.7847C10.6092 24.2886 12.7415 25.1729 14.9823 25.2888V29.4481L13.7422 28.5183L13.1226 29.3447L15.1891 30.8946C15.3726 31.0326 15.6252 31.0326 15.8087 30.8946L17.8752 29.3447L17.2557 28.5183L16.0155 29.4482V25.2889C18.2563 25.1729 20.3887 24.2886 22.0539 22.7848L24.9661 25.6968L23.7086 25.8347L23.8216 26.8619L26.1495 26.6066C26.3902 26.5802 26.5803 26.39 26.6066 26.1492L26.8619 23.8213L25.8347 23.7088L25.6969 24.9664L22.7844 22.0541C24.2884 20.3889 25.1728 18.2565 25.2888 16.0155H29.4481L28.5182 17.2554L29.3447 17.8755L30.8946 15.809C31.0323 15.6253 31.0323 15.3727 30.8945 15.1889ZM15.4989 24.2818C10.6505 24.2764 6.72154 20.3473 6.71611 15.499C6.71611 10.6484 10.6483 6.71618 15.4989 6.71618C20.3495 6.71618 24.2817 10.6484 24.2817 15.499C24.2817 20.3496 20.3495 24.2818 15.4989 24.2818Z" fill="#938D8D"/>
</svg>
