<svg width="28" height="28" viewBox="0 0 28 28" fill="none" xmlns="http://www.w3.org/2000/svg">
<g clip-path="url(#clip0)">
<path d="M26.1323 5.59961C25.1028 5.59961 24.2656 6.43682 24.2656 7.46626C24.2656 8.4957 25.1028 9.33291 26.1323 9.33291C27.1617 9.33291 27.9989 8.49575 27.9989 7.46626C27.9989 6.43682 27.1617 5.59961 26.1323 5.59961ZM26.1323 8.39961C25.6176 8.39961 25.1989 7.98103 25.1989 7.46626C25.1989 6.95154 25.6175 6.53291 26.1323 6.53291C26.647 6.53291 27.0656 6.95149 27.0656 7.46626C27.0656 7.98103 26.647 8.39961 26.1323 8.39961Z" fill="#828282"/>
<path d="M1.86665 21C0.837211 21 0 21.8372 0 22.8666C0 23.8961 0.837211 24.7333 1.86665 24.7333C2.89614 24.7333 3.7333 23.8961 3.7333 22.8666C3.7333 21.8372 2.89614 21 1.86665 21ZM1.86665 23.8C1.35193 23.8 0.933297 23.3814 0.933297 22.8666C0.933297 22.3519 1.35187 21.9333 1.86665 21.9333C2.38137 21.9333 2.8 22.3519 2.8 22.8666C2.8 23.3814 2.38142 23.8 1.86665 23.8Z" fill="#828282"/>
<path d="M25.2266 6.18954L21.2007 4.24589C20.9683 4.13339 20.6897 4.23139 20.5777 4.46338C20.4657 4.69531 20.5632 4.97438 20.7952 5.08638L24.8211 7.03003C24.8865 7.06175 24.9555 7.07668 25.0236 7.07668C25.1972 7.07668 25.3638 6.97961 25.4441 6.81254C25.5561 6.58061 25.4586 6.30154 25.2266 6.18954Z" fill="#828282"/>
<path d="M20.9995 24.2676C19.97 24.2676 19.1328 25.1048 19.1328 26.1342C19.1328 27.1637 19.97 28.0009 20.9995 28.0009C22.029 28.0009 22.8661 27.1637 22.8661 26.1343C22.8661 25.1048 22.029 24.2676 20.9995 24.2676ZM20.9995 27.0676C20.4847 27.0676 20.0661 26.649 20.0661 26.1342C20.0661 25.6195 20.4847 25.2009 20.9995 25.2009C21.5142 25.2009 21.9328 25.6195 21.9328 26.1343C21.9328 26.6491 21.5142 27.0676 20.9995 27.0676Z" fill="#828282"/>
<path d="M20.0938 24.8576L16.0679 22.9139C15.8355 22.8014 15.5569 22.899 15.4449 23.1314C15.3329 23.3634 15.4304 23.6424 15.6624 23.7544L19.6883 25.6981C19.7537 25.7298 19.8227 25.7447 19.8908 25.7447C20.0644 25.7447 20.231 25.6476 20.3113 25.4806C20.4233 25.2486 20.3258 24.9696 20.0938 24.8576Z" fill="#828282"/>
<path d="M13.9995 12.5996C12.97 12.5996 12.1328 13.4368 12.1328 14.4663C12.1328 15.4957 12.97 16.3329 13.9995 16.3329C15.029 16.3329 15.8661 15.4957 15.8661 14.4663C15.8661 13.4368 15.029 12.5996 13.9995 12.5996ZM13.9995 15.3996C13.4847 15.3996 13.0661 14.981 13.0661 14.4663C13.0661 13.9515 13.4847 13.5329 13.9995 13.5329C14.5142 13.5329 14.9328 13.9515 14.9328 14.4663C14.9328 14.981 14.5142 15.3996 13.9995 15.3996Z" fill="#828282"/>
<path d="M13.1784 13.2429L10.0858 10.8326C9.88233 10.6753 9.58931 10.7103 9.43061 10.9138C9.2724 11.1173 9.30833 11.4103 9.51182 11.569L12.6044 13.9793C12.6898 14.0456 12.7906 14.0778 12.891 14.0778C13.03 14.0778 13.1672 14.0162 13.2596 13.8982C13.4178 13.6946 13.3819 13.4016 13.1784 13.2429Z" fill="#828282"/>
<path d="M22.399 12.1328C19.5686 12.1328 17.2656 14.4358 17.2656 17.2662C17.2656 20.0965 19.5686 22.3995 22.399 22.3995C25.2293 22.3995 27.5323 20.0965 27.5323 17.2662C27.5323 14.4358 25.2293 12.1328 22.399 12.1328ZM22.399 21.4661C20.0829 21.4661 18.199 19.5822 18.199 17.2661C18.199 14.95 20.0829 13.0661 22.399 13.0661C24.715 13.0661 26.599 14.95 26.599 17.2661C26.599 19.5822 24.715 21.4661 22.399 21.4661Z" fill="#828282"/>
<path d="M22.4018 14C21.3723 14 20.5352 14.8372 20.5352 15.8666C20.5352 16.8961 21.3724 17.7333 22.4018 17.7333C23.4313 17.7333 24.2685 16.8961 24.2685 15.8666C24.2685 14.8372 23.4313 14 22.4018 14ZM22.4018 16.8C21.8871 16.8 21.4685 16.3814 21.4685 15.8666C21.4685 15.3519 21.887 14.9333 22.4018 14.9333C22.9165 14.9333 23.3352 15.3519 23.3352 15.8666C23.3352 16.3814 22.9165 16.8 22.4018 16.8Z" fill="#828282"/>
<path d="M23.7554 18.666H21.0478C20.2503 18.666 19.6016 19.2974 19.6016 20.073V21.3032C19.6016 21.4697 19.6902 21.6237 19.8344 21.7073C20.6166 22.1599 21.5041 22.3994 22.4016 22.3994C23.299 22.3994 24.1866 22.1599 24.9687 21.7073C25.1129 21.6242 25.2016 21.4697 25.2016 21.3036V20.0735C25.2016 19.2974 24.5529 18.666 23.7554 18.666ZM24.2682 21.025C23.1067 21.6037 21.6964 21.6037 20.5349 21.025V20.0735C20.5349 19.8122 20.7649 19.5994 21.0477 19.5994H23.7553C24.0381 19.5994 24.2682 19.8122 24.2682 20.0735V21.025H24.2682Z" fill="#828282"/>
<path d="M11.1998 17.7324C8.36941 17.7324 6.06641 20.0354 6.06641 22.8658C6.06641 25.6961 8.36941 27.9991 11.1998 27.9991C14.0301 27.9991 16.3331 25.6961 16.3331 22.8657C16.3331 20.0354 14.0301 17.7324 11.1998 17.7324ZM11.1998 27.0657C8.88369 27.0657 6.99976 25.1818 6.99976 22.8657C6.99976 20.5496 8.88369 18.6657 11.1998 18.6657C13.5158 18.6657 15.3998 20.5496 15.3998 22.8657C15.3998 25.1818 13.5158 27.0657 11.1998 27.0657Z" fill="#828282"/>
<path d="M11.1987 19.5996C10.1692 19.5996 9.33203 20.4368 9.33203 21.4663C9.33203 22.4958 10.1692 23.3329 11.1987 23.3329C12.2281 23.3329 13.0653 22.4957 13.0653 21.4663C13.0653 20.4368 12.2282 19.5996 11.1987 19.5996ZM11.1987 22.3996C10.684 22.3996 10.2653 21.981 10.2653 21.4663C10.2653 20.9515 10.6839 20.5329 11.1987 20.5329C11.7134 20.5329 12.132 20.9515 12.132 21.4663C12.132 21.981 11.7134 22.3996 11.1987 22.3996Z" fill="#828282"/>
<path d="M12.5522 24.2676H9.84465C9.04714 24.2676 8.39844 24.899 8.39844 25.6746V26.9047C8.39844 27.0713 8.48709 27.2253 8.6313 27.3089C9.41344 27.7615 10.301 28.0009 11.1984 28.0009C12.0959 28.0009 12.9834 27.7615 13.7656 27.3089C13.9098 27.2258 13.9984 27.0713 13.9984 26.9052V25.6751C13.9984 24.899 13.3498 24.2676 12.5522 24.2676ZM13.0651 26.6266C11.9035 27.2052 10.4933 27.2052 9.33173 26.6266V25.6751C9.33173 25.4137 9.5618 25.2009 9.84459 25.2009H12.5522C12.835 25.2009 13.065 25.4137 13.065 25.6751V26.6266H13.0651Z" fill="#828282"/>
<path d="M5.13335 6.06641C2.303 6.06641 0 8.36941 0 11.1998C0 14.0301 2.303 16.3331 5.13335 16.3331C7.9637 16.3331 10.2667 14.0301 10.2667 11.1998C10.2666 8.36941 7.96365 6.06641 5.13335 6.06641ZM5.13335 15.3998C2.81728 15.3998 0.933352 13.5158 0.933352 11.1998C0.933352 8.88369 2.81728 6.99976 5.13335 6.99976C7.44942 6.99976 9.33335 8.88369 9.33335 11.1998C9.33335 13.5158 7.44942 15.3998 5.13335 15.3998Z" fill="#828282"/>
<path d="M5.13227 7.93359C4.10278 7.93359 3.26562 8.7708 3.26562 9.80024C3.26562 10.8297 4.10284 11.6669 5.13227 11.6669C6.16177 11.6669 6.99892 10.8297 6.99892 9.80024C6.99892 8.7708 6.16171 7.93359 5.13227 7.93359ZM5.13227 10.7336C4.61756 10.7336 4.19892 10.315 4.19892 9.80024C4.19892 9.28547 4.6175 8.86689 5.13227 8.86689C5.64699 8.86689 6.06563 9.28547 6.06563 9.80024C6.06563 10.315 5.64699 10.7336 5.13227 10.7336Z" fill="#828282"/>
<path d="M6.48582 12.5996H3.77824C2.98073 12.5996 2.33203 13.231 2.33203 14.0066V15.2368C2.33203 15.4033 2.42068 15.5573 2.56489 15.6409C3.34703 16.0935 4.23461 16.333 5.13203 16.333C6.02945 16.333 6.91703 16.0935 7.69917 15.6409C7.84338 15.5578 7.93203 15.4033 7.93203 15.2372V14.0071C7.93203 13.231 7.28333 12.5996 6.48582 12.5996ZM6.99868 14.9586C5.83717 15.5373 4.42689 15.5373 3.26533 14.9586V14.0071C3.26533 13.7458 3.4954 13.533 3.77819 13.533H6.48577C6.76856 13.533 6.99863 13.7458 6.99863 14.0071V14.9586H6.99868Z" fill="#828282"/>
<path d="M16.3326 0C13.5022 0 11.1992 2.303 11.1992 5.13335C11.1992 7.9637 13.5022 10.2667 16.3326 10.2667C19.1629 10.2667 21.4659 7.9637 21.4659 5.13335C21.4659 2.303 19.1629 0 16.3326 0ZM16.3326 9.33335C14.0165 9.33335 12.1326 7.44942 12.1326 5.13335C12.1326 2.81728 14.0165 0.933352 16.3326 0.933352C18.6486 0.933352 20.5326 2.81728 20.5326 5.13335C20.5326 7.44942 18.6486 9.33335 16.3326 9.33335Z" fill="#828282"/>
<path d="M16.3354 1.86719C15.3059 1.86719 14.4688 2.7044 14.4688 3.73384C14.4688 4.76327 15.306 5.60048 16.3354 5.60048C17.3648 5.60048 18.202 4.76333 18.202 3.73389C18.202 2.70445 17.3648 1.86719 16.3354 1.86719ZM16.3354 4.66719C15.8207 4.66719 15.402 4.24861 15.402 3.73384C15.402 3.21912 15.8206 2.80048 16.3354 2.80048C16.8502 2.80048 17.2688 3.21906 17.2688 3.73384C17.2687 4.24861 16.8501 4.66719 16.3354 4.66719Z" fill="#828282"/>
<path d="M17.6889 6.5332H14.9814C14.1839 6.5332 13.5352 7.16463 13.5352 7.9402V9.17034C13.5352 9.33692 13.6238 9.49092 13.768 9.57448C14.5502 10.0271 15.4377 10.2666 16.3352 10.2666C17.2326 10.2666 18.1202 10.0271 18.9023 9.57448C19.0465 9.49141 19.1352 9.33692 19.1352 9.17084V7.94069C19.1352 7.16457 18.4865 6.5332 17.6889 6.5332ZM18.2018 8.8922C17.0403 9.47085 15.63 9.47085 14.4685 8.8922V7.94069C14.4685 7.67934 14.6985 7.46655 14.9813 7.46655H17.6889C17.9717 7.46655 18.2017 7.67934 18.2017 7.94069V8.8922H18.2018Z" fill="#828282"/>
<path d="M12.0203 4.82885C11.8527 4.63378 11.5583 4.61043 11.3623 4.77799L8.12825 7.54535C7.93225 7.71286 7.90939 8.00735 8.0769 8.20335C8.16932 8.31114 8.29997 8.3667 8.43155 8.3667C8.5389 8.3667 8.64669 8.32984 8.7349 8.25421L11.9689 5.48685C12.165 5.31935 12.1878 5.02485 12.0203 4.82885Z" fill="#828282"/>
<path d="M22.308 12.3203L19.508 8.58698C19.3535 8.38026 19.0609 8.33963 18.8546 8.49363C18.6483 8.64812 18.6068 8.9407 18.7613 9.14649L21.5613 12.8798C21.6532 13.0021 21.7932 13.0665 21.9351 13.0665C22.0321 13.0665 22.1306 13.0361 22.2146 12.9731C22.4209 12.8187 22.4625 12.5261 22.308 12.3203Z" fill="#828282"/>
<path d="M18.478 18.8097C18.3235 18.6034 18.031 18.5619 17.8247 18.7163L15.2179 20.6712C15.0116 20.8257 14.9701 21.1183 15.1245 21.3241C15.2165 21.4463 15.3565 21.5107 15.4983 21.5107C15.5958 21.5107 15.6938 21.4799 15.7779 21.4174L18.3847 19.4625C18.591 19.3081 18.6325 19.0155 18.478 18.8097Z" fill="#828282"/>
<path d="M6.53413 22.4004H3.26743C3.00985 22.4004 2.80078 22.609 2.80078 22.867C2.80078 23.1251 3.00985 23.3337 3.26743 23.3337H6.53408C6.79166 23.3337 7.00073 23.1251 7.00073 22.867C7.00073 22.609 6.79171 22.4004 6.53413 22.4004Z" fill="#828282"/>
<path d="M5.13233 0C4.10284 0 3.26562 0.837211 3.26562 1.86665C3.26562 2.89614 4.10284 3.7333 5.13227 3.7333C6.16177 3.7333 6.99892 2.89609 6.99892 1.86665C6.99898 0.837211 6.16177 0 5.13233 0ZM5.13233 2.8C4.61761 2.8 4.19898 2.38142 4.19898 1.86665C4.19898 1.35193 4.61755 0.933297 5.13233 0.933297C5.64705 0.933297 6.06568 1.35187 6.06568 1.86665C6.06563 2.38142 5.64705 2.8 5.13233 2.8Z" fill="#828282"/>
<path d="M5.13462 2.80078C4.87704 2.80078 4.66797 3.00936 4.66797 3.26743V6.53408C4.66797 6.79215 4.87704 7.00073 5.13462 7.00073C5.3922 7.00073 5.60127 6.79215 5.60127 6.53408V3.26743C5.60127 3.00936 5.3922 2.80078 5.13462 2.80078Z" fill="#828282"/>
</g>
<defs>
<clipPath id="clip0">
<rect width="28" height="28" fill="white"/>
</clipPath>
</defs>
</svg>
