<svg width="23" height="21" viewBox="0 0 23 21" fill="none" xmlns="http://www.w3.org/2000/svg">
<path d="M21.0015 15.6887H20.1898C20.1374 15.6887 20.0948 15.6461 20.0948 15.5937V15.3317C20.5292 14.9946 20.8854 14.5156 20.9283 13.9334C20.9736 13.3194 21.0184 12.7102 21.0635 12.0992C21.1037 11.5534 20.9478 11.011 20.6309 10.5712C20.6559 10.3828 20.6752 10.1928 20.6888 10.0022C20.6895 9.99555 20.69 9.98888 20.6903 9.98217C20.7053 9.765 20.7129 9.54707 20.7129 9.32963C20.7129 6.29474 19.2563 3.59369 17.0055 1.8888C16.9813 1.86377 16.9529 1.84224 16.9209 1.82544C15.3709 0.67872 13.4548 0 11.3831 0C9.76442 0 8.16967 0.421132 6.77128 1.21782C5.41539 1.99027 4.26454 3.10048 3.44318 4.42835C3.34629 4.58496 3.39471 4.79052 3.55136 4.88737C3.70797 4.9843 3.91349 4.93588 4.01042 4.77918C5.45479 2.44417 7.85583 0.962453 10.5456 0.706599L9.48131 1.94958C9.20171 2.27614 9.04777 2.69269 9.04777 3.12254V4.05506C9.04777 4.39589 8.89685 4.71564 8.63375 4.93237C8.05548 5.40855 7.83302 6.17611 8.067 6.88782L8.2015 7.29695C8.50996 8.23512 9.09099 9.04359 9.88185 9.63511L10.2423 9.90471C10.0346 10.022 9.8445 10.1726 9.6782 10.3539C9.37446 10.6848 9.17765 11.0862 9.10077 11.52C8.98196 11.6499 8.87004 11.7871 8.76724 11.9292L7.41362 13.7998C7.31326 13.9386 7.12375 13.9821 6.97288 13.9013C6.68186 13.7454 6.43223 13.5221 6.2457 13.2518C6.31688 12.2851 6.27411 12.8663 6.33058 12.0992C6.35944 11.7071 6.28709 11.3167 6.12662 10.9649C6.23836 10.5754 6.16579 10.1492 5.9299 9.81867L5.4274 9.11447C5.13086 8.69889 5.03544 8.17754 5.16563 7.68388L5.37066 6.90636C5.4334 6.66847 5.34821 6.41746 5.15358 6.2669C4.95896 6.1163 4.69461 6.09696 4.48002 6.21741L4.23079 6.35744C3.88627 6.55095 3.50747 6.67554 3.11791 6.72752C3.17963 6.53152 3.24846 6.33743 3.32441 6.14538C3.39213 5.97406 3.30822 5.78032 3.13694 5.7126C2.96571 5.64497 2.77193 5.72878 2.70421 5.90007C2.27249 6.99173 2.05354 8.14561 2.05354 9.32968C2.05354 9.74441 2.08107 10.1611 2.1354 10.5704C1.81485 11.0152 1.66292 11.5561 1.70454 12.1207C1.7096 12.1896 1.81001 13.553 1.83802 13.9334C1.88093 14.5157 2.23714 14.9946 2.67157 15.3317V15.5937C2.67157 15.6461 2.62897 15.6887 2.57659 15.6887H1.76474C0.791661 15.6887 0 16.4803 0 17.4534V18.0164C0 18.2007 0.149315 18.3499 0.33349 18.3499C0.517666 18.3499 0.666981 18.2007 0.666981 18.0164V17.4534C0.666981 16.8481 1.15943 16.3557 1.76474 16.3557H2.10966C2.47685 17.0071 3.21542 17.4313 4.01669 17.4313C4.81796 17.4313 5.55653 17.0071 5.92372 16.3557H6.26864C6.87337 16.3557 7.36547 16.8472 7.3664 17.4517V19.8154H6.73277V18.4602C6.73277 18.276 6.58345 18.1268 6.39928 18.1268C6.2151 18.1268 6.06579 18.276 6.06579 18.4602V19.8154H1.96759V18.4602C1.96759 18.276 1.81828 18.1268 1.6341 18.1268C1.44993 18.1268 1.30061 18.276 1.30061 18.4602V19.8154H0.666981V19.5728C0.666981 19.3885 0.517666 19.2393 0.33349 19.2393C0.149315 19.2393 0 19.3885 0 19.5728V20.0328C0 20.2807 0.201739 20.4824 0.449678 20.4824H7.58375C7.6239 20.4824 7.66285 20.4771 7.69993 20.4671C7.73702 20.4771 7.77593 20.4824 7.81612 20.4824H14.9502C14.9903 20.4824 15.0293 20.4771 15.0664 20.4671C15.1035 20.4771 15.1424 20.4824 15.1826 20.4824H22.3166C22.5646 20.4824 22.7663 20.2807 22.7663 20.0328V17.4535C22.7663 16.4803 21.9746 15.6887 21.0015 15.6887ZM19.5638 16.0277L18.9505 16.4215C18.8304 16.4986 18.6688 16.4986 18.5486 16.4215L17.9353 16.0277C17.9989 15.9363 18.0429 15.8305 18.0615 15.7162C18.3155 15.8228 18.5585 15.8795 18.7496 15.8795C18.9407 15.8795 19.1836 15.8228 19.4376 15.7162C19.4562 15.8305 19.5002 15.9363 19.5638 16.0277ZM14.0992 19.1481H14.7328V19.8154H14.0992V19.1481ZM15.0663 16.4221C14.8372 16.105 14.5054 15.8667 14.12 15.7564C14.2072 15.6523 14.3101 15.5613 14.4266 15.486C15.0028 15.1135 15.0828 14.3012 14.5886 13.8237L14.108 13.3594C13.7091 12.9741 13.632 12.3741 13.9206 11.9004L14.3342 11.2214C14.4441 11.0408 14.6724 10.9702 14.865 11.0569L15.2472 11.2289C15.6549 11.4124 16.1161 11.4222 16.5289 11.2593C16.4472 11.5329 16.4154 11.8235 16.4373 12.1207C16.4418 12.1819 16.5674 13.8868 16.5708 13.9334C16.6136 14.5157 16.9699 14.9946 17.4043 15.3317V15.5937C17.4043 15.6461 17.3617 15.6887 17.3093 15.6887H16.4976C15.9092 15.6887 15.3872 15.9781 15.0663 16.4221ZM12.7642 16.9606L12.3214 16.7407L12.6343 16.5399L12.7642 16.9606ZM11.4923 16.4805H11.2741L10.5689 16.0277C10.6325 15.9363 10.6765 15.8305 10.6951 15.7162C10.9491 15.8228 11.1921 15.8795 11.3832 15.8795C11.5743 15.8795 11.8173 15.8228 12.0712 15.7162C12.0898 15.8305 12.1338 15.9363 12.1974 16.0277L11.4923 16.4805ZM10.4448 16.7407L10.002 16.9606L10.132 16.5399L10.4448 16.7407ZM11.3831 15.2125C10.9608 15.2125 9.92605 14.6517 9.86958 13.8844L9.79043 12.8099L10.7497 11.8506C11.2591 12.2851 11.8994 12.5219 12.5762 12.5219H12.997L12.8967 13.8844C12.8402 14.6517 11.8054 15.2125 11.3831 15.2125ZM12.8258 15.6887C12.8249 15.6887 12.824 15.6887 12.8231 15.6887C12.7709 15.6885 12.7283 15.646 12.7283 15.5937V15.3317C13.1628 14.9946 13.519 14.5156 13.5619 13.9334L13.5741 13.7673C13.5968 13.7917 13.6204 13.8156 13.6446 13.8391L14.1252 14.3033C14.3099 14.4818 14.2807 14.7861 14.0645 14.9258C13.7672 15.118 13.5295 15.3789 13.3675 15.6886H12.8258V15.6887ZM18.7286 10.2758C19.6969 10.2671 20.4375 11.0644 20.4016 11.9906L20.4026 11.9907L20.2631 13.8844C20.2057 14.6647 19.1365 15.2315 18.7286 15.212C18.3208 15.2314 17.2516 14.6646 17.1942 13.8844L17.0547 11.9907L17.0558 11.9906C17.0197 11.0644 17.7604 10.2671 18.7286 10.2758ZM20.0458 9.32963V9.33942L19.6627 9.06831C18.7924 8.45238 17.7708 8.08002 16.7082 7.99149L16.1843 7.94787C16.0933 7.94027 16.0447 7.88353 16.0238 7.85036C16.0029 7.81719 15.9726 7.7488 16.005 7.66338C16.38 6.67603 16.1659 5.58245 15.4462 4.80942L15.3859 4.74472C15.3536 4.71004 15.3527 4.67091 15.355 4.65072C15.3573 4.63049 15.3671 4.59265 15.4065 4.56624C16.0932 4.10491 16.6126 3.45269 16.9085 2.68006L16.9135 2.66694C18.8261 4.2572 20.0458 6.65366 20.0458 9.32963ZM10.6444 9.37263L10.2813 9.10104C9.60061 8.59195 9.10055 7.89607 8.83505 7.08862L8.70054 6.6795C8.55309 6.23102 8.69329 5.74733 9.05768 5.44723C9.47521 5.10338 9.71466 4.59594 9.71466 4.05506V3.12254C9.71466 2.85165 9.81168 2.58917 9.9879 2.38339L11.4573 0.667292C13.2803 0.682677 14.9708 1.26397 16.3613 2.24381L16.2856 2.44142C16.0391 3.08501 15.6065 3.62824 15.0345 4.01251C14.8435 4.14088 14.7188 4.3456 14.6924 4.57424C14.6661 4.80293 14.7409 5.03068 14.8978 5.1992L14.958 5.2639C15.5034 5.84969 15.6656 6.67839 15.3815 7.42656C15.2827 7.6866 15.3112 7.97064 15.4595 8.20591C15.6077 8.44122 15.8517 8.58938 16.1289 8.61254L16.6528 8.65612C17.5967 8.73482 18.5043 9.0656 19.2774 9.61275L19.407 9.70448C19.1861 9.63907 18.9548 9.60616 18.7205 9.60892C18.047 9.61715 17.4299 9.90319 16.9922 10.4129C16.7863 10.4394 16.587 10.4978 16.3979 10.5874L16.3446 10.6126C16.0841 10.736 15.7838 10.7389 15.5209 10.6207L15.1388 10.4487C14.64 10.2241 14.0492 10.4072 13.7646 10.8744L13.5784 11.1799C13.4726 10.8698 13.3015 10.5821 13.0731 10.3392C12.5305 9.76233 11.7159 9.49256 10.9106 9.65583C10.8405 9.54787 10.751 9.45236 10.6444 9.37263ZM11.3622 10.2758C12.2937 10.2675 12.9997 11.0006 13.035 11.8549H12.5762C12.0012 11.8549 11.4607 11.631 11.0542 11.2245C10.9712 11.1414 10.8608 11.0957 10.7434 11.0957C10.626 11.0957 10.5156 11.1414 10.4327 11.2244L9.73134 11.9258C9.73849 11.0247 10.4427 10.2871 11.3622 10.2758ZM3.99579 10.2758C4.87714 10.2679 5.54519 10.9218 5.65377 11.692L5.50766 11.5459C5.08484 11.1231 4.39665 11.123 3.97374 11.5459L3.96542 11.5542L3.93345 11.5223C3.7286 11.3174 3.4562 11.2045 3.16647 11.2045C2.88696 11.2045 2.62359 11.3095 2.42141 11.5009C2.60371 10.8134 3.21796 10.2853 3.99579 10.2758ZM4.55748 6.93895L4.69225 6.86323L4.52071 7.5138C4.33978 8.19981 4.47237 8.92442 4.88448 9.50189L5.18737 9.92641C4.82676 9.71604 4.41172 9.60394 3.98765 9.60892C3.53562 9.61444 3.10893 9.74516 2.74498 9.98457C2.68055 9.12247 2.74316 8.25397 2.93218 7.41602C3.50134 7.38281 4.05862 7.21918 4.55748 6.93895ZM2.39873 12.4663L2.87117 11.9938C3.03414 11.8309 3.29826 11.8303 3.46181 11.9938C3.46181 11.9939 3.46185 11.9939 3.46185 11.9939L3.55927 12.0912C3.66773 12.1997 3.81202 12.2595 3.96547 12.2595C4.11892 12.2595 4.26316 12.1997 4.37161 12.0913L4.44538 12.0175C4.60826 11.8547 4.87318 11.8546 5.03606 12.0175L5.62447 12.6059C5.53265 13.8524 5.67734 11.8884 5.53029 13.8844C5.47378 14.6517 4.43902 15.2125 4.01673 15.2125C3.59445 15.2125 2.55965 14.6517 2.50313 13.8844L2.39873 12.4663ZM4.01669 16.7643C3.57453 16.7643 3.16184 16.5844 2.88429 16.2907C3.11569 16.1881 3.28688 15.9736 3.32863 15.7162C3.58262 15.8229 3.82558 15.8795 4.01669 15.8795C4.2078 15.8795 4.45076 15.8228 4.70475 15.7162C4.7465 15.9736 4.91769 16.1882 5.14909 16.2907C4.87154 16.5844 4.45885 16.7643 4.01669 16.7643ZM6.26868 15.6887H5.45692C5.40454 15.6887 5.36195 15.6461 5.36195 15.5937V15.3317C5.74106 15.0375 6.06063 14.6353 6.16437 14.1507C6.31546 14.2807 6.48096 14.3945 6.65802 14.4893C7.10179 14.727 7.65889 14.5986 7.95401 14.1908L9.10615 12.5986C9.2978 15.2013 9.12514 12.8563 9.20446 13.9334C9.24737 14.5156 9.60359 14.9946 10.038 15.3317V15.5937C10.038 15.6461 9.99542 15.6887 9.94304 15.6887H9.13128C8.54286 15.6887 8.02084 15.9781 7.70002 16.4221C7.37912 15.9781 6.85705 15.6887 6.26868 15.6887ZM8.66706 19.8154H8.03343V19.1481H8.66706V19.8154ZM9.33404 18.4602C9.33404 18.276 9.18472 18.1268 9.00055 18.1268C8.81637 18.1268 8.66706 18.276 8.66706 18.4602V18.4811H8.03343C8.03343 17.2905 8.03343 17.4738 8.03343 17.4517C8.03436 16.8472 8.52646 16.3557 9.13119 16.3557H9.49087L9.24426 17.1539C9.1861 17.3421 9.24551 17.5462 9.39562 17.6738C9.54454 17.8004 9.75535 17.8279 9.93303 17.7395L11.1433 17.1385C11.1761 17.1444 11.2094 17.1474 11.2431 17.1474H11.5232C11.5569 17.1474 11.5903 17.1444 11.623 17.1385L12.8331 17.7395C13.0079 17.8264 13.2192 17.8025 13.3706 17.6738C13.5208 17.5462 13.5802 17.3421 13.522 17.1539L13.2754 16.3557H13.5745C13.58 16.3558 13.5843 16.3558 13.5893 16.3557H13.6351C14.2404 16.3557 14.7328 16.8481 14.7328 17.4534V18.4811H14.0992V18.4602C14.0992 18.276 13.9499 18.1267 13.7657 18.1267C13.5815 18.1267 13.4322 18.276 13.4322 18.4602V19.8154H9.33399V18.4602H9.33404ZM15.3998 17.4534C15.3998 16.8481 15.8923 16.3557 16.4976 16.3557H17.0725L17.3699 17.2077C17.4305 17.3816 17.6206 17.4735 17.7946 17.4127C17.9685 17.352 18.0603 17.1618 17.9996 16.9879L17.9428 16.8252L18.1883 16.9828C18.5302 17.2023 18.9687 17.2024 19.3109 16.9828L19.5563 16.8252L18.7496 19.1367L18.5359 18.5244C18.4752 18.3505 18.2851 18.2588 18.1111 18.3195C17.9372 18.3802 17.8455 18.5703 17.9062 18.7442L18.28 19.8154H16.7005V18.4602C16.7005 18.276 16.5512 18.1268 16.367 18.1268C16.1828 18.1268 16.0335 18.276 16.0335 18.4602V19.8154H15.3999V17.4534H15.3998ZM22.0993 19.8154H21.4657V18.4602C21.4657 18.276 21.3163 18.1267 21.1322 18.1267C20.948 18.1267 20.7987 18.276 20.7987 18.4602V19.8154H19.2192L20.4266 16.3556H21.0015C21.6068 16.3556 22.0993 16.8481 22.0993 17.4534V19.8154Z" fill="#938D8D"/>
</svg>
