<svg width="28" height="28" viewBox="0 0 28 28" fill="none" xmlns="http://www.w3.org/2000/svg">
<path d="M28 14.4516V10.8279C28 9.82302 27.3532 8.95375 26.3909 8.6651L23.4839 7.79297V7.10695C24.3018 6.53494 24.8387 5.58783 24.8387 4.51657V3.16129C24.8387 1.41813 23.4206 0 21.6774 0C19.9343 0 18.5161 1.41813 18.5161 3.16129V4.51613C18.5161 5.58783 19.0531 6.53494 19.871 7.10651V7.79253L17.309 8.56124C16.3476 7.70146 15.1226 7.22581 13.822 7.22581C12.5267 7.22581 11.3417 7.70035 10.4259 8.4823L8.12903 7.79297V7.10695C8.94692 6.53494 9.48387 5.58783 9.48387 4.51657V3.16129C9.48387 1.41813 8.06574 0 6.32258 0C4.57942 0 3.16129 1.41813 3.16129 3.16129V4.51613C3.16129 5.58783 3.69824 6.53494 4.51613 7.10651V7.79253L1.60909 8.66466C0.646768 8.95375 0 9.82302 0 10.8279V14.4516H0.903226V10.8279C0.903226 10.225 1.29111 9.70328 1.86886 9.5304L4.77678 8.65782C5.03963 8.99918 5.54813 9.48387 6.32258 9.48387C7.09703 9.48387 7.60553 8.99918 7.86838 8.65782L9.72048 9.2133C9.13259 9.95268 8.74096 10.8526 8.6221 11.8372C8.04546 11.2244 7.22889 10.8387 6.32258 10.8387C4.57942 10.8387 3.16129 12.2568 3.16129 14V15.3548C3.16129 16.4265 3.69824 17.3736 4.51613 17.9452V18.6312L1.60909 19.5034C0.646768 19.7925 0 20.6617 0 21.6666V25.7419H5.41935C5.66809 25.7419 5.87097 25.9448 5.87097 26.1935V28H22.129V26.1935C22.129 25.9448 22.3319 25.7419 22.5806 25.7419H28V21.6666C28 20.6617 27.3532 19.7925 26.3909 19.5038L23.4839 18.6317V17.9457C24.3018 17.3736 24.8387 16.4265 24.8387 15.3553V14.0004C24.8387 12.2573 23.4206 10.8392 21.6774 10.8392C20.7932 10.8392 19.9938 11.205 19.4194 11.792V11.364C19.4194 10.472 18.9347 9.6691 18.1783 9.24461L20.1316 8.65827C20.3945 8.99918 20.903 9.48387 21.6774 9.48387C22.4519 9.48387 22.9604 8.99918 23.2232 8.65782L26.1316 9.5304C26.7089 9.70328 27.0968 10.225 27.0968 10.8279V14.4516H28ZM6.32258 0.903226C7.5676 0.903226 8.58064 1.91627 8.58064 3.16129H6.50958C6.22269 3.16129 5.94131 3.04486 5.73866 2.84199L5.41935 2.52268L5.10005 2.84199C4.8974 3.04486 4.61602 3.16129 4.32913 3.16129H4.06452C4.06452 1.91627 5.07756 0.903226 6.32258 0.903226ZM4.06452 4.51613V4.06452H4.32913C4.72253 4.06452 5.09829 3.95161 5.41935 3.7408C5.74042 3.95161 6.11618 4.06452 6.50958 4.06452H8.58064V4.51613C8.58064 5.76115 7.5676 6.77419 6.32258 6.77419C5.07756 6.77419 4.06452 5.76115 4.06452 4.51613ZM6.32258 8.58064C5.84252 8.58064 5.53138 8.17732 5.41935 8.00488V7.54467C5.70558 7.63001 6.00879 7.67742 6.32258 7.67742C6.63637 7.67742 6.93958 7.63001 7.22581 7.54423V8.00444C7.11379 8.17777 6.80264 8.58064 6.32258 8.58064ZM18.7364 16.5072C18.9664 17.0914 19.3633 17.5909 19.871 17.9457V18.6317L16.9644 19.5038C16.8687 19.5323 16.7756 19.5693 16.6848 19.6103L16.2581 19.512V18.6222C16.7408 18.2343 17.1212 17.7249 17.3547 17.141C17.8749 17.0954 18.3626 16.874 18.7364 16.5072ZM14 19.4194C14.4792 19.4194 14.9363 19.3237 15.3548 19.1534V19.6452L14 20.6613L12.6452 19.6452V19.1534C13.0637 19.3237 13.5208 19.4194 14 19.4194ZM12.0906 20.3583L13.1916 21.1843L12.059 21.864L11.7726 20.432L12.0906 20.3583ZM13.501 23.9355H14.499L14.8503 27.0968H13.1497L13.501 23.9355ZM14.5775 23.0323H13.422L13.1627 22.2545L14 21.7524L14.8369 22.2545L14.5775 23.0323ZM14.8084 21.1843L15.9094 20.3583L16.2274 20.4315L15.941 21.8635L14.8084 21.1843ZM18.164 15.8146C18.0076 15.9862 17.8089 16.1063 17.5935 16.1796C17.6061 16.0567 17.6129 15.9324 17.6129 15.8065V13.6454C18.0989 13.8298 18.4606 14.2573 18.5093 14.7683C18.5463 15.157 18.424 15.5282 18.164 15.8146ZM16.7097 15.8065C16.7097 17.3009 15.4944 18.5161 14 18.5161C12.5056 18.5161 11.2903 17.3009 11.2903 15.8065V13.5484H12.8236C13.8077 13.5484 14.7654 13.3027 15.6217 12.8335L15.9789 13.5484H16.7097V15.8065ZM10.4065 16.1796C10.1911 16.1063 9.99238 15.9862 9.83603 15.8146C9.57605 15.5286 9.45366 15.157 9.49071 14.7687C9.53944 14.2578 9.90108 13.8298 10.3871 13.6459V15.8065C10.3871 15.9324 10.3939 16.0567 10.4065 16.1796ZM10.6453 17.141C10.8784 17.7249 11.2588 18.2343 11.7419 18.6222V19.512L11.3152 19.6103C11.2239 19.5693 11.1313 19.5327 11.0361 19.5038L8.12903 18.6317V17.9457C8.63621 17.5909 9.03358 17.0914 9.26358 16.5072C9.63735 16.874 10.1251 17.0954 10.6453 17.141ZM6.32258 11.7419C7.5676 11.7419 8.58064 12.755 8.58064 14H8.31603C8.02914 14 7.74776 13.8836 7.54511 13.6807L7.22581 13.3614L6.9065 13.6807C6.70385 13.8836 6.42247 14 6.13558 14H4.06452C4.06452 12.755 5.07756 11.7419 6.32258 11.7419ZM4.06452 15.3548V14.9032H6.13558C6.52898 14.9032 6.90474 14.7903 7.22581 14.5795C7.54688 14.7903 7.92263 14.9032 8.31603 14.9032H8.58064V15.3548C8.58064 16.5999 7.5676 17.6129 6.32258 17.6129C5.07756 17.6129 4.06452 16.5999 4.06452 15.3548ZM6.32258 18.5161C6.63637 18.5161 6.93958 18.4687 7.22581 18.3829V18.8432C7.11379 19.0165 6.80264 19.4194 6.32258 19.4194C5.84252 19.4194 5.53138 19.016 5.41935 18.8436V18.3834C5.70558 18.4687 6.00879 18.5161 6.32258 18.5161ZM5.41935 24.8387H3.6129V21.6774H2.70968V24.8387H0.903226V21.6666C0.903226 21.0637 1.29111 20.542 1.86886 20.3691L4.77678 19.4965C5.03963 19.8379 5.54813 20.3226 6.32258 20.3226C7.09703 20.3226 7.60553 19.8379 7.86838 19.4965L9.5809 20.0106L8.32132 20.301C6.8785 20.6342 5.87097 21.901 5.87097 23.3813V23.9355H6.77419V23.3813C6.77419 22.3237 7.49417 21.4192 8.52463 21.181L10.8921 20.6346L11.4244 23.2973L12.3693 22.7306L12.6366 23.5326L12.241 27.0968H9.93548V23.4839H9.03226V27.0968H6.77419V26.1935C6.77419 25.4467 6.16624 24.8387 5.41935 24.8387ZM26.1311 20.3691C26.7089 20.542 27.0968 21.0637 27.0968 21.6666V24.8387H25.2903V21.6774H24.3871V24.8387H22.5806C21.8338 24.8387 21.2258 25.4467 21.2258 26.1935V27.0968H18.9677V23.4839H18.0645V27.0968H15.759L15.363 23.5326L15.6303 22.7306L16.5752 23.2973L17.1075 20.6346L19.4754 21.181C20.5058 21.4192 21.2258 22.3237 21.2258 23.3813V23.9355H22.129V23.3813C22.129 21.901 21.1215 20.6342 19.6787 20.301L18.4191 20.0106L20.1316 19.4965C20.3945 19.8379 20.903 20.3226 21.6774 20.3226C22.4519 20.3226 22.9604 19.8379 23.2232 19.4965L26.1311 20.3691ZM22.5806 18.8436C22.4686 19.0165 22.1575 19.4194 21.6774 19.4194C21.1965 19.4194 20.8849 19.0147 20.7742 18.8436V18.3829C21.0604 18.4687 21.3636 18.5161 21.6774 18.5161C21.9912 18.5161 22.2944 18.4687 22.5806 18.3829V18.8436ZM21.6774 17.6129C20.4324 17.6129 19.4194 16.5999 19.4194 15.3548V14.9032H19.684C20.0774 14.9032 20.4531 14.7903 20.7742 14.5795C21.0953 14.7903 21.471 14.9032 21.8644 14.9032H23.9355V15.3548C23.9355 16.5999 22.9224 17.6129 21.6774 17.6129ZM21.6774 11.7419C22.9224 11.7419 23.9355 12.755 23.9355 14H21.8644C21.5775 14 21.2962 13.8836 21.0935 13.6807L20.7742 13.3614L20.4549 13.6807C20.2522 13.8836 19.9709 14 19.684 14H19.4194C19.4194 12.755 20.4324 11.7419 21.6774 11.7419ZM18.5161 13.1351C18.1166 12.8326 17.6202 12.6452 17.0837 12.6452H16.5372L15.9818 11.5342L15.5562 11.8178C14.7438 12.3594 13.7991 12.6452 12.8236 12.6452H10.9163C10.3798 12.6452 9.88344 12.8326 9.48387 13.1351V12.4672C9.48387 10.0755 11.4303 8.12903 13.822 8.12903C14.9808 8.12903 16.0706 8.5802 16.8898 9.39941L17.369 9.87859L17.4702 9.91255C18.0956 10.1212 18.5161 10.7042 18.5161 11.3635V13.1351ZM21.6774 0.903226C22.9224 0.903226 23.9355 1.91627 23.9355 3.16129H23.6709C23.384 3.16129 23.1026 3.04486 22.8999 2.84199L22.5806 2.52268L22.2613 2.84199C22.0587 3.04486 21.7773 3.16129 21.4904 3.16129H19.4194C19.4194 1.91627 20.4324 0.903226 21.6774 0.903226ZM19.4194 4.51613V4.06452H21.4904C21.8838 4.06452 22.2596 3.95161 22.5806 3.7408C22.9017 3.95161 23.2775 4.06452 23.6709 4.06452H23.9355V4.51613C23.9355 5.76115 22.9224 6.77419 21.6774 6.77419C20.4324 6.77419 19.4194 5.76115 19.4194 4.51613ZM21.6774 8.58064C21.1965 8.58064 20.8849 8.176 20.7742 8.00488V7.54423C21.0604 7.63001 21.3636 7.67742 21.6774 7.67742C21.9912 7.67742 22.2944 7.63001 22.5806 7.54423V8.00444C22.4686 8.17777 22.1575 8.58064 21.6774 8.58064Z" fill="#828282"/>
</svg>
