<svg width="52" height="52" viewBox="0 0 52 52" fill="none" xmlns="http://www.w3.org/2000/svg">
<path d="M26 0C11.6415 0 0 11.6415 0 26C0 40.3585 11.6415 52 26 52C40.3585 52 52 40.3585 52 26C52 11.6415 40.3585 0 26 0ZM26 42.5967C23.9677 42.5967 22.5767 41.0302 22.5767 39C22.5767 36.9113 24.0262 35.4033 26 35.4033C28.0865 35.4033 29.4233 36.9113 29.4233 39C29.4233 41.0323 28.0865 42.5967 26 42.5967ZM27.3477 28.8622C26.8298 30.628 25.1983 30.6583 24.6545 28.8622C24.0283 26.7908 21.8032 18.928 21.8032 13.8212C21.8032 7.08283 30.2337 7.05033 30.2337 13.8212C30.2315 18.9583 27.8872 27.0248 27.3477 28.8622Z" fill="#EDC74B"/>
</svg>
