<svg width="500" height="500" viewBox="0 0 500 500" fill="none" xmlns="http://www.w3.org/2000/svg">
<path d="M82.2108 228.29C76.5752 188.198 71.312 125.142 117.005 104.834C117.818 104.472 118.622 104.158 119.416 103.879C119.454 103.573 119.522 103.271 119.617 102.977C119.387 102.644 119.127 102.311 118.931 101.972C116.177 97.7825 113.834 91.6225 118.014 87.506L118.068 87.4619C115.491 80.9147 118.764 76.1122 125.218 75.4751C132.104 74.789 137.254 74.2597 141.39 70.6872C142.37 69.8541 143.561 70.6872 143.39 71.8536C143.164 73.5219 142.355 75.0565 141.106 76.1857C149.045 75.9308 157.332 77.7342 164.585 79.126C169.485 80.062 174.949 82.3114 180.732 84.7666C176.081 87.9372 165.197 93.9551 165.197 93.9551C165.197 93.9551 169.872 102.32 173.038 108.363C175.959 114.097 178.465 120.034 180.536 126.127L180.575 126.206C182.3 125.343 184.398 125.809 186.544 128.783C187.245 129.764 187.696 131.758 187.612 133.684C191.65 133.748 194.473 137.389 198.359 139.565C202.819 142.089 206.102 144.166 209.993 147.685C214.085 151.39 216.658 156.506 219.177 161.313C220.696 164.21 220.971 164.71 224.033 165.675C228.204 166.998 231.149 167.307 232.286 169.782C233.423 172.256 233.266 174.805 233.266 176.451C233.266 176.451 236.373 176.03 238.534 177.431C241.131 179.142 241.107 181.156 240.004 184.91C242.234 181.969 246.375 180.117 249.756 178.951C253.986 177.48 259.798 176.393 264.345 177.338C266.423 177.862 268.363 178.826 270.035 180.166C271.427 178.98 276.18 176.079 280.243 175.182C284.305 174.285 290.446 172.732 292.406 177.28L303.021 179.24C303.069 179.527 303.098 179.816 303.109 180.107C309.225 176.314 317.61 177.084 323.833 177.657C328.96 162.578 327.93 145.588 322.221 130.254C313.376 106.525 298.698 89.5789 275.489 72.9611C252.28 56.3433 216.967 44.4202 196.105 44.4202C175.243 44.4202 134.72 46.1893 121.616 49.4678C109.233 52.5404 97.8339 58.1418 88.165 66.4727C79.5204 73.9461 72.4832 83.3895 67.2543 93.5092C54.8314 117.522 52.4105 145.068 53.0671 171.678C53.3955 184.88 54.3854 198.038 61.2658 209.648C66.6564 218.758 74.463 226.045 82.8283 232.44C82.5833 230.921 82.3775 229.515 82.2108 228.29Z" fill="#F4F6F9"/>
<path d="M240.382 242.144C240.382 242.364 240.406 242.59 240.416 242.825L242.244 241.967L240.382 242.144Z" fill="#F4F6F9"/>
<path d="M343.26 318.392C347.609 323.887 351.579 329.672 355.144 335.705C358.687 341.679 374.413 364.031 374.413 364.031" stroke="#333333" stroke-width="5" stroke-linecap="round" stroke-linejoin="round"/>
<path d="M140.934 327.149C140.934 327.149 125.488 348.099 119.862 355.352C114.045 362.864 108.159 370.269 102.602 377.938C99.5932 382.089 90.2969 393.13 88.9541 394.742" stroke="#333333" stroke-width="5" stroke-linecap="round" stroke-linejoin="round"/>
<path d="M189.21 322.523C189.21 322.523 176.537 339.346 172.342 345.761C168.147 352.176 162.683 357.699 158.493 364.119C155.886 368.142 144.125 383.187 144.125 383.187" stroke="#333333" stroke-width="5" stroke-linecap="round" stroke-linejoin="round"/>
<path d="M237.593 318.882C237.593 318.882 245.684 328.683 248.742 333.27C254.804 342.375 261.484 350.676 267.247 360.066C274.176 371.416 281.831 384.387 289.329 394.811" stroke="#333333" stroke-width="5" stroke-linecap="round" stroke-linejoin="round"/>
<path d="M287.417 282.039C286.241 276.648 284.913 271.297 284.217 265.798C283.89 263.605 283.834 261.38 284.051 259.173C283.218 261.736 282.12 263.799 280.743 263.559C279.645 263.363 278.263 260.976 277.229 257.938C276.986 258.46 276.685 258.953 276.332 259.408C273.833 262.388 260.42 261.755 260.42 261.755L257.725 253.018C256.127 253.998 254.005 253.866 253.417 251.572C253.216 251.991 252.912 252.353 252.535 252.624C252.157 252.896 251.717 253.068 251.256 253.126C248.512 253.572 246.507 250.803 246.507 249.494C246.251 249.842 245.922 250.13 245.544 250.34C245.166 250.55 244.748 250.676 244.317 250.71C240.347 251.048 240.514 247.279 240.431 243.124C240.347 238.968 239.157 237.091 238.005 234.204C231.321 235.983 227.871 230.24 230.512 223.531C226.342 223.531 221.568 224.168 219.241 222.188C219.074 222.59 218.922 222.992 218.785 223.404C218.785 223.404 201.314 224.639 192.768 224.541C183.805 224.443 171.205 224.639 162.252 224.741C155.166 224.82 148.712 226.653 141.802 227.633C137.71 228.211 132.491 228.397 130.859 224.05C128.977 219.081 129.766 210.638 129.771 205.276C129.771 191.442 129.957 177.015 128.585 163.264C128.173 159.128 126.84 150.468 128.585 146.347C130.481 141.907 134.784 140.079 137.95 139.197L139.224 132.14C139.479 132.081 139.744 132.013 140.013 131.934C138.714 127.686 136.583 121.54 134.936 117.963C133.887 115.714 132.834 111.857 131.06 109.789C131.541 110.625 131.93 111.51 132.221 112.43C132.273 112.633 132.27 112.846 132.215 113.048C132.159 113.25 132.052 113.435 131.904 113.583C131.755 113.731 131.571 113.838 131.369 113.894C131.167 113.949 130.954 113.952 130.751 113.9C128.507 113.18 126.772 111.783 125.208 110.107C121.597 109.784 119.029 106.863 119.411 103.854C118.617 104.134 117.809 104.452 116.995 104.834C71.3169 125.142 76.5801 188.198 82.201 228.289C83.6026 238.252 86.9644 260.217 86.9644 260.217C84.3328 263.059 83.2841 268.925 83.2841 273.688C83.2841 280.191 84.4259 289.615 87.2731 300.847C90.1204 312.079 94.1878 319.347 99.0002 325.527C103.813 331.706 114.359 335.034 120.215 335.176C144.776 335.769 168.427 330.765 192.743 328.408C217.285 326.012 242.004 327.359 266.575 325.051C274.269 324.326 288.491 324.473 297.865 321.773C297.41 320.18 296.983 318.666 296.596 317.269C293.362 305.576 290.005 293.913 287.417 282.039Z" fill="#FEAABC" stroke="#FEAABC" stroke-width="5" stroke-linecap="round" stroke-linejoin="round"/>
<path d="M351.468 234.072C349.39 219.621 345.793 204.208 332.155 196.568C330.91 195.867 329.626 195.23 328.318 194.608C326.796 194.655 325.284 194.341 323.907 193.692C321.089 192.462 317.536 190.815 313.341 190.374C309.372 189.977 305.383 189.804 301.394 189.854C300.933 190.678 300.414 190.438 298.037 190.864C293.867 191.604 289.093 191.658 284.943 192.334C275.097 193.946 264.218 193.986 254.696 196.421C251.315 197.289 239.853 199.391 239.853 199.391H239.725C240.985 202.66 240.387 207.065 241.607 210.662L241.44 210.888C241.93 211.157 242.42 211.427 242.871 211.711L243.116 211.53C248.972 209.079 254.079 206.286 260.445 204.11C268.158 201.474 278.822 199.7 286.094 204.929C287.138 205.678 291.603 208.898 297.302 213.162C301.497 213.318 305.491 214.896 309.088 216.69C314.763 219.518 317.982 225.29 320.33 231.357L321.109 232.034C326.083 236.385 338.045 245.868 351.179 256.252C352.649 248.98 352.512 241.34 351.468 234.072Z" fill="#FEAABC" stroke="#FEAABC" stroke-width="5" stroke-linecap="round" stroke-linejoin="round"/>
<path d="M262.664 301.774C265.198 297.49 269.692 284.278 268.271 279.373C266.913 274.703 262.758 273.6 259.852 277.285C260.925 269.263 261.567 261.804 257.568 254.086" stroke="#333333" stroke-width="5" stroke-linecap="round" stroke-linejoin="round"/>
<path d="M134.088 227.3C125.203 227.942 121.21 232.401 119.298 234.798C116.711 238.042 114.398 243.129 115.731 248.632C112.604 245.5 109.223 246.495 106.723 249.171C103.994 252.087 102.068 258.918 101.656 263.059" stroke="#333333" stroke-width="5" stroke-linecap="round" stroke-linejoin="round"/>
<path d="M104.165 139.77C107.154 138.119 110.815 135.85 114.608 139.422C116.568 141.27 118.646 148.665 118.587 151.591C118.445 146.994 125.566 144.558 127.702 149.317" stroke="#333333" stroke-width="5" stroke-linecap="round" stroke-linejoin="round"/>
<path d="M162.889 166.474C166.168 171.149 167.672 177.897 168.574 183.538C169.598 189.972 168.402 192.315 165.633 197.882C167.559 193.829 169.931 192.001 172.793 193.657C175.812 194.637 172.48 198.793 168.098 201.988C172.19 198.69 176.474 195.76 182.036 196.024C186.907 196.259 191.509 197.455 196.394 197.21C200.937 196.985 204.755 195.181 209.175 195.225C215.203 195.289 219.466 197.852 222.622 200.832C212.537 200.082 205.132 214.147 205.872 224.188" stroke="#333333" stroke-width="5" stroke-linecap="round" stroke-linejoin="round"/>
<path d="M137.96 139.202C134.794 140.084 130.491 141.912 128.595 146.352C126.83 150.473 128.163 159.133 128.595 163.269C129.967 177.02 129.795 191.447 129.781 205.281C129.781 210.643 128.987 219.086 130.868 224.056C132.52 228.402 137.729 228.216 141.811 227.638C148.721 226.658 155.175 224.825 162.261 224.746C171.234 224.644 183.824 224.448 192.777 224.546C201.324 224.644 218.794 223.409 218.794 223.409C221.176 216.337 227.87 210.03 236.397 207.923C232.825 205.242 226.929 201.812 222.651 200.817" stroke="#333333" stroke-width="5" stroke-linecap="round" stroke-linejoin="round"/>
<path d="M169.27 129.553C164.1 125.309 147.957 130.18 139.224 132.14L137.96 139.187C144.198 139.187 150.025 142 156.126 140.692C163.967 139.006 162.139 129.46 168.035 129.166C171.465 128.994 176.988 140.751 178.816 144.544C176.611 139.187 175.18 133.179 177.63 131.381C180.08 129.582 182.085 138.624 184.981 138.124C188.411 137.531 188.044 130.817 186.564 128.769C181.663 121.962 177.003 128.279 176.439 133.669" stroke="#333333" stroke-width="5" stroke-linecap="round" stroke-linejoin="round"/>
<path d="M178.801 144.558C182.04 150.179 179.438 155.011 183.334 159.123C185.539 161.451 189.371 160.637 191.297 161.206C194.816 162.249 197.541 166.224 198.305 169.537C199.094 172.967 198.614 175.089 200.402 177.235C201.441 178.48 203.313 179.338 204.774 180.916C206.734 183.047 208.915 187.654 208.572 194.819" stroke="#333333" stroke-width="5" stroke-linecap="round" stroke-linejoin="round"/>
<path d="M199.604 149.317C206.133 155.718 212.016 162.747 217.168 170.301C219.804 174.168 219.971 178.22 222.034 182.062C223.69 185.145 226.484 185.581 229.056 187.718C230.639 189.031 231.394 190.918 232.629 192.417C234.271 194.402 236.206 195.196 238.059 196.906C241.465 200.062 240.019 206.046 241.587 210.672" stroke="#333333" stroke-width="5" stroke-linecap="round" stroke-linejoin="round"/>
<path d="M234.903 208.339C243.366 210.334 250.217 215.2 253.657 222.193C257.578 230.21 259.004 236.297 259.734 245.172C259.896 247.166 260.116 249.984 259.053 251.709C257.7 253.9 254.196 254.65 253.417 251.587" stroke="#333333" stroke-width="5" stroke-linecap="round" stroke-linejoin="round"/>
<path d="M219.231 222.193C221.559 224.153 226.337 223.536 230.502 223.536C227.861 230.245 231.311 235.988 237.995 234.209C239.147 237.096 240.338 238.968 240.421 243.128C240.504 247.289 240.338 251.053 244.307 250.714C249.639 250.264 247.973 237.973 246.547 235.033" stroke="#333333" stroke-width="5" stroke-linecap="round" stroke-linejoin="round"/>
<path d="M246.507 249.504C246.507 250.813 248.507 253.581 251.251 253.135C253.995 252.689 254.039 249.754 253.986 247.377C253.873 242.609 253.128 235.645 251.452 231.612" stroke="#333333" stroke-width="5" stroke-linecap="round" stroke-linejoin="round"/>
<path d="M248.693 215.494C251.565 217.832 260.895 224.423 260.332 228.863C259.724 231.186 257.22 229.441 257.22 229.441" stroke="#333333" stroke-width="5" stroke-linecap="round" stroke-linejoin="round"/>
<path d="M187.617 133.669C191.655 133.733 194.478 137.374 198.364 139.55C202.824 142.074 206.107 144.152 209.998 147.67C214.09 151.375 216.663 156.491 219.182 161.299C220.701 164.195 220.975 164.695 224.038 165.66C228.209 166.983 231.154 167.292 232.291 169.767C233.428 172.242 233.271 174.79 233.271 176.437C233.271 176.437 236.378 176.015 238.539 177.417C241.136 179.127 241.112 181.141 240.009 184.895C242.239 181.955 246.38 180.102 249.761 178.936C253.991 177.466 259.803 176.378 264.35 177.324C266.427 177.852 268.366 178.822 270.035 180.166C271.427 178.98 276.18 176.079 280.243 175.182C284.305 174.285 290.446 172.732 292.406 177.279C291.392 180.083 290.015 189.487 289.402 192.03" stroke="#333333" stroke-width="5" stroke-linecap="round" stroke-linejoin="round"/>
<path d="M292.406 177.27L303.021 179.23C303.359 181.131 302.825 186.125 302.178 187.85C300.973 191.06 301.531 190.251 298.018 190.874C293.847 191.614 289.074 191.668 284.923 192.344C275.078 193.956 264.199 193.995 254.677 196.431C251.295 197.298 239.833 199.401 239.833 199.401" stroke="#333333" stroke-width="5" stroke-linecap="round" stroke-linejoin="round"/>
<path d="M301.374 189.845C305.363 189.794 309.352 189.967 313.322 190.364C317.526 190.805 321.069 192.452 323.887 193.682C326.705 194.912 330.067 195.23 331.067 192.795C332.066 190.359 329.283 188.041 327.043 187.228C322.368 185.532 320.795 184.836 317.34 184.836" stroke="#333333" stroke-width="5" stroke-linecap="round" stroke-linejoin="round"/>
<path d="M303.128 180.073C309.646 176.03 318.737 177.172 325.049 177.721C329.307 178.088 333.973 181.401 335.105 185.811C335.771 188.384 335.031 195.882 332.434 196" stroke="#333333" stroke-width="5" stroke-linecap="round" stroke-linejoin="round"/>
<path d="M324.677 183.312C325.387 183.778 325.657 184.694 325.657 185.812" stroke="#333333" stroke-width="5" stroke-linecap="round" stroke-linejoin="round"/>
<path d="M333.968 194.833C334.149 196.98 335.08 198.176 337.202 198.185C339.324 198.195 341.122 193.652 340.397 187.997C339.672 182.342 335.007 177.27 326.989 178.083" stroke="#333333" stroke-width="5" stroke-linecap="round" stroke-linejoin="round"/>
<path d="M259.871 226.511C259.871 226.511 285.354 215.827 291.592 213.877C297.831 211.927 303.878 214.073 309.078 216.665C318.109 221.169 320.927 233.126 323.892 241.864C326.759 250.327 328.249 259.364 330.552 267.979C333.002 277.094 335.286 286.283 337.305 295.501C339.657 306.258 349.522 339.523 348.576 343.59C347.763 347.021 340.049 349.589 328.901 353.72C322.412 356.157 315.686 357.906 308.833 358.939C308.833 358.939 300.619 331.795 296.581 317.284C293.347 305.591 289.99 293.928 287.403 282.054C286.226 276.663 284.898 271.312 284.202 265.813C283.458 259.977 284.134 257.262 285.829 251.562C285.197 254.846 283.556 264.074 280.728 263.574C277.9 263.074 273.161 248.044 277.445 244.658C282.801 240.365 278.812 256.453 276.317 259.438C273.823 262.422 262.365 261.785 262.365 261.785" stroke="#333333" stroke-width="5" stroke-linecap="round" stroke-linejoin="round"/>
<path d="M321.099 232.009C333.11 242.521 385.885 282.975 397.47 293.756C398.905 295.094 400.572 296.324 400.381 298.255C400.194 300.088 396.759 303.155 395.612 304.582C390.8 310.639 385.321 319.21 381.479 325.772C379.029 329.937 378.132 328.506 373.393 324.919C367.802 320.69 363.298 317.078 357.795 312.702C351.159 307.409 345.146 303.219 337.795 297.76" stroke="#333333" stroke-width="5" stroke-linecap="round" stroke-linejoin="round"/>
<path d="M243.116 211.53C248.972 209.079 254.079 206.286 260.445 204.11C268.158 201.474 278.822 199.7 286.094 204.929C287.138 205.678 291.602 208.898 297.302 213.162" stroke="#333333" stroke-width="5" stroke-linecap="round" stroke-linejoin="round"/>
<path d="M347.273 346.119C347.273 346.119 351.718 362.247 353.555 369.112C355.173 375.135 358.456 387.931 358.456 387.931" stroke="#333333" stroke-width="5" stroke-linecap="round" stroke-linejoin="round"/>
<path d="M315.615 358.449C316.997 363.771 324.524 389.974 324.524 389.974" stroke="#333333" stroke-width="5" stroke-linecap="round" stroke-linejoin="round"/>
<path d="M360.123 388.328C361.671 383.917 360.123 372.827 367.635 372.827C370.865 373.484 366.532 381.05 364.396 384.059C364.69 381.173 371.997 376.64 373.178 380.511C375.099 386.828 362.916 386.127 360.123 388.328Z" stroke="#333333" stroke-width="5" stroke-linecap="round" stroke-linejoin="round"/>
<path d="M430.318 322.518C427.897 320.136 422.212 309.164 425.961 305.89C430.685 301.769 432.131 313.55 431.984 316.304C429.686 312.192 435.939 301.053 438.144 308.708C439.095 312.07 431.695 322.719 430.318 322.518Z" stroke="#333333" stroke-width="5" stroke-linecap="round" stroke-linejoin="round"/>
<path d="M399.954 299.377L427.863 323.537" stroke="#333333" stroke-width="5" stroke-linecap="round" stroke-linejoin="round"/>
<path d="M383.474 322.439L403.37 338.69" stroke="#333333" stroke-width="5" stroke-linecap="round" stroke-linejoin="round"/>
<path d="M139.881 131.16C138.538 126.652 136.886 122.243 134.936 117.963C133.726 115.356 132.486 110.612 130.158 108.951C121.827 113.626 114.383 103.389 123.625 98.934C118.078 89.9513 120.822 81.194 131.359 77.7538C141.895 74.3135 154.254 77.1363 164.55 79.1063C169.451 80.0423 174.915 82.2917 180.697 84.7469C176.081 87.9371 165.197 93.955 165.197 93.955C165.197 93.955 169.872 102.32 173.038 108.363C175.959 114.097 178.464 120.034 180.536 126.127" stroke="#333333" stroke-width="5" stroke-linecap="round" stroke-linejoin="round"/>
<path d="M151.358 102.59C153.495 104.315 156.303 103.413 158.273 101.713" stroke="#333333" stroke-width="5" stroke-linecap="round" stroke-linejoin="round"/>
<path d="M144.198 94.2001C143.409 96.572 141.748 97.8853 138.734 96.6847" stroke="#333333" stroke-width="5" stroke-linecap="round" stroke-linejoin="round"/>
<path d="M150.162 89.7259C152.255 90.9216 155.906 90.5442 156.126 87.2413" stroke="#333333" stroke-width="5" stroke-linecap="round" stroke-linejoin="round"/>
<path d="M377.063 392.674C371.109 386.926 362.166 387.774 354.56 388.092C344.533 388.479 323.823 388.783 323.319 388.935C319.771 389.994 319.178 394.85 322.54 396.565C324.5 397.546 326.999 397.247 329.106 397.217L338.907 397.09C351.468 396.923 363.778 396.6 376.333 395.301C377.225 395.213 377.681 393.272 377.063 392.674Z" fill="#333333"/>
<path d="M446.637 318.98C444.084 316.529 440.521 317.122 437.478 318.235C433.199 319.848 429.018 321.712 424.957 323.817C416.92 327.894 409.279 332.707 402.13 338.195C401.515 338.464 400.983 338.894 400.591 339.44C399.611 340.817 399.611 342.747 401.028 343.85C402.38 344.865 404.223 344.468 405.659 343.85C408.344 342.684 410.887 340.998 413.441 339.567C424.457 333.399 435.443 327.173 446.397 320.891C446.558 320.797 446.696 320.668 446.799 320.512C446.902 320.357 446.967 320.18 446.991 319.995C447.014 319.81 446.994 319.622 446.933 319.446C446.871 319.27 446.77 319.11 446.637 318.98Z" fill="#333333"/>
<path d="M131.06 109.804C130.795 109.488 130.492 109.206 130.158 108.966C128.663 109.846 126.935 110.252 125.204 110.127C126.767 111.803 128.502 113.2 130.746 113.92C130.949 113.971 131.162 113.969 131.364 113.913C131.566 113.858 131.751 113.751 131.899 113.602C132.047 113.454 132.154 113.27 132.21 113.068C132.265 112.866 132.268 112.653 132.216 112.45C131.927 111.529 131.54 110.641 131.06 109.804Z" fill="#333333"/>
<path d="M141.356 70.6872C137.239 74.2597 132.089 74.7889 125.184 75.475C118.73 76.1121 115.456 80.9147 118.034 87.4618L117.98 87.5059C113.8 91.6224 116.143 97.7971 118.897 101.972C119.117 102.311 119.352 102.644 119.583 102.977C120.112 101.561 121.117 100.373 122.425 99.6152C123.878 100.167 125.406 100.498 126.958 100.595C127.791 100.659 128.247 99.7819 128.11 99.0811C127.737 97.0865 127.38 95.0871 126.983 93.0975C126.718 91.7841 126.424 90.4855 125.596 89.3975C125.226 88.9093 124.775 88.4882 124.263 88.1528C124.948 87.691 125.538 87.1001 125.998 86.4131C126.84 85.1586 127.252 84.2274 128.35 83.1444C129.48 81.963 130.83 81.014 132.324 80.3511C136.705 78.6898 142.532 77.3519 143.336 71.8339C143.527 70.6823 142.312 69.8541 141.356 70.6872Z" fill="#333333"/>
</svg>
