<svg width="500" height="500" viewBox="0 0 500 500" fill="none" xmlns="http://www.w3.org/2000/svg">
<path d="M425.29 218.396C423.668 189.335 415.858 159.86 399.754 135.366C391.738 123.067 381.572 112.314 369.742 103.622C356.632 94.0671 341.309 87.6647 325.595 83.8415C308.754 79.744 291.297 78.3537 274.004 78.0793C256.711 77.8049 239.187 78.2257 221.906 79.6037C203.547 81.0671 185.321 84.2805 168.492 92.0123C156.231 97.7552 145.097 105.648 135.62 115.317C140.955 117.506 145.925 119.97 148.089 123.89C150.4 128.073 148.833 134.713 144.431 146.354C140.443 156.86 134.894 170.744 128.364 191.817C128.895 191.745 129.435 191.774 129.955 191.902C136.553 193.579 128.034 222.25 124.004 233.287C121.248 240.842 117.297 246.177 115.906 253.634C115.004 258.512 114.162 265.274 113.979 266.732C114.37 266.781 114.76 266.829 115.138 266.89C116.829 273.266 118.1 279.745 118.943 286.287C124.638 287.073 130.9 298.835 133.205 304.634C137.345 315.049 140.693 325.732 144.979 336.146C150.778 350.22 158.65 368.311 175.138 369.433C180.775 369.803 186.419 368.823 191.601 366.573C189.345 358.348 189.455 350.543 196.12 345.506C191.278 340.939 189.169 332.201 189.504 325.567C189.803 319.707 192.437 312.762 198.01 310.409C197.723 302.701 198.187 292.61 198.187 284.707C198.9 284.707 199.614 284.75 200.321 284.762L200.108 283.579L198.705 268.299L198.614 268.159C196.311 267.838 194.198 266.704 192.656 264.963L191.504 265.323C187.162 265.152 184.266 266.152 180.217 263.037C177.376 260.848 175.022 256.415 174.242 252.268L172.888 251.518C166.217 247.067 163.077 229.262 173.772 228.598L175.412 227.878C173.492 219 176.76 214.152 185.169 211.11C186.998 210.439 189.028 209.738 191.126 209.11C185.851 206.671 179.504 203.622 174.595 200.366C170.04 197.36 165.065 193.744 161.943 189.39C159.156 185.488 155.571 178.506 160.638 174.707C166.29 170.439 171.979 176.134 175.809 179.329C181.565 184.134 188.51 187.579 195.12 191.396C201.297 194.97 209.065 198.311 215.723 201.915C228.528 208.854 239.327 212.762 237.986 229.622C236.876 243.524 230.059 258.177 231.815 274.317V274.543C232.553 273.988 233.321 273.402 234.132 272.774C235.473 278.805 236.431 292.427 236.431 292.427C244.162 290.22 247.138 300.476 250.156 310.628L250.358 310.482C253.534 306.512 256.736 302.585 260.114 298.774C272.309 284.988 286.333 268.287 294.26 260.622C294.547 261.061 294.87 261.506 295.205 261.957C297.955 255.287 304.12 240.512 307.601 233.598C311.961 224.951 318.62 212.896 324.327 204.463C319.54 200.518 301.449 190.128 296.888 186.652C313.071 179.774 328.309 175.293 343.949 173.421C344.833 173.317 345.778 173.22 346.705 173.134C344.645 171.058 342.991 168.616 341.827 165.933C341.168 164.439 342.778 162.567 344.315 163.634C350.461 167.902 358.339 165.348 365.242 166.756C370.729 167.878 376.059 172.104 375.772 178.116C375.873 178.151 375.971 178.194 376.065 178.244C376.671 178.573 377.248 178.952 377.79 179.378C388.217 185.226 387.547 201.598 384.144 211.299C383.815 212.218 383.461 213.126 383.083 214.024C388.979 215.567 393.687 219.091 392.748 226C391.431 235.756 378.723 236.524 369.144 234.945L369.333 234.982C367.063 237.412 364.331 239.365 361.297 240.726C360.964 240.875 360.604 240.955 360.239 240.96C359.874 240.965 359.512 240.896 359.175 240.756C357.29 247.726 354.76 257.482 354.095 262.098C352.839 270.841 350.986 284.976 350.986 284.976L350.815 285.762C351.138 285.701 351.461 285.634 351.772 285.561C351.772 285.561 351.223 296.939 353.223 299.341C355.223 301.744 363.339 308.256 366.998 311.896C371.656 316.585 376.022 322.872 379.803 329.579C387.843 324.561 395.09 318.371 401.303 311.213C422.644 286.207 427.065 250.201 425.29 218.396Z" fill="#F4F6F9"/>
<path d="M236.401 292.427C236.401 292.427 235.443 278.805 234.102 272.774C228.846 276.817 225.461 279.396 219.51 281.829C212.833 284.555 205.785 284.988 198.169 284.713C198.169 292.64 197.705 302.707 197.992 310.415C205.636 310.327 213.171 308.593 220.083 305.329C226.754 302.183 234.681 297.299 236.401 292.427Z" stroke="#333333" stroke-width="7" stroke-linecap="round" stroke-linejoin="round"/>
<path d="M284.37 279.207C283.614 283.378 280.656 297.787 288.412 293.287C294.254 289.903 297.992 282.366 303.12 278.293C303.797 287.031 298.144 297.988 302.79 306.762C307.15 315 320.016 310.018 326.967 307.335C331.845 305.451 340.876 301.964 345.736 301.098" stroke="#333333" stroke-width="7" stroke-linecap="round" stroke-linejoin="round"/>
<path d="M295.407 261.25C295.407 261.25 303.01 242.683 307.602 233.598C311.962 224.951 318.62 212.896 324.327 204.463C319.541 200.518 301.449 190.128 296.888 186.652C313.071 179.774 328.309 175.293 343.949 173.421C357.449 171.805 378.949 172.128 376.016 191.878C374.907 199.311 371.016 207.445 366.87 213.829C374.956 211.927 394.553 212.567 392.724 226.024C390.98 238.902 369.224 236.134 361.334 232.915C361.334 232.915 355.169 254.5 354.071 262.134C352.815 270.878 350.962 285.012 350.962 285.012" stroke="#333333" stroke-width="7" stroke-linecap="round" stroke-linejoin="round"/>
<path d="M334.778 215.281C336.571 217.049 341.571 217.372 343.925 216.5" stroke="#333333" stroke-width="7" stroke-linecap="round" stroke-linejoin="round"/>
<path d="M338.809 195.067C338.071 196.573 336.846 199.104 336.846 199.104" stroke="#333333" stroke-width="7" stroke-linecap="round" stroke-linejoin="round"/>
<path d="M347.12 197.671C346.376 199.177 345.157 201.707 345.157 201.707" stroke="#333333" stroke-width="7" stroke-linecap="round" stroke-linejoin="round"/>
<path d="M197.992 310.415C192.418 312.774 189.784 319.713 189.486 325.573C189.15 332.207 191.26 340.945 196.101 345.512C187.662 351.89 189.729 362.707 193.815 373.201C197.9 383.695 206.364 401.031 206.364 406.823" stroke="#333333" stroke-width="7" stroke-linecap="round" stroke-linejoin="round"/>
<path d="M236.4 292.427C244.9 289.988 247.656 302.646 251.035 313.646C254.413 324.646 261.285 338.689 268.547 351.018C278.181 367.36 295.376 398.579 320.254 398.531C335.425 398.531 337.4 389.439 334.205 384.616C331.01 379.793 322.15 383.61 327.156 389.335C332.163 395.061 345.138 384.36 349.053 372.207" stroke="#333333" stroke-width="7" stroke-linecap="round" stroke-linejoin="round"/>
<path d="M250.327 310.482C253.504 306.512 256.705 302.585 260.083 298.774C272.278 284.988 286.303 268.287 294.23 260.622C297.498 265.567 303.559 271.25 313.742 277.159C323.925 283.067 339.961 288.323 351.748 285.573C351.748 285.573 351.199 296.951 353.199 299.36C355.199 301.768 363.339 308.256 366.998 311.896C376.608 321.567 384.967 338.037 389.303 351.018C391.632 358.006 394.108 370.025 395.12 377.146" stroke="#333333" stroke-width="7" stroke-linecap="round" stroke-linejoin="round"/>
<path d="M84.1746 294.793C84.1746 294.793 80.7051 272.604 80.1929 267.396C91.7453 265.491 103.517 265.323 115.12 266.896C116.811 273.272 118.082 279.751 118.925 286.293C124.62 287.079 130.882 298.841 133.187 304.64C137.327 315.055 140.675 325.738 144.961 336.152C150.76 350.226 158.632 368.317 175.12 369.439C180.757 369.81 186.401 368.829 191.583 366.579" stroke="#333333" stroke-width="7" stroke-linecap="round" stroke-linejoin="round"/>
<path d="M118.925 286.293C107.528 286.293 85.4857 291.092 80.193 298.39C74.9003 305.689 80.9857 331.963 83.3576 340.628C87.8515 357.031 91.4369 374.902 98.1747 390.439C102.175 399.671 104.943 415.384 112.156 422.329" stroke="#333333" stroke-width="7" stroke-linecap="round" stroke-linejoin="round"/>
<path d="M96.3149 232.031C98.5771 224 107.132 220.342 115.004 215.677C119.272 204.701 123.333 190.238 129.937 191.896C136.541 193.555 128.016 222.244 123.986 233.281C121.23 240.835 117.278 246.171 115.888 253.628C114.87 259.159 113.931 267.012 113.931 267.012" stroke="#333333" stroke-width="7" stroke-linecap="round" stroke-linejoin="round"/>
<path d="M200.09 283.585L198.693 268.299" stroke="#333333" stroke-width="7" stroke-linecap="round" stroke-linejoin="round"/>
<path d="M201.626 267.848C193.498 270.409 185.126 257.854 192.949 253.024" stroke="#333333" stroke-width="7" stroke-linecap="round" stroke-linejoin="round"/>
<path d="M97.9673 227.933C97.9673 227.933 89.9978 225.872 86.2356 223.055C80.7966 218.994 82.8088 210.976 83.3332 205C85.5405 179.805 92.0588 158.177 101.803 135.183C104.626 128.518 108.193 119.994 112.723 114.451C117.376 108.75 123.815 110.628 130.754 113.39C137.693 116.153 145.272 118.793 148.089 123.902C150.4 128.085 148.833 134.726 144.431 146.366C140.443 156.872 134.894 170.756 128.364 191.829" stroke="#333333" stroke-width="7" stroke-linecap="round" stroke-linejoin="round"/>
<path d="M191.492 265.323C187.15 265.152 184.254 266.152 180.205 263.037C176.48 260.171 173.577 253.433 173.986 248.555C174.541 241.939 193.394 228.872 197.004 233.598" stroke="#333333" stroke-width="7" stroke-linecap="round" stroke-linejoin="round"/>
<path d="M80.8577 265.409C77.7663 251.53 80.1687 238.11 77.1992 224.659C74.559 212.793 70.7114 197.738 74.7602 186.152C76.9309 179.945 81.4675 178.226 86.1809 181.689" stroke="#333333" stroke-width="7" stroke-linecap="round" stroke-linejoin="round"/>
<path d="M175.028 245.061C172.986 235.653 173.242 230.945 181.321 225.604C186.004 222.506 196.602 216.982 201.37 218.287" stroke="#333333" stroke-width="7" stroke-linecap="round" stroke-linejoin="round"/>
<path d="M78.5832 179.774C76.7539 177.811 77.4307 170.744 78.9734 168.079C80.949 164.646 87.6502 160.092 91.6502 162.738" stroke="#333333" stroke-width="7" stroke-linecap="round" stroke-linejoin="round"/>
<path d="M175.596 228.787C173.248 219.317 176.468 214.256 185.126 211.104C192.584 208.396 202.809 205.14 209.98 208.573" stroke="#333333" stroke-width="7" stroke-linecap="round" stroke-linejoin="round"/>
<path d="M82.9371 164.451C80.8944 157.396 86.1688 148.701 95.1322 149.756" stroke="#333333" stroke-width="7" stroke-linecap="round" stroke-linejoin="round"/>
<path d="M172.876 251.518C166.205 247.067 163.065 229.262 173.76 228.598" stroke="#333333" stroke-width="7" stroke-linecap="round" stroke-linejoin="round"/>
<path d="M86.9614 151.329C86.9614 143.451 94.1931 127.927 102.205 132.659" stroke="#333333" stroke-width="7" stroke-linecap="round" stroke-linejoin="round"/>
<path d="M191.242 209.177C185.937 206.738 179.51 203.64 174.553 200.366C169.998 197.36 165.022 193.744 161.9 189.39C159.114 185.488 155.528 178.506 160.595 174.707C166.248 170.439 171.937 176.134 175.766 179.329C181.522 184.134 188.467 187.579 195.077 191.396C201.254 194.97 209.022 198.311 215.681 201.915C228.486 208.854 239.284 212.762 237.943 229.622C236.833 243.524 230.016 258.177 231.772 274.317" stroke="#333333" stroke-width="7" stroke-linecap="round" stroke-linejoin="round"/>
<path d="M92.187 216.823C94.9553 188.012 103.016 165.671 112.157 138.226C113.858 133.116 118.681 122.207 122.87 118.652" stroke="#333333" stroke-width="7" stroke-linecap="round" stroke-linejoin="round"/>
<path d="M375.096 224.903C375.992 224.256 380.913 224.195 380.913 224.195" stroke="#333333" stroke-width="7" stroke-linecap="round" stroke-linejoin="round"/>
<path d="M359.12 240.75C359.46 240.898 359.826 240.974 360.196 240.974C360.567 240.974 360.933 240.898 361.273 240.75C364.307 239.389 367.039 237.436 369.309 235.006C366.583 234.598 363.909 233.897 361.334 232.915C361.334 232.915 360.358 236.232 359.12 240.75Z" fill="#333333"/>
<path d="M377.766 179.378C377.224 178.952 376.647 178.573 376.041 178.244C375.947 178.194 375.849 178.151 375.748 178.116C376.035 172.104 370.73 167.878 365.218 166.756C358.321 165.348 350.437 167.915 344.291 163.634C342.754 162.567 341.144 164.439 341.803 165.933C346.815 177.39 358.815 181.518 370.461 182.482C367.675 185.695 366.596 190.287 366.547 194.604C366.468 201.592 368.815 210.457 362.669 215.683C361.175 216.945 362.986 219.598 364.681 218.518C367.109 216.968 369.367 215.168 371.419 213.146C375.329 212.811 379.267 213.107 383.083 214.024C383.461 213.126 383.815 212.218 384.144 211.299C387.535 201.598 388.193 185.226 377.766 179.378Z" fill="#333333"/>
</svg>
