<svg width="21" height="21" viewBox="0 0 21 21" fill="none" xmlns="http://www.w3.org/2000/svg">
<path d="M3.96577 5.36856L3.29721 6.55199C2.97401 6.55133 2.2557 6.55138 1.85904 6.55138C1.20767 6.55138 0.678278 6.87657 0.510319 7.37883C0.434179 7.60814 0.386869 7.84598 0.369471 8.0869C0.367605 8.12521 0.373663 8.16348 0.387266 8.19935C0.40087 8.23522 0.42173 8.26792 0.448549 8.29541C0.47549 8.32305 0.507806 8.34492 0.54352 8.35969C0.579234 8.37445 0.617593 8.38179 0.656253 8.38127H0.656622L1.65215 8.38303C1.21817 8.71243 0.938933 9.26384 0.938933 9.89901C0.938922 9.91131 0.939676 9.9236 0.941189 9.93581L1.40204 13.578C1.4084 13.8276 1.50088 14.0673 1.66388 14.2568C1.82688 14.4463 2.05044 14.574 2.29688 14.6184V15.7847C2.2974 15.9666 2.36961 16.1411 2.49795 16.2705C2.62629 16.3998 2.80048 16.4738 2.98299 16.4763H4.18475C4.36829 16.4741 4.54373 16.4006 4.67373 16.2714C4.80374 16.1423 4.87805 15.9676 4.88087 15.7847V14.6365H15.1574C14.8237 14.9947 14.5783 15.4256 14.4409 15.8949C14.3034 16.3641 14.2777 16.8589 14.3657 17.3398C14.4537 17.8207 14.653 18.2746 14.9478 18.6653C15.2426 19.056 15.6247 19.3727 16.0639 19.5904C16.1085 19.6121 16.1579 19.6223 16.2075 19.6201C16.2571 19.6178 16.3053 19.6032 16.3477 19.5775C16.3899 19.552 16.4249 19.5163 16.4495 19.4736C16.4741 19.431 16.4874 19.3829 16.4883 19.3337V17.8455L17.4654 17.1939L18.469 17.8953L18.4629 19.3345C18.4626 19.3833 18.4749 19.4313 18.4985 19.4741C18.5221 19.5168 18.5563 19.5528 18.5978 19.5787C18.6394 19.6045 18.6869 19.6193 18.7358 19.6216C18.7847 19.624 18.8334 19.6138 18.8772 19.592C19.4124 19.3246 19.8604 18.911 20.1689 18.3995C20.4775 17.8881 20.6339 17.2997 20.62 16.7031C20.606 16.1064 20.4223 15.526 20.0902 15.0294C19.7581 14.5328 19.2913 14.1405 18.7442 13.8981V7.03459C19.2913 6.79247 19.7581 6.40032 20.0902 5.90386C20.4223 5.4074 20.6059 4.82708 20.6198 4.23054C20.6337 3.63401 20.4771 3.04583 20.1684 2.53458C19.8598 2.02334 19.4117 1.61008 18.8764 1.34298C18.8324 1.32114 18.7835 1.31081 18.7344 1.31296C18.6853 1.31511 18.6375 1.32967 18.5956 1.35526C18.5537 1.38086 18.519 1.41665 18.4947 1.45929C18.4705 1.50192 18.4576 1.55 18.4571 1.59899V3.08718L17.48 3.73867L16.4764 3.03726L16.4825 1.59814C16.4828 1.54934 16.4705 1.50128 16.4469 1.45853C16.4233 1.41579 16.3891 1.37979 16.3475 1.35396C16.306 1.32813 16.2585 1.31334 16.2096 1.311C16.1607 1.30865 16.112 1.31883 16.0682 1.34057C15.6153 1.56188 15.2227 1.88903 14.9239 2.29416C14.6251 2.69928 14.429 3.17037 14.3522 3.66732C14.2565 3.65019 14.1595 3.64062 14.0623 3.63871H6.18398C5.29669 3.63871 4.50919 4.25651 3.96577 5.36856ZM0.986757 7.81453C1.00472 7.72864 1.02759 7.64385 1.05525 7.56056C1.14233 7.30013 1.46541 7.1251 1.85916 7.1251C2.15152 7.1251 2.6189 7.12584 2.97364 7.12649L2.5853 7.81249L0.986757 7.81453ZM4.30665 15.7847C4.30401 15.8159 4.29023 15.845 4.26782 15.8669C4.24541 15.8888 4.21586 15.902 4.18455 15.904H2.98299C2.95278 15.9016 2.92456 15.888 2.90386 15.8659C2.88316 15.8439 2.87148 15.8149 2.8711 15.7847V14.6365H4.30665V15.7847ZM2.48203 14.0642C2.34815 14.0638 2.21989 14.0105 2.12534 13.9161C2.03078 13.8216 1.97763 13.6936 1.97753 13.5602C1.97753 13.548 1.97676 13.5358 1.97524 13.5236L1.51323 9.88348C1.52107 9.12745 2.03996 8.65924 2.55975 8.62866C2.57606 8.62932 2.5924 8.62862 2.6086 8.62657H16.1602V10.2637C15.75 10.4046 15.3846 10.8234 15.3846 11.3169C15.3846 11.8103 15.75 12.2292 16.1602 12.37V13.8981C16.0782 13.9469 15.9668 13.9824 15.8655 14.0642H2.48203ZM12.4073 8.0542C12.518 7.44093 13.0734 6.93712 13.7403 6.93712C14.4071 6.93712 14.9625 7.44093 15.0733 8.0542H12.4073ZM16.1602 10.9016V11.7321C16.0782 11.6347 15.9588 11.4849 15.9588 11.3169C15.9588 11.1489 16.0782 10.999 16.1602 10.9016ZM15.905 2.11025L15.9027 3.18489C15.9026 3.23112 15.9138 3.27667 15.9352 3.31767C15.9566 3.35867 15.9877 3.39389 16.0257 3.42034L17.3154 4.31955C17.3628 4.35262 17.4191 4.37067 17.4769 4.37133C17.5347 4.372 17.5914 4.35524 17.6395 4.32327L18.9078 3.47844C18.9466 3.45207 18.9782 3.41651 18.9997 3.37494C19.0213 3.33337 19.0321 3.28712 19.0313 3.24033V2.1123C19.6875 2.59412 20.0522 3.34332 20.0522 4.16125C20.049 4.68653 19.886 5.1985 19.5847 5.62945C19.2834 6.0604 18.8579 6.39003 18.3646 6.57476C18.3089 6.59478 18.2605 6.63107 18.2258 6.67889C18.1911 6.72672 18.1716 6.78387 18.17 6.84288V14.0898C18.1721 14.149 18.192 14.2062 18.2271 14.2541C18.2622 14.3019 18.3109 14.3381 18.3668 14.358C18.8598 14.5428 19.2849 14.8726 19.5857 15.3036C19.8865 15.7346 20.049 16.2464 20.0515 16.7715C20.0534 17.1685 19.9626 17.5605 19.7863 17.9165C19.6099 18.2725 19.3528 18.5827 19.0354 18.8225L19.0404 17.7477C19.0406 17.7016 19.0297 17.6561 19.0085 17.6151C18.9872 17.5741 18.9563 17.5388 18.9185 17.5123L17.6293 16.6131C17.5821 16.5801 17.5259 16.5621 17.4682 16.5614C17.4105 16.5607 17.3539 16.5775 17.3059 16.6094L16.0377 17.4542C15.9989 17.4806 15.9673 17.5161 15.9457 17.5577C15.9241 17.5993 15.9132 17.6456 15.9141 17.6924V18.8204C15.2578 18.3386 14.8932 17.5894 14.8932 16.7715C14.8942 16.3389 15.0039 15.9135 15.2123 15.5341C15.4208 15.1548 15.7213 14.8335 16.0864 14.5998C16.0974 14.5935 16.1081 14.5864 16.1181 14.5787C16.2571 14.4905 16.4046 14.4166 16.5584 14.3579C16.612 14.3369 16.6577 14.2998 16.6893 14.2518C16.7208 14.2038 16.7366 14.1472 16.7344 14.0898V6.84288C16.7365 6.78548 16.7206 6.72886 16.6891 6.68083C16.6575 6.6328 16.6117 6.59574 16.558 6.57476C16.1256 6.41242 15.7447 6.13753 15.455 5.77871C15.1653 5.41988 14.9773 4.99023 14.9106 4.53444C14.844 4.07865 14.9011 3.61339 15.0759 3.18705C15.2508 2.76071 15.5371 2.38887 15.9051 2.11021L15.905 2.11025ZM14.3058 4.24203C14.3394 5.44771 15.0938 6.54299 16.1602 7.03442V8.0542H15.6534C15.5966 7.58825 15.3707 7.15915 15.0182 6.84791C14.6657 6.53667 14.2111 6.36483 13.7403 6.36483C13.2694 6.36483 12.8148 6.53667 12.4623 6.84791C12.1098 7.15915 11.8839 7.58825 11.8271 8.0542H3.10034L4.47026 5.64109C4.47317 5.6359 4.47596 5.62842 4.47847 5.6231C4.73465 5.09655 5.29685 4.21108 6.18398 4.21108H14.0623C14.1443 4.21273 14.226 4.2231 14.3058 4.24203Z" fill="black"/>
<path d="M3.66797 10.2131C3.44894 10.2131 3.23483 10.2779 3.05272 10.3992C2.8706 10.5205 2.72866 10.6929 2.64485 10.8946C2.56103 11.0963 2.5391 11.3182 2.58183 11.5324C2.62456 11.7465 2.73003 11.9432 2.8849 12.0976C3.03978 12.2519 3.2371 12.3571 3.45192 12.3997C3.66674 12.4423 3.88941 12.4204 4.09176 12.3369C4.29412 12.2533 4.46708 12.1118 4.58876 11.9303C4.71045 11.7488 4.7754 11.5353 4.7754 11.317C4.77509 11.0243 4.65832 10.7437 4.4507 10.5368C4.24309 10.3298 3.96159 10.2134 3.66797 10.2131ZM3.66797 11.8485C3.56251 11.8485 3.45942 11.8173 3.37174 11.7589C3.28405 11.7005 3.21571 11.6175 3.17535 11.5204C3.135 11.4233 3.12444 11.3164 3.14501 11.2133C3.16559 11.1102 3.21637 11.0155 3.29094 10.9412C3.36551 10.8669 3.46052 10.8162 3.56395 10.7957C3.66738 10.7752 3.77459 10.7857 3.87202 10.826C3.96945 10.8662 4.05273 10.9343 4.11131 11.0217C4.1699 11.1091 4.20118 11.2119 4.20118 11.317C4.20098 11.4579 4.14473 11.5929 4.04478 11.6925C3.94482 11.7921 3.80931 11.8482 3.66797 11.8483V11.8485Z" fill="black"/>
<path d="M6.29126 11.9382H13.8888C13.935 11.9363 13.9801 11.9238 14.0206 11.9016C14.0612 11.8793 14.096 11.8481 14.1223 11.8102C14.1486 11.7723 14.1658 11.7288 14.1725 11.6832C14.1791 11.6376 14.175 11.5911 14.1606 11.5473L13.8986 10.7868C13.7186 10.2594 13.1398 9.85315 12.5806 9.85315H7.57883C7.01826 9.85315 6.44269 10.2599 6.26883 10.791L6.01834 11.5512C6.00426 11.5951 6.00059 11.6418 6.00763 11.6874C6.01466 11.733 6.0322 11.7764 6.05887 11.8141C6.08519 11.8514 6.11992 11.8821 6.16027 11.9037C6.20063 11.9252 6.24549 11.937 6.29126 11.9382ZM6.8147 10.977C6.9113 10.6827 7.26813 10.4255 7.57883 10.4255H12.5806C12.8926 10.4255 13.2545 10.683 13.355 10.9774L13.4879 11.3658H6.68702L6.8147 10.977Z" fill="black"/>
<path d="M14.8908 12.347H5.52051C5.44436 12.347 5.37133 12.3772 5.31749 12.4309C5.26365 12.4845 5.2334 12.5573 5.2334 12.6332C5.2334 12.7091 5.26365 12.7819 5.31749 12.8356C5.37133 12.8893 5.44436 12.9194 5.52051 12.9194H14.8908C14.9669 12.9194 15.04 12.8893 15.0938 12.8356C15.1477 12.7819 15.1779 12.7091 15.1779 12.6332C15.1779 12.5573 15.1477 12.4845 15.0938 12.4309C15.04 12.3772 14.9669 12.347 14.8908 12.347Z" fill="black"/>
</svg>
