<svg width="21" height="21" viewBox="0 0 21 21" fill="none" xmlns="http://www.w3.org/2000/svg">
<path d="M18.5817 14.7862C18.4666 14.7384 18.334 14.7648 18.2458 14.853L14.8774 18.2214C14.7892 18.3096 14.7629 18.4422 14.8106 18.5573C14.8583 18.6726 14.9707 18.7476 15.0954 18.7476H18.4638C18.6341 18.7476 18.7721 18.6096 18.7721 18.4394V15.0709C18.772 14.9463 18.6969 14.8339 18.5817 14.7862ZM15.8394 18.1312L18.1555 15.8151V18.1312H15.8394Z" fill="black"/>
<path d="M20.8098 9.8457C20.6946 9.79795 20.562 9.82433 20.4739 9.91247L19.5507 10.8356V4.55894C19.5507 4.38868 19.4127 4.2507 19.2425 4.2507H16.8742L17.7339 3.39101C17.734 3.39089 17.7341 3.39073 17.7342 3.3906L18.5626 2.56225C18.7401 2.38478 18.8378 2.14869 18.8378 1.89767C18.8378 1.64666 18.7401 1.41065 18.5626 1.2331L17.6047 0.275215C17.4272 0.0977404 17.1912 0 16.9401 0C16.6891 0 16.4531 0.0977404 16.2756 0.275215L15.4468 1.10398L14.4454 2.10542L12.3001 4.25066H2.73247V1.20135C2.73247 1.03109 2.59445 0.893117 2.42423 0.893117C1.08753 0.893199 0 1.98065 0 3.31743V16.4091C0 16.4318 0.00262501 16.454 0.0073008 16.4753C0.0498751 17.0425 0.295272 17.5695 0.705388 17.9696C1.14376 18.3971 1.72245 18.6326 2.3349 18.6326H11.7537L9.97978 20.4065C9.89163 20.4947 9.86526 20.6272 9.91296 20.7424C9.96066 20.8576 10.0731 20.9327 10.1977 20.9327H20.6918C20.862 20.9327 21 20.7947 21 20.6245V10.1305C21 10.0058 20.9249 9.8934 20.8098 9.8457ZM16.7116 0.711171C16.8376 0.585089 17.0428 0.585089 17.1688 0.711171L18.1268 1.66909C18.2529 1.79513 18.2529 2.00034 18.1268 2.12642L17.516 2.73722L16.1007 1.32198L16.7116 0.711171ZM15.6648 1.75789L17.08 3.1731L16.5145 3.73866L15.0993 2.32346L15.6648 1.75789ZM20.3837 13.5939H19.815C19.6447 13.5939 19.5067 13.7319 19.5067 13.9022C19.5067 14.0724 19.6447 14.2104 19.815 14.2104H20.3837V15.1392H19.815C19.6447 15.1392 19.5067 15.2772 19.5067 15.4475C19.5067 15.6177 19.6447 15.7557 19.815 15.7557H20.3837V16.6845H19.815C19.6447 16.6845 19.5067 16.8225 19.5067 16.9927C19.5067 17.163 19.6447 17.301 19.815 17.301H20.3837V18.2298H19.815C19.6447 18.2298 19.5067 18.3678 19.5067 18.538C19.5067 18.7083 19.6447 18.8463 19.815 18.8463H20.3837V20.3164H10.9418L14.0553 17.203C14.1756 17.0825 14.1756 16.8874 14.0553 16.7671C14.0414 16.7532 14.0266 16.7413 14.011 16.7306C13.891 16.6484 13.7259 16.6605 13.6193 16.7671L12.3701 18.0162H2.33494C1.40011 18.0162 0.647556 17.2864 0.617943 16.3532C0.619706 16.2947 0.624259 16.2366 0.63156 16.1792C0.631601 16.1789 0.631642 16.1785 0.631683 16.1782C0.635128 16.1509 0.639271 16.1238 0.643988 16.0968C0.644521 16.0937 0.645095 16.0906 0.645628 16.0875C0.649935 16.0635 0.654775 16.0395 0.660066 16.0156C0.661542 16.009 0.663101 16.0024 0.66466 15.9958C0.669335 15.9756 0.67438 15.9555 0.679794 15.9355C0.682747 15.9247 0.685824 15.914 0.688982 15.9032C0.693494 15.8876 0.698169 15.8719 0.703132 15.8565C0.708095 15.841 0.713386 15.8257 0.718759 15.8104C0.722492 15.7997 0.726183 15.789 0.730203 15.7784C0.737709 15.7582 0.745665 15.7382 0.753869 15.7184C0.756207 15.7127 0.758503 15.7069 0.760923 15.7012C0.771464 15.6766 0.782416 15.6523 0.793982 15.6283C0.794474 15.6272 0.794925 15.6262 0.795418 15.6252C1.03651 15.1263 1.50019 14.7543 2.05665 14.6389C2.05821 14.6385 2.05977 14.6382 2.06133 14.6378C2.08684 14.6326 2.1126 14.6282 2.13852 14.624C2.14282 14.6233 2.14713 14.6225 2.15152 14.6218C2.17494 14.6182 2.19861 14.6155 2.22227 14.6128C2.22892 14.6121 2.23552 14.611 2.24221 14.6104C2.26505 14.6081 2.2881 14.6066 2.31115 14.6051C2.31845 14.6047 2.32575 14.6039 2.33306 14.6035C2.36324 14.602 2.39368 14.6012 2.42423 14.6012C2.59445 14.6012 2.73247 14.4632 2.73247 14.293V12.0581C2.73247 11.8878 2.59445 11.7499 2.42423 11.7499C2.25402 11.7499 2.116 11.8878 2.116 12.0581V14.0042C1.59551 14.07 1.11239 14.3021 0.731433 14.6741C0.691361 14.7133 0.65338 14.754 0.616384 14.7953V3.31743C0.616384 2.42571 1.2655 1.68263 2.11596 1.53587V4.55894V10.8252V10.8252C2.11596 10.9954 2.25398 11.1335 2.42419 11.1335C2.59441 11.1335 2.73243 10.9954 2.73243 10.8252V10.8252V4.86717H11.6837L9.97974 6.57113C9.85936 6.69155 9.85936 6.88666 9.97974 7.00704C10.1001 7.12738 10.2953 7.12738 10.4156 7.00704L12.6458 4.77689C12.6458 4.77681 12.6459 4.77673 12.646 4.77669L14.6633 2.75933L16.0785 4.17458L15.9125 4.34061C15.9123 4.34073 15.9122 4.34086 15.912 4.34098L9.69702 10.5561L8.28181 9.14088L9.50687 7.91583C9.62725 7.7954 9.62725 7.60029 9.50687 7.47991C9.38649 7.35957 9.19133 7.35957 9.07099 7.47991L7.62794 8.92293C7.62023 8.93064 7.61301 8.9388 7.60624 8.94717C7.60398 8.94995 7.60197 8.95295 7.59984 8.95586C7.59549 8.96164 7.59123 8.96747 7.58725 8.97354C7.58499 8.97707 7.58294 8.98068 7.58081 8.98433C7.57741 8.99007 7.57412 8.99589 7.57113 9.00184C7.56916 9.0057 7.5674 9.00959 7.56559 9.01361C7.56284 9.01964 7.5603 9.02579 7.55796 9.03195C7.55714 9.03412 7.55608 9.03617 7.5553 9.03834L6.95479 10.7395L6.54537 11.8994C6.53995 11.9148 6.53606 11.9304 6.53315 11.9462H5.50808C5.33787 11.9462 5.19985 12.0842 5.19985 12.2545C5.19985 12.4247 5.33787 12.5627 5.50808 12.5627H14.044C14.2143 12.5627 14.3523 12.4247 14.3523 12.2545C14.3523 12.0842 14.2143 11.9462 14.044 11.9462H7.91985L9.7996 11.2827C9.80115 11.2821 9.80263 11.2813 9.80419 11.2808C9.81149 11.278 9.81867 11.275 9.82576 11.2718C9.82859 11.2705 9.83142 11.2692 9.83417 11.2679C9.84155 11.2642 9.84881 11.2601 9.85595 11.2558C9.85825 11.2544 9.86063 11.2531 9.86288 11.2517C9.87031 11.2469 9.87753 11.2417 9.88462 11.2362C9.88638 11.2349 9.88823 11.2337 9.88995 11.2323C9.89853 11.2254 9.90693 11.218 9.91489 11.21L16.2577 4.86721H18.9342V11.4521L14.5252 15.8612C14.4048 15.9816 14.4048 16.1767 14.5252 16.2971C14.5327 16.3046 14.5405 16.3117 14.5486 16.3183C14.6051 16.3643 14.6741 16.3874 14.7431 16.3874C14.8121 16.3874 14.8812 16.3643 14.9377 16.3183C14.9458 16.3117 14.9536 16.3046 14.9611 16.2971C14.9612 16.297 14.9611 16.2971 14.9612 16.297L20.3837 10.8745V13.5939ZM9.13326 10.8641L8.25035 11.1758L7.6621 10.5875L7.97378 9.7046L9.13326 10.8641Z" fill="black"/>
</svg>
