<svg width="21" height="21" viewBox="0 0 21 21" fill="none" xmlns="http://www.w3.org/2000/svg">
<path d="M5.90952 14.0237C6.66948 13.846 7.24577 13.2845 7.47898 12.5924H14.9158C15.9038 12.5924 16.7859 11.9316 17.0607 10.9855L17.9589 7.8931C19.704 7.45645 21 5.87972 21 4.00669C21 1.79739 19.197 4.08842e-05 16.9806 4.08842e-05C15.5129 4.08842e-05 14.2266 0.78841 13.525 1.96248H12.0588C11.8323 1.96248 11.6487 2.14552 11.6487 2.37132C11.6487 2.59713 11.8323 2.78016 12.0588 2.78016H13.1541C13.029 3.16689 12.9612 3.57904 12.9612 4.00669C12.9612 6.21599 14.7643 8.01334 16.9806 8.01334C17.0106 8.01334 17.0405 8.01285 17.0703 8.01219L16.2728 10.7581C16.0989 11.3566 15.5409 11.7747 14.9158 11.7747H7.588C7.58119 11.6617 7.56565 11.548 7.54026 11.4342L5.60547 2.78012H8.36839C8.59491 2.78012 8.77853 2.59709 8.77853 2.37128C8.77853 2.14548 8.59491 1.96244 8.36839 1.96244H5.42267L5.36423 1.70107C5.14029 0.699487 4.26491 0 3.23552 0H0.410147C0.183623 0 0 0.183038 0 0.408842V2.20775C0 2.43355 0.183623 2.61659 0.410147 2.61659H2.87964L4.88965 11.6075C3.76683 12.0506 3.0122 13.1344 3.0122 14.3664C3.0122 16.0033 4.34813 17.3349 5.99019 17.3349H7.09197C6.61673 17.703 6.31002 18.2776 6.31002 18.9225C6.31002 20.0309 7.21464 20.9327 8.32659 20.9327C9.43854 20.9327 10.3432 20.031 10.3432 18.9225C10.3432 18.2776 10.0365 17.7029 9.56122 17.3349H14.0836C13.6084 17.703 13.3017 18.2776 13.3017 18.9225C13.3017 20.0309 14.2063 20.9327 15.3182 20.9327C16.4302 20.9327 17.3348 20.031 17.3348 18.9225C17.3348 18.2776 17.0281 17.7029 16.5529 17.3349H18.7027C18.9292 17.3349 19.1128 17.1518 19.1128 16.926V15.1271C19.1128 14.9013 18.9292 14.7183 18.7027 14.7183H5.99019C5.7955 14.7183 5.63714 14.5604 5.63714 14.3664C5.6371 14.2021 5.74911 14.0612 5.90952 14.0237ZM13.7815 4.00665C13.7815 2.24826 15.2166 0.817683 16.9806 0.817683C18.7446 0.817683 20.1797 2.24826 20.1797 4.00665C20.1797 5.76504 18.7446 7.19561 16.9806 7.19561C15.2166 7.19561 13.7815 5.76508 13.7815 4.00665ZM8.32659 20.115C7.66695 20.115 7.13032 19.5801 7.13032 18.9225C7.13032 18.265 7.66695 17.7301 8.32659 17.7301C8.98623 17.7301 9.52287 18.265 9.52287 18.9225C9.52287 19.5801 8.98619 20.115 8.32659 20.115ZM15.3182 20.115C14.6586 20.115 14.122 19.5801 14.122 18.9225C14.122 18.265 14.6586 17.7301 15.3182 17.7301C15.9779 17.7301 16.5145 18.265 16.5145 18.9225C16.5145 19.5801 15.9778 20.115 15.3182 20.115ZM4.8168 14.3664C4.8168 15.0113 5.34314 15.536 5.99015 15.536H18.2925V16.5172H5.99019C4.80044 16.5172 3.83249 15.5523 3.83249 14.3664C3.83249 13.3756 4.50583 12.5172 5.46996 12.2789C5.68615 12.2255 5.82002 12.0098 5.77158 11.7932L3.60876 2.11882C3.56696 1.9319 3.40057 1.7989 3.20841 1.7989H0.820293V0.817683H3.23556C3.87777 0.817683 4.42388 1.25412 4.56362 1.87895L6.73961 11.612C6.901 12.334 6.44459 13.0587 5.72224 13.2276C5.18913 13.3522 4.8168 13.8205 4.8168 14.3664Z" fill="black"/>
<path d="M10.2124 2.78011C10.3203 2.78011 10.4261 2.73636 10.5024 2.66031C10.5787 2.58427 10.6226 2.47878 10.6226 2.37125C10.6226 2.26373 10.5787 2.15824 10.5024 2.0822C10.4261 2.00615 10.3203 1.9624 10.2124 1.9624C10.1045 1.9624 9.99871 2.00615 9.92242 2.0822C9.84613 2.15824 9.80225 2.26373 9.80225 2.37125C9.80225 2.47878 9.84613 2.58427 9.92242 2.66031C9.99871 2.73636 10.1045 2.78011 10.2124 2.78011Z" fill="black"/>
<path d="M18.3748 3.59782H17.3904V2.6166C17.3904 2.3908 17.2068 2.20776 16.9803 2.20776C16.7538 2.20776 16.5702 2.3908 16.5702 2.6166V3.59782H15.5858C15.3593 3.59782 15.1757 3.78086 15.1757 4.00666C15.1757 4.23247 15.3593 4.4155 15.5858 4.4155H16.5702V5.39672C16.5702 5.62252 16.7538 5.80556 16.9803 5.80556C17.2068 5.80556 17.3904 5.62252 17.3904 5.39672V4.4155H18.3748C18.6013 4.4155 18.7849 4.23247 18.7849 4.00666C18.7849 3.78086 18.6013 3.59782 18.3748 3.59782Z" fill="black"/>
</svg>
