<svg width="21" height="21" viewBox="0 0 21 21" fill="none" xmlns="http://www.w3.org/2000/svg">
<g clip-path="url(#clip0)">
<path d="M9.69021 14.1977C9.85058 14.0379 9.85058 13.7792 9.69021 13.6193C9.52968 13.4599 9.26962 13.4599 9.10893 13.6193C8.94872 13.7792 8.94872 14.0379 9.10893 14.1977C9.26962 14.3571 9.52968 14.3571 9.69021 14.1977Z" fill="black"/>
<path d="M7.74487 4.49598C7.74487 6.97507 9.77222 8.99212 12.2641 8.99212C14.7561 8.99212 16.7834 6.97507 16.7834 4.49598C16.7834 2.0169 14.7561 0 12.2641 0C9.77222 0 7.74487 2.0169 7.74487 4.49598ZM15.9618 4.49598C15.9618 6.52438 14.3031 8.1746 12.2641 8.1746C10.2252 8.1746 8.56647 6.52438 8.56647 4.49598C8.56647 2.46774 10.2252 0.817524 12.2641 0.817524C14.3031 0.817524 15.9618 2.46774 15.9618 4.49598Z" fill="black"/>
<path d="M4.75301 20.8117C4.91226 20.9714 5.17151 20.9732 5.33285 20.8151L7.32472 18.8629C7.66312 18.5262 7.76602 18.0278 7.61721 17.5945L8.04566 17.1834C8.27635 16.9617 8.58007 16.8396 8.90113 16.8396H14.3629C15.3319 16.8396 16.2477 16.4694 16.942 15.7972C16.9706 15.7696 16.7251 16.0572 20.6681 11.3689C21.2529 10.6806 21.1654 9.64699 20.4729 9.06455C19.7847 8.48754 18.7537 8.57043 18.1673 9.24693L15.743 11.7259C15.4368 11.351 14.97 11.1174 14.4656 11.1174H9.88423C9.23231 10.846 8.54058 10.7087 7.82686 10.7087C5.84847 10.7087 4.121 11.6177 3.19393 13.3221C2.80336 13.2485 2.39144 13.366 2.0951 13.6608L0.140629 15.611C-0.0189391 15.7702 -0.0192602 16.0278 0.139987 16.1875L4.75301 20.8117ZM7.8267 11.5261C8.45598 11.5261 9.06439 11.6521 9.6354 11.9006C9.68742 11.9232 9.74344 11.9349 9.80011 11.9349H14.4656C14.9111 11.9349 15.2874 12.2963 15.2874 12.7523C15.2874 13.2031 14.9188 13.5698 14.4656 13.5698H11.1136C10.8867 13.5698 10.7028 13.7528 10.7028 13.9785C10.7028 14.2043 10.8867 14.3872 11.1136 14.3872H14.4656C15.3718 14.3872 16.109 13.6538 16.109 12.7523C16.109 12.6804 16.1038 12.6092 16.0945 12.5386C18.4397 10.1403 18.7704 9.80334 18.7846 9.78657C19.0774 9.44273 19.5972 9.39913 19.9429 9.68915C20.2891 9.98029 20.3329 10.4971 20.0393 10.8429L16.3543 15.2254C15.8162 15.7394 15.1097 16.0222 14.3629 16.0222H8.90113C8.36592 16.0222 7.85929 16.2258 7.47498 16.5952L7.12582 16.9304L3.90717 13.7285C4.65942 12.3246 6.07097 11.5261 7.8267 11.5261ZM2.67654 14.2385C2.81203 14.1037 3.02008 14.0794 3.18526 14.181C3.25638 14.2241 3.05218 14.0392 6.74376 17.7066C6.90798 17.87 6.89915 18.1303 6.746 18.2827L5.04791 19.9469L1.01103 15.9002L2.67654 14.2385Z" fill="black"/>
<path d="M11.7704 2.04373V2.52268C11.2922 2.69133 10.9486 3.14569 10.9486 3.67862C10.9486 4.35464 11.5015 4.90482 12.1812 4.90482C12.4077 4.90482 12.592 5.08816 12.592 5.31351C12.592 5.53885 12.4077 5.72219 12.1812 5.72219C12.0057 5.72219 11.8161 5.61247 11.6477 5.413C11.5017 5.2402 11.2426 5.218 11.0689 5.36317C10.8952 5.5085 10.8727 5.76627 11.0188 5.93907C11.2384 6.1989 11.4967 6.38001 11.7704 6.47136V6.94839C11.7704 7.17422 11.9544 7.35708 12.1812 7.35708C12.408 7.35708 12.592 7.17422 12.592 6.94839V6.46944C13.0702 6.30064 13.4137 5.84628 13.4137 5.31351C13.4137 4.63732 12.8609 4.0873 12.1812 4.0873C11.9547 4.0873 11.7704 3.90396 11.7704 3.67862C11.7704 3.45328 11.9547 3.26978 12.1812 3.26978C12.3268 3.26978 12.4804 3.34372 12.6255 3.48346C12.7886 3.64045 13.0487 3.63614 13.2065 3.47404C13.3643 3.31178 13.36 3.05306 13.197 2.89607C12.9885 2.69532 12.7798 2.58177 12.592 2.51981V2.04373C12.592 1.81791 12.408 1.63489 12.1812 1.63489C11.9544 1.63489 11.7704 1.81791 11.7704 2.04373Z" fill="black"/>
</g>
<defs>
<clipPath id="clip0">
<rect width="21" height="20.9327" fill="white"/>
</clipPath>
</defs>
</svg>
