<svg width="21" height="21" viewBox="0 0 21 21" fill="none" xmlns="http://www.w3.org/2000/svg">
<path fill-rule="evenodd" clip-rule="evenodd" d="M11.5714 3.41752H12.6429C12.8401 3.41752 13 3.57691 13 3.77352V5.19751C13 5.39413 12.8401 5.55351 12.6429 5.55351H11.5714V6.62151C11.5714 6.81812 11.4115 6.97751 11.2143 6.97751H9.78572C9.58847 6.97751 9.42857 6.81812 9.42857 6.62151V5.55351H8.35714C8.1599 5.55351 8 5.39413 8 5.19751V3.77352C8 3.57691 8.1599 3.41752 8.35714 3.41752H9.42857V2.34953C9.42857 2.15292 9.58847 1.99353 9.78572 1.99353H11.2143C11.4115 1.99353 11.5714 2.15292 11.5714 2.34953V3.41752ZM11.2143 4.84152H12.2857V4.12952H11.2143C11.017 4.12952 10.8571 3.97013 10.8571 3.77352V2.70553H10.1429V3.77352C10.1429 3.97013 9.98296 4.12952 9.78572 4.12952H8.71429V4.84152H9.78572C9.98296 4.84152 10.1429 5.0009 10.1429 5.19751V6.26551H10.8571V5.19751C10.8571 5.0009 11.017 4.84152 11.2143 4.84152Z" fill="black"/>
<path fill-rule="evenodd" clip-rule="evenodd" d="M20.2351 6.30304C20.2352 6.36169 20.2313 6.42031 20.2236 6.47858C20.701 6.71401 20.997 7.15216 21 7.62789C20.9999 7.74426 20.9819 7.8601 20.9465 7.97235L19.2865 13.3479C19.1904 13.6625 18.988 13.9451 18.7052 14.1594L16.1196 16.15C15.8774 16.3398 15.7386 16.6091 15.7371 16.8919V17.6206C15.9484 17.6206 16.1196 17.7689 16.1196 17.9518V20.6015C16.1196 20.7844 15.9484 20.9327 15.7371 20.9327H10.3825C10.1712 20.9327 10 20.7844 10 20.6015V17.9518C10 17.7689 10.1712 17.6206 10.3825 17.6206V14.5006C10.3845 13.4433 11.0318 12.4658 12.0845 11.9303L15.4656 10.2147C15.489 10.2034 15.5133 10.1934 15.5383 10.1849L17.2212 5.99169C17.4283 5.30535 18.2141 4.87534 19.0188 5.00799C19.7252 5.13868 20.2312 5.67754 20.2351 6.30304ZM18.862 5.65717C18.4454 5.60117 18.0491 5.83189 17.9517 6.18711L16.4027 10.0491C16.5804 10.066 16.7536 10.1086 16.9152 10.1749L17.9823 7.32317C18.1603 6.73498 18.7681 6.32094 19.4701 6.30966V6.30304C19.4688 5.99046 19.2153 5.72125 18.862 5.65717ZM15.3547 20.2703H10.765V18.283H15.3547V20.2703ZM18.5445 13.179L20.2083 7.80012C20.2273 7.74423 20.2364 7.68615 20.2351 7.62789C20.2337 7.31531 19.9802 7.0461 19.6269 6.98202C19.2103 6.92602 18.814 7.15675 18.7166 7.51196L17.5348 10.6684L17.5577 10.6982C17.7598 11.0021 17.8148 11.3629 17.7107 11.7018C17.6073 12.0426 17.3494 12.3328 16.9955 12.5067L14.8039 13.603C14.6223 13.6853 14.3981 13.6289 14.2955 13.4752C14.1929 13.3216 14.2485 13.1252 14.4214 13.03L16.613 11.9337C16.7895 11.8467 16.9189 11.7025 16.9725 11.5329C17.0228 11.3628 16.9954 11.1825 16.896 11.0294C16.7945 10.8767 16.6268 10.7653 16.4301 10.7199C16.2334 10.6746 16.0239 10.6989 15.8481 10.7877L12.4708 12.5C11.6539 12.9188 11.1513 13.6785 11.1474 14.5006V17.6206H14.9722V16.8919C14.9738 16.4195 15.2058 15.9696 15.6109 15.6532L18.2003 13.6626C18.3673 13.5341 18.487 13.3659 18.5445 13.179Z" fill="black"/>
<path fill-rule="evenodd" clip-rule="evenodd" d="M10.6175 14.5001V17.6204C10.8288 17.6204 11 17.7687 11 17.9516V20.6015C11 20.7844 10.8288 20.9327 10.6175 20.9327H5.26288C5.05164 20.9327 4.8804 20.7844 4.8804 20.6015V17.9516C4.8804 17.7687 5.05164 17.6204 5.26288 17.6204V16.8916C5.26175 16.608 5.12127 16.3382 4.87657 16.1497L2.29486 14.1589C2.01112 13.9439 1.80857 13.66 1.71349 13.3441L0.0497219 7.97142C0.0174341 7.85871 0.000742869 7.74307 0 7.62694C0.00305464 7.15118 0.299052 6.71299 0.776427 6.47754C0.768685 6.41927 0.764854 6.36065 0.764953 6.30199C0.768775 5.67645 1.27486 5.13755 1.98123 5.00685C2.79663 4.87637 3.58872 5.31724 3.79034 6.01381L5.46176 10.1841C5.47324 10.1891 5.48567 10.1932 5.4981 10.1973L5.49811 10.1973C5.51054 10.2015 5.52296 10.2056 5.53443 10.2106L8.91553 11.9297C9.96821 12.4652 10.6155 13.4428 10.6175 14.5001ZM2.13422 5.65608C1.78245 5.72151 1.53088 5.9904 1.52991 6.30199V6.30861C2.23801 6.32446 2.84824 6.74481 3.02539 7.33876L4.08485 10.1741C4.24641 10.1078 4.41963 10.0652 4.59737 10.0483L3.05981 6.20924C2.966 5.84348 2.56237 5.60226 2.13422 5.65608ZM5.38527 15.6528L2.79973 13.6621C2.63184 13.5329 2.51203 13.3634 2.4555 13.1752L0.787901 7.79918C0.772069 7.74281 0.764361 7.68495 0.764953 7.62694C0.765925 7.31535 1.0175 7.04646 1.36927 6.98102C1.79445 6.92576 2.19673 7.16428 2.29103 7.52757L3.46524 10.6677L3.44229 10.6975C3.24018 11.0014 3.18518 11.3622 3.2893 11.7012C3.39275 12.0419 3.65064 12.3322 4.00453 12.5061L6.19612 13.6025C6.37774 13.6847 6.60197 13.6284 6.70454 13.4747C6.80712 13.321 6.75157 13.1246 6.57859 13.0294L4.387 11.933C4.21048 11.846 4.08113 11.7019 4.02748 11.5322C3.97723 11.3621 4.00463 11.1818 4.10397 11.0287C4.2049 10.8763 4.37161 10.7649 4.56743 10.7189C4.76325 10.6729 4.97214 10.6962 5.14813 10.7836L8.52922 12.4994C9.34614 12.9182 9.84873 13.678 9.85259 14.5001V17.6204H6.02783V16.8916C6.02651 16.4184 5.79288 15.968 5.38527 15.6528ZM5.64535 20.2703H10.2351V18.2828H5.64535V20.2703Z" fill="black"/>
<path fill-rule="evenodd" clip-rule="evenodd" d="M13.486 8.90112e-09C14.4189 -6.67706e-05 15.3134 0.375622 15.9724 1.04423C17.3424 2.43454 17.3426 4.68558 15.9728 6.07608L11.2486 10.8605C11.1113 10.9995 10.8888 10.9995 10.7516 10.8605L6.02737 6.07608C4.65754 4.6858 4.65754 2.43487 6.02737 1.04459C6.68626 0.375865 7.58075 6.04315e-05 8.51355 6.04315e-05C9.44636 6.04315e-05 10.3408 0.375865 10.9997 1.04459C11.6587 0.375884 12.5532 6.67884e-05 13.486 8.90112e-09ZM6.52406 5.57272L10.9997 10.1055L15.4754 5.572C16.5718 4.46015 16.5718 2.65909 15.4754 1.54724C14.9484 1.01251 14.233 0.712027 13.487 0.712027C12.741 0.712027 12.0256 1.01251 11.4985 1.54724L11.2483 1.8007C11.111 1.93967 10.8885 1.93967 10.7512 1.8007L10.5017 1.54795C9.97672 1.01089 9.26079 0.709858 8.51462 0.712453C7.37746 0.712122 6.35204 1.40545 5.91636 2.46922C5.48068 3.533 5.72051 4.75782 6.52406 5.57272Z" fill="black"/>
</svg>
