<svg width="21" height="21" viewBox="0 0 21 21" fill="none" xmlns="http://www.w3.org/2000/svg">
<path d="M14.7002 2.2677C13.928 2.2677 13.3002 2.8936 13.3002 3.6632V3.91545L5.11995 7.17678C4.9873 7.23018 4.90015 7.35819 4.90015 7.50087V12.3852C4.90015 12.5279 4.9873 12.6559 5.11995 12.7089L13.3002 15.9703V16.2229C13.3002 16.9925 13.9281 17.6184 14.7002 17.6184C15.4722 17.6184 16.1001 16.9925 16.1001 16.2229V3.6632C16.1001 2.89356 15.4723 2.2677 14.7002 2.2677ZM15.4002 16.2228C15.4002 16.6076 15.0862 16.9206 14.7002 16.9206C14.3141 16.9206 14.0001 16.6077 14.0001 16.2228V15.7344C14.0001 15.5913 13.913 15.4633 13.78 15.4103L5.60012 12.149V7.73706L13.78 4.47573C13.913 4.42234 14.0001 4.29433 14.0001 4.15164V3.6632C14.0001 3.2784 14.3141 2.96543 14.7002 2.96543C15.0862 2.96543 15.4002 3.27836 15.4002 3.6632V16.2228Z" fill="black"/>
<path d="M5.25001 7.15198H2.80002C1.25615 7.15198 0 8.4041 0 9.94302C0 11.4819 1.25615 12.7341 2.80002 12.7341H5.25001C5.44319 12.7341 5.6 12.5781 5.6 12.3852V7.50088C5.6 7.30828 5.44319 7.15198 5.25001 7.15198ZM4.90002 12.0363H2.80002C1.64186 12.0363 0.700015 11.0975 0.700015 9.94302C0.700015 8.78857 1.64186 7.84975 2.80002 7.84975H4.90002V12.0363Z" fill="black"/>
<path d="M17.9608 8.56539L15.8608 7.86762C15.7537 7.83237 15.6371 7.85016 15.5454 7.91578C15.454 7.98136 15.4001 8.08671 15.4001 8.19874V11.6875C15.4001 11.7995 15.454 11.9048 15.5454 11.9708C15.6059 12.014 15.6777 12.0364 15.7501 12.0364C15.7873 12.0364 15.8247 12.0304 15.8608 12.0182L17.9608 11.3204C18.1039 11.2733 18.2002 11.1401 18.2002 10.9897V8.89642C18.2001 8.74609 18.1039 8.61318 17.9608 8.56539ZM17.5001 10.7382L16.1002 11.2032V8.6826L17.5001 9.14766V10.7382Z" fill="black"/>
<path d="M6.96704 16.7437L6.61565 16.393L5.58911 12.3007C5.55027 12.1455 5.41024 12.0363 5.24962 12.0363H2.44956C2.34247 12.0363 2.24165 12.0851 2.17516 12.1681C2.10868 12.2519 2.08415 12.3611 2.10868 12.465L3.50867 18.396C3.54681 18.5561 3.68996 18.665 3.84922 18.665C3.87129 18.665 3.89331 18.6629 3.91571 18.6583L6.5442 18.1525C6.54769 18.1518 6.55122 18.1511 6.5547 18.1504C6.70872 18.1159 6.8494 18.0391 6.96142 17.9292C7.12101 17.7719 7.20956 17.5625 7.21096 17.3386C7.21239 17.1149 7.1263 16.9042 6.96704 16.7437ZM6.46968 17.4324C6.45184 17.4501 6.42944 17.4624 6.40491 17.4686L4.11345 17.91L2.89159 12.734H4.97621L5.96043 16.6561C5.97581 16.7175 6.00768 16.7737 6.05247 16.8183L6.47107 17.2356C6.50643 17.2708 6.51131 17.3123 6.51131 17.3343C6.51098 17.3556 6.5054 17.3971 6.46968 17.4324Z" fill="black"/>
<path d="M20.9992 9.59424H18.8992V10.292H20.9992V9.59424Z" fill="black"/>
<path d="M20.469 5.45804L18.7192 6.50488L19.0794 7.10312L20.8293 6.05628L20.469 5.45804Z" fill="black"/>
<path d="M19.0828 12.7836L18.7227 13.382L20.4727 14.4286L20.8328 13.8303L19.0828 12.7836Z" fill="black"/>
<path d="M13.9996 4.01208H13.2996V15.8739H13.9996V4.01208Z" fill="black"/>
<path d="M4.20099 8.54749H3.50098V9.94298H4.20099V8.54749Z" fill="black"/>
<path d="M2.80084 8.54749H2.10083V9.94298H2.80084V8.54749Z" fill="black"/>
</svg>
