<svg width="21" height="21" viewBox="0 0 21 21" fill="none" xmlns="http://www.w3.org/2000/svg">
<path d="M20.9621 17.2672C20.8635 16.7699 20.5848 16.3451 20.177 16.0707C19.7693 15.7966 19.2849 15.708 18.8126 15.8213L16.6237 16.3468V15.4085C17.0627 14.9749 17.5198 14.4088 17.8449 13.8914C18.4149 12.9841 18.8184 11.9877 19.044 10.9306C19.3122 9.67282 19.3179 8.34132 19.0605 7.07955C19.013 6.84738 18.795 6.69921 18.5736 6.74911C18.352 6.79866 18.211 7.0273 18.2582 7.25963C18.4912 8.40079 18.4861 9.60528 18.2433 10.7427C18.0396 11.6979 17.6749 12.5982 17.1598 13.4182C17.0071 13.6613 16.8219 13.9163 16.6237 14.1598V9.39294C16.6237 9.15541 16.4401 8.96289 16.2136 8.96289H12.969V4.37036C12.969 4.13349 12.7862 3.94114 12.5603 3.9403L8.90554 3.92737C8.90506 3.92737 8.90474 3.92737 8.90426 3.92737C8.79563 3.92737 8.69149 3.97239 8.61475 4.05286C8.53752 4.13349 8.4941 4.24302 8.4941 4.35742V6.74642H5.24905C5.02266 6.74642 4.83889 6.93894 4.83889 7.17648V11.4352H3.92501V10.8511C3.92501 10.6137 3.7414 10.4212 3.51486 10.4212H3.09412C3.02251 10.0078 2.98101 9.58781 2.97124 9.16851C2.9472 8.14897 3.10133 7.15145 3.42914 6.20331C3.50556 5.98223 3.5924 5.76183 3.68709 5.54848C3.78274 5.33311 3.69366 5.07726 3.48842 4.97697C3.28302 4.87702 3.03901 4.97009 2.94352 5.18545C2.83858 5.42165 2.74245 5.66557 2.65801 5.91016C2.29528 6.95926 2.12481 8.06279 2.15108 9.18968C2.16086 9.60159 2.19835 10.0138 2.26195 10.4212H0.410157C0.183609 10.4212 0 10.6137 0 10.8513V18.4105C0 18.6481 0.183609 18.8406 0.410157 18.8406H3.51486C3.7414 18.8406 3.92501 18.6481 3.92501 18.4105V18.0016H5.46791L11.7178 20.5719C12.3014 20.8119 12.9126 20.9327 13.527 20.9327C13.9367 20.9327 14.3481 20.879 14.7533 20.771L19.652 19.4655C20.5819 19.2177 21.1572 18.2521 20.9621 17.2672ZM15.8036 9.823V16.5436L14.707 16.8069C14.5891 16.8351 14.4699 16.8574 14.3501 16.8749C13.8931 16.9409 13.4269 16.927 12.9747 16.8331C12.9728 16.8326 12.9709 16.8322 12.969 16.8317V16.1796C13.2817 15.6904 13.3854 15.0702 13.2215 14.5041C13.1758 14.3461 13.1109 14.1938 13.0284 14.0532C13.0097 14.0213 12.9901 13.99 12.9698 13.9594C12.9696 13.9589 12.9693 13.9586 12.969 13.9581V9.82283H15.8036V9.823ZM9.31442 4.78899L12.1488 4.7989V13.275L10.5648 12.5876L9.31442 12.0448V4.78899ZM5.65921 7.60653H8.49362V11.6885L7.98493 11.4678C7.9351 11.4461 7.88175 11.435 7.82808 11.435H5.65921V7.60653ZM3.1047 17.9805H0.820315V11.2812H2.75542C2.75622 11.2812 2.75719 11.2813 2.75815 11.2813C2.75895 11.2813 2.75959 11.2812 2.76039 11.2812H3.1047V17.9805ZM19.4499 18.6319L14.5513 19.9374C13.7057 20.1627 12.8294 20.105 12.0173 19.7712L5.69526 17.1712C5.64751 17.1516 5.59672 17.1417 5.54545 17.1417H3.92501V12.2953H7.74637L10.4002 13.4471L11.8524 14.0774C12.3662 14.3008 12.6122 14.9328 12.4015 15.4708C12.3592 15.5789 12.3068 15.6815 12.2373 15.7731C11.9804 16.1129 11.5576 16.2628 11.1622 16.162C11.159 16.1611 11.1558 16.1603 11.1526 16.1594C11.1289 16.1532 11.1053 16.146 11.0819 16.1379L8.32219 15.0255C8.29976 15.0164 8.2879 15.0117 8.2879 15.0117C8.07657 14.9264 7.83929 15.0371 7.7579 15.2588C7.67667 15.4804 7.78209 15.7294 7.99358 15.8146C7.99358 15.8146 9.54961 16.4418 10.7362 16.9216C10.7601 16.9314 10.7838 16.9404 10.8076 16.9488L11.7188 17.3162C11.9942 17.4273 12.2683 17.5378 12.555 17.6146C13.0417 17.7449 13.5469 17.7973 14.0487 17.7686C14.3316 17.7525 14.6141 17.7115 14.8903 17.6453L16.3052 17.3058C16.3066 17.3055 16.3081 17.3048 16.3095 17.3045L18.9957 16.6597C19.2513 16.5984 19.5136 16.6463 19.734 16.7946C19.9548 16.9431 20.1056 17.1731 20.1589 17.4422C20.2647 17.9753 19.9532 18.4979 19.4499 18.6319Z" fill="black"/>
<path d="M5.24521 3.05877C5.34326 3.05877 5.44164 3.02215 5.51998 2.9479C6.25186 2.25477 7.12585 1.70191 8.0479 1.34896C9.04686 0.966617 10.142 0.803498 11.2149 0.877414C11.9829 0.930331 12.7352 1.10219 13.4511 1.38811C13.6626 1.47261 13.8997 1.3614 13.9803 1.13931C14.061 0.917396 13.9548 0.668938 13.743 0.584439C12.9509 0.267944 12.1184 0.0777787 11.2688 0.01915C10.0828 -0.0624935 8.87174 0.117929 7.76656 0.541097C6.74645 0.931507 5.77954 1.54316 4.97028 2.30953C4.80205 2.46879 4.78891 2.74077 4.9408 2.91699C5.02171 3.01106 5.13322 3.05877 5.24521 3.05877Z" fill="black"/>
<path d="M14.5562 6.12801C14.6339 6.19873 14.7297 6.23334 14.825 6.23334C14.9396 6.23334 15.0537 6.18328 15.1349 6.08551L18.5094 2.01257C18.6581 1.83333 18.6398 1.56169 18.4689 1.40596C18.2977 1.25023 18.0388 1.26921 17.8903 1.44846L14.5156 5.52139C14.367 5.70064 14.3852 5.97228 14.5562 6.12801Z" fill="black"/>
<path d="M17.5795 4.28931C17.0117 4.28931 16.5498 4.77362 16.5498 5.36898C16.5498 5.96434 17.0117 6.44866 17.5795 6.44866C18.1473 6.44866 18.6092 5.96417 18.6092 5.36898C18.6092 4.77362 18.1473 4.28931 17.5795 4.28931ZM17.5795 5.58855C17.464 5.58855 17.3701 5.4901 17.3701 5.36898C17.3701 5.24803 17.464 5.14942 17.5795 5.14942C17.6949 5.14942 17.7889 5.24803 17.7889 5.36898C17.7889 5.4901 17.6949 5.58855 17.5795 5.58855Z" fill="black"/>
<path d="M15.3022 3.33183C15.87 3.33183 16.3319 2.84752 16.3319 2.25216C16.3319 1.6568 15.87 1.17249 15.3022 1.17249C14.7344 1.17249 14.2725 1.6568 14.2725 2.25216C14.2725 2.84752 14.7344 3.33183 15.3022 3.33183ZM15.3022 2.03243C15.4177 2.03243 15.5116 2.13104 15.5116 2.25216C15.5116 2.37311 15.4177 2.47172 15.3022 2.47172C15.1867 2.47172 15.0928 2.37311 15.0928 2.25216C15.0928 2.13104 15.1867 2.03243 15.3022 2.03243Z" fill="black"/>
<path d="M3.78748 4.06951C3.85317 4.23481 4.01483 4.34401 4.1861 4.3346C4.35545 4.32536 4.50382 4.20525 4.55621 4.03659C4.60908 3.86641 4.5514 3.67255 4.4157 3.56386C4.27743 3.45332 4.08324 3.44643 3.93841 3.5474C3.77771 3.65945 3.7133 3.88287 3.78748 4.06951Z" fill="black"/>
</svg>
