<?xml version="1.0" standalone="no"?>
<!DOCTYPE svg PUBLIC "-//W3C//DTD SVG 20010904//EN"
 "http://www.w3.org/TR/2001/REC-SVG-20010904/DTD/svg10.dtd">
<svg version="1.0" xmlns="http://www.w3.org/2000/svg"
 width="512.000000pt" height="512.000000pt" viewBox="0 0 512.000000 512.000000"
 preserveAspectRatio="xMidYMid meet">

<g transform="translate(0.000000,512.000000) scale(0.100000,-0.100000)"
fill="#000000" stroke="none">
<path d="M240 5027 c-49 -16 -133 -102 -148 -153 -17 -59 -17 -1209 0 -1268
16 -55 99 -138 154 -154 58 -17 730 -17 788 0 55 16 138 99 154 154 17 58 17
1209 0 1266 -6 22 -31 62 -55 88 -71 79 -79 80 -497 79 -233 -1 -373 -5 -396
-12z m775 -172 c21 -20 25 -34 25 -80 l0 -55 -400 0 -400 0 0 55 c0 46 4 60
25 80 l24 25 351 0 351 0 24 -25z m25 -615 l0 -320 -400 0 -400 0 0 320 0 320
400 0 400 0 0 -320z m0 -535 c0 -46 -4 -60 -25 -80 l-24 -25 -351 0 -351 0
-24 25 c-21 20 -25 34 -25 80 l0 55 400 0 400 0 0 -55z"/>
<path d="M3600 5027 c-49 -16 -133 -102 -148 -153 -9 -30 -12 -164 -12 -474 0
-310 3 -444 12 -474 16 -55 99 -138 154 -154 24 -7 100 -12 178 -12 l136 0 0
-80 0 -80 -80 0 -80 0 0 -80 0 -80 480 0 480 0 0 80 0 80 -80 0 -80 0 0 80 0
80 136 0 c78 0 154 5 178 12 55 16 138 99 154 154 17 58 17 890 0 946 -6 22
-31 62 -55 88 -74 83 -50 80 -737 79 -408 -1 -612 -5 -636 -12z m1255 -172
l25 -24 0 -296 0 -295 -640 0 -640 0 0 295 0 296 25 24 24 25 591 0 591 0 24
-25z m25 -830 c0 -46 -4 -60 -25 -80 l-24 -25 -591 0 -591 0 -24 25 c-21 20
-25 34 -25 80 l0 55 640 0 640 0 0 -55z m-480 -345 l0 -80 -160 0 -160 0 0 80
0 80 160 0 160 0 0 -80z"/>
<path d="M2450 4714 c-193 -34 -352 -107 -475 -217 l-40 -36 57 -57 56 -57 45
39 c65 57 161 111 252 141 68 22 98 26 205 27 89 1 144 -4 190 -17 89 -23 216
-88 277 -142 l51 -45 58 57 57 57 -39 34 c-160 140 -339 210 -554 217 -63 2
-126 2 -140 -1z"/>
<path d="M2445 4388 c-91 -17 -275 -121 -275 -156 0 -10 93 -102 104 -102 4 0
22 11 40 25 17 13 59 37 91 52 52 24 72 28 155 28 83 0 103 -4 155 -28 32 -15
74 -39 91 -52 18 -14 37 -25 41 -25 12 0 103 93 103 106 0 14 -86 77 -149 109
-98 49 -236 66 -356 43z"/>
<path d="M2500 4071 c-38 -12 -85 -38 -98 -54 -9 -11 -1 -24 42 -65 51 -50 54
-51 85 -39 23 8 39 9 60 0 27 -10 32 -8 81 42 30 30 49 58 46 64 -24 38 -160
70 -216 52z"/>
<path d="M2389 3745 c-102 -19 -220 -62 -315 -116 -113 -63 -282 -234 -346
-348 -41 -73 -96 -222 -112 -302 -5 -23 -12 -27 -53 -33 -77 -10 -203 -78
-271 -145 -306 -301 -185 -797 228 -937 52 -18 105 -19 1120 -19 1015 0 1068
1 1120 19 228 77 377 263 397 492 11 133 -38 295 -117 389 -31 37 -30 36 16
-7 27 -27 53 -48 58 -48 4 0 22 11 40 25 17 13 59 37 91 52 52 24 72 28 155
28 83 0 103 -4 155 -28 32 -15 74 -39 91 -52 18 -14 37 -25 41 -25 12 0 103
93 103 106 0 5 -22 26 -48 47 -170 130 -394 152 -586 58 -45 -22 -97 -55 -116
-74 l-35 -34 -55 43 c-107 84 -247 129 -379 122 l-64 -3 -19 79 c-10 44 -38
122 -63 174 -187 394 -611 613 -1036 537z m313 -159 c370 -72 631 -369 655
-748 3 -54 7 -98 8 -98 2 0 34 12 71 27 57 22 85 27 164 27 87 1 101 -2 162
-31 93 -44 151 -100 196 -191 35 -72 37 -81 37 -171 0 -87 -3 -102 -32 -163
-44 -93 -100 -151 -191 -196 l-76 -37 -1056 0 -1056 0 -76 37 c-91 45 -147
103 -191 196 -29 61 -32 76 -32 162 0 86 3 101 32 162 43 92 101 151 189 194
62 31 86 37 162 42 l90 5 6 66 c16 161 83 326 178 441 185 222 481 330 760
276z"/>
<path d="M2421 3425 c-177 -39 -347 -171 -429 -335 -41 -82 -71 -191 -72 -257
l0 -33 78 0 78 0 11 71 c32 205 198 370 404 403 l69 10 0 78 0 78 -37 -1 c-21
0 -67 -7 -102 -14z"/>
<path d="M1840 2627 c-49 -16 -133 -102 -148 -153 -28 -94 -8 -169 63 -239
101 -102 229 -102 330 0 98 97 101 222 8 325 -65 72 -158 97 -253 67z m135
-172 c50 -49 15 -135 -55 -135 -19 0 -40 9 -55 25 -16 15 -25 36 -25 55 0 19
9 40 25 55 15 16 36 25 55 25 19 0 40 -9 55 -25z"/>
<path d="M2480 2627 c-49 -16 -133 -102 -148 -153 -28 -94 -8 -169 63 -239
101 -102 229 -102 330 0 98 97 101 222 8 325 -65 72 -158 97 -253 67z m135
-172 c50 -49 15 -135 -55 -135 -19 0 -40 9 -55 25 -16 15 -25 36 -25 55 0 19
9 40 25 55 15 16 36 25 55 25 19 0 40 -9 55 -25z"/>
<path d="M3120 2627 c-49 -16 -133 -102 -148 -153 -28 -94 -8 -169 63 -239
101 -102 229 -102 330 0 98 97 101 222 8 325 -65 72 -158 97 -253 67z m135
-172 c50 -49 15 -135 -55 -135 -41 0 -80 39 -80 80 0 41 39 80 80 80 19 0 40
-9 55 -25z"/>
<path d="M610 3274 c-192 -34 -349 -106 -474 -216 l-39 -34 58 -58 58 -57 31
30 c160 151 431 216 661 156 85 -21 211 -87 274 -142 l53 -46 56 57 57 57 -40
36 c-158 140 -340 211 -555 218 -63 2 -126 2 -140 -1z"/>
<path d="M4290 3274 c-193 -34 -352 -107 -475 -217 l-40 -36 57 -57 56 -57 45
39 c65 57 161 111 252 141 68 22 98 26 205 27 89 1 144 -4 190 -17 89 -23 216
-88 277 -142 l51 -45 58 57 57 57 -39 34 c-160 140 -339 210 -554 217 -63 2
-126 2 -140 -1z"/>
<path d="M605 2948 c-91 -17 -275 -121 -275 -156 0 -10 93 -102 104 -102 4 0
22 11 40 25 17 13 59 37 91 52 52 24 72 28 155 28 83 0 103 -4 155 -28 32 -15
74 -39 91 -52 18 -14 37 -25 41 -25 12 0 103 93 103 106 0 14 -86 77 -149 109
-98 49 -236 66 -356 43z"/>
<path d="M660 2631 c-38 -12 -85 -38 -98 -54 -9 -11 -1 -24 42 -65 51 -50 54
-51 85 -39 23 8 39 9 60 0 27 -10 32 -8 81 42 30 30 49 58 46 64 -24 38 -160
70 -216 52z"/>
<path d="M4340 2631 c-38 -12 -85 -38 -98 -54 -9 -11 -1 -24 42 -65 51 -50 54
-51 85 -39 23 8 39 9 60 0 27 -10 32 -8 81 42 30 30 49 58 46 64 -24 38 -160
70 -216 52z"/>
<path d="M400 1667 c-49 -16 -133 -102 -148 -153 -9 -30 -12 -168 -12 -497 l0
-455 -35 -6 c-46 -9 -101 -58 -116 -103 -17 -53 -4 -136 33 -205 35 -66 67
-96 142 -136 l51 -27 725 0 725 0 63 34 c35 19 74 48 88 64 65 78 98 198 75
270 -15 45 -70 94 -116 103 l-35 6 0 455 c0 323 -3 467 -12 495 -6 22 -31 62
-55 88 -74 83 -50 80 -737 79 -408 -1 -612 -5 -636 -12z m1255 -172 l25 -24 0
-456 0 -455 -640 0 -640 0 0 455 0 456 25 24 24 25 591 0 591 0 24 -25z m181
-1127 c-7 -39 -31 -74 -70 -102 -27 -21 -36 -21 -726 -21 -690 0 -699 0 -726
21 -39 28 -63 63 -70 102 l-6 32 802 0 803 0 -7 -32z"/>
<path d="M560 1040 l0 -320 480 0 480 0 0 320 0 320 -480 0 -480 0 0 -320z
m800 0 l0 -160 -320 0 -320 0 0 160 0 160 320 0 320 0 0 -160z"/>
<path d="M3760 1667 c-49 -16 -133 -102 -148 -153 -15 -52 -16 -260 0 -305 6
-19 20 -46 30 -61 19 -28 19 -28 0 -55 -33 -48 -42 -93 -42 -213 0 -120 9
-165 42 -212 19 -28 19 -28 0 -56 -10 -15 -24 -42 -30 -61 -16 -45 -15 -253 0
-305 16 -55 99 -138 154 -154 59 -17 1049 -17 1108 0 55 16 138 99 154 154 7
23 12 95 12 161 0 112 -2 124 -28 177 l-29 56 29 56 c26 54 28 64 28 184 0
120 -2 130 -28 184 l-29 56 29 56 c26 53 28 65 28 177 0 145 -11 185 -67 247
-73 82 -60 80 -657 79 -349 -1 -533 -5 -556 -12z m1095 -172 c24 -23 25 -31
25 -135 0 -104 -1 -112 -25 -135 l-24 -25 -511 0 -511 0 -24 25 c-24 23 -25
31 -25 135 0 104 1 112 25 135 l24 25 511 0 511 0 24 -25z m0 -480 c24 -23 25
-31 25 -135 0 -104 -1 -112 -25 -135 l-24 -25 -511 0 -511 0 -24 25 c-24 23
-25 31 -25 135 0 104 1 112 25 135 l24 25 511 0 511 0 24 -25z m0 -480 c24
-23 25 -31 25 -135 0 -104 -1 -112 -25 -135 l-24 -25 -511 0 -511 0 -24 25
c-24 23 -25 31 -25 135 0 104 1 112 25 135 l24 25 511 0 511 0 24 -25z"/>
<path d="M2450 1434 c-192 -34 -349 -106 -474 -216 l-39 -34 58 -58 58 -57 31
30 c160 151 431 216 661 156 85 -21 211 -87 274 -142 l53 -46 56 57 57 57 -40
36 c-158 140 -340 211 -555 218 -63 2 -126 2 -140 -1z"/>
<path d="M2445 1108 c-91 -17 -275 -121 -275 -156 0 -10 93 -102 104 -102 4 0
22 11 40 25 17 13 59 37 91 52 52 24 72 28 155 28 83 0 103 -4 155 -28 32 -15
74 -39 91 -52 18 -14 37 -25 41 -25 12 0 103 93 103 106 0 14 -86 77 -149 109
-98 49 -236 66 -356 43z"/>
<path d="M2500 791 c-38 -12 -85 -38 -98 -54 -9 -11 -1 -24 42 -65 51 -50 54
-51 85 -39 23 8 39 9 60 0 27 -10 32 -8 81 42 30 30 49 58 46 64 -24 38 -160
70 -216 52z"/>
</g>
</svg>
