<svg width="21" height="21" viewBox="0 0 21 21" fill="none" xmlns="http://www.w3.org/2000/svg">
<path d="M4.89981 13.7806C3.74165 13.7806 2.7998 14.7195 2.7998 15.8739C2.7998 17.0284 3.74165 17.9672 4.89981 17.9672C6.05797 17.9672 6.99981 17.0284 6.99981 15.8739C6.99981 14.7195 6.05793 13.7806 4.89981 13.7806ZM4.89981 17.2694C4.12769 17.2694 3.49982 16.6435 3.49982 15.8739C3.49982 15.1043 4.12773 14.4784 4.89981 14.4784C5.67189 14.4784 6.2998 15.1043 6.2998 15.8739C6.2998 16.6435 5.67189 17.2694 4.89981 17.2694Z" fill="black"/>
<path d="M16.8004 13.7806C15.6423 13.7806 14.7004 14.7195 14.7004 15.8739C14.7004 17.0284 15.6423 17.9672 16.8004 17.9672C17.9586 17.9672 18.9004 17.0284 18.9004 15.8739C18.9004 14.7195 17.9586 13.7806 16.8004 13.7806ZM16.8004 17.2694C16.0283 17.2694 15.4005 16.6435 15.4005 15.8739C15.4005 15.1043 16.0284 14.4784 16.8004 14.4784C17.5726 14.4784 18.2004 15.1043 18.2004 15.8739C18.2004 16.6435 17.5726 17.2694 16.8004 17.2694Z" fill="black"/>
<path d="M20.9441 11.8476L17.7941 6.96324C17.7297 6.86345 17.6188 6.8031 17.4998 6.8031H13.6498C13.4562 6.8031 13.2998 6.9594 13.2998 7.15197V15.8739C13.2998 16.0668 13.4562 16.2228 13.6498 16.2228H15.0498V15.525H13.9998V7.50087H17.3087L20.2998 12.1389V15.5251H18.5498V16.2228H20.6498C20.8433 16.2228 20.9998 16.0669 20.9998 15.8739V12.0363C20.9998 11.9696 20.9806 11.9037 20.9441 11.8476Z" fill="black"/>
<path d="M15.3997 11.3385V8.89638H18.1997V8.19861H15.0497C14.8561 8.19861 14.6997 8.35491 14.6997 8.54747V11.6874C14.6997 11.8803 14.8561 12.0362 15.0497 12.0362H20.2997V11.3385H15.3997V11.3385Z" fill="black"/>
<path d="M13.65 4.36096H0.349987C0.156803 4.36096 0 4.51726 0 4.70983V15.8739C0 16.0669 0.156803 16.2228 0.349987 16.2228H3.15001V15.525H0.700015V5.05869H13.3V15.525H6.65V16.2228H13.65C13.8436 16.2228 14 16.0669 14 15.8739V4.70983C14 4.51726 13.8436 4.36096 13.65 4.36096Z" fill="black"/>
<path d="M2.4501 14.1296H0.350098V14.8274H2.4501V14.1296Z" fill="black"/>
<path d="M13.3001 14.1296H7.3501V14.8274H13.3001V14.1296Z" fill="black"/>
<path d="M20.65 14.1296H19.25V14.8274H20.65V14.1296Z" fill="black"/>
<path d="M13.6497 5.75647H1.39966V6.45424H13.6497V5.75647Z" fill="black"/>
<path d="M5.24958 15.525H4.54956V16.2228H5.24958V15.525Z" fill="black"/>
<path d="M17.1505 15.525H16.4504V16.2228H17.1505V15.525Z" fill="black"/>
<path d="M6.29968 2.96545H1.39966V3.66322H6.29968V2.96545Z" fill="black"/>
<path d="M0.700015 2.96545H0V3.66322H0.700015V2.96545Z" fill="black"/>
</svg>
