<svg width="15" height="21" viewBox="0 0 15 21" fill="none" xmlns="http://www.w3.org/2000/svg">
<path d="M7.5 3.875C6.45833 3.875 5.57292 4.23958 4.84375 4.96875C4.11458 5.69792 3.75 6.58333 3.75 7.625C3.75 8.66667 4.11458 9.55208 4.84375 10.2812C5.57292 11.0104 6.45833 11.375 7.5 11.375C8.54167 11.375 9.42708 11.0104 10.1562 10.2812C10.8854 9.55208 11.25 8.66667 11.25 7.625C11.25 6.58333 10.8854 5.69792 10.1562 4.96875C9.42708 4.23958 8.54167 3.875 7.5 3.875ZM7.5 10.125C6.82292 10.125 6.23698 9.8776 5.74219 9.38281C5.2474 8.88802 5 8.30208 5 7.625C5 6.94792 5.2474 6.36198 5.74219 5.86719C6.23698 5.3724 6.82292 5.125 7.5 5.125C8.17708 5.125 8.76302 5.3724 9.25781 5.86719C9.7526 6.36198 10 6.94792 10 7.625C10 8.30208 9.7526 8.88802 9.25781 9.38281C8.76302 9.8776 8.17708 10.125 7.5 10.125ZM7.5 0.125C6.14583 0.125 4.89583 0.463542 3.75 1.14062C2.60417 1.81771 1.69271 2.72917 1.01562 3.875C0.338542 5.02083 0 6.27083 0 7.625C0 8.45833 0.104167 9.20052 0.3125 9.85156C0.520833 10.4766 0.924479 11.2578 1.52344 12.1953C1.9401 12.8464 2.79948 14.1094 4.10156 15.9844L6.71875 19.7344C6.90104 19.9948 7.16146 20.125 7.5 20.125C7.83854 20.125 8.09896 19.9948 8.28125 19.7344L10.8984 15.9844C12.2005 14.1094 13.0599 12.8464 13.4766 12.1953C14.0755 11.2578 14.4792 10.4766 14.6875 9.85156C14.8958 9.20052 15 8.45833 15 7.625C15 6.27083 14.6615 5.02083 13.9844 3.875C13.3073 2.72917 12.3958 1.81771 11.25 1.14062C10.1042 0.463542 8.85417 0.125 7.5 0.125ZM7.5 18.6406C6.875 17.7292 6.06771 16.5703 5.07812 15.1641C3.82812 13.3672 3.00781 12.1823 2.61719 11.6094C2.07031 10.724 1.70573 10.0208 1.52344 9.5C1.34115 8.95312 1.25 8.32812 1.25 7.625C1.25 6.79167 1.40625 5.9974 1.71875 5.24219C2.03125 4.48698 2.48698 3.8099 3.08594 3.21094C3.6849 2.61198 4.36198 2.15625 5.11719 1.84375C5.8724 1.53125 6.66667 1.375 7.5 1.375C8.33333 1.375 9.1276 1.53125 9.88281 1.84375C10.638 2.15625 11.3151 2.61198 11.9141 3.21094C12.513 3.8099 12.9688 4.48698 13.2812 5.24219C13.5938 5.9974 13.75 6.79167 13.75 7.625C13.75 8.32812 13.6589 8.95312 13.4766 9.5C13.2943 10.0208 12.9297 10.724 12.3828 11.6094C11.9922 12.1823 11.1719 13.3672 9.92188 15.1641L7.5 18.6406Z" fill="#0F001A"/>
</svg>
