<svg width="21" height="21" viewBox="0 0 21 21" fill="none" xmlns="http://www.w3.org/2000/svg">
<path d="M20.0156 20.0625L20.9141 16.1172C20.9922 15.8307 20.9531 15.5573 20.7969 15.2969C20.6667 15.0365 20.4714 14.8411 20.2109 14.7109L15.9922 12.9141C15.7318 12.8099 15.4714 12.7839 15.2109 12.8359C14.9505 12.9141 14.7292 13.0573 14.5469 13.2656L12.8281 15.375C11.474 14.6979 10.263 13.8255 9.19531 12.7578C8.1276 11.6901 7.25521 10.4792 6.57812 9.125L8.6875 7.40625C8.89583 7.22396 9.02604 7.0026 9.07812 6.74219C9.15625 6.48177 9.14323 6.22135 9.03906 5.96094L7.24219 1.74219C7.11198 1.48177 6.91667 1.27344 6.65625 1.11719C6.39583 0.986979 6.1224 0.960937 5.83594 1.03906L1.89062 1.9375C1.63021 2.01562 1.40885 2.15885 1.22656 2.36719C1.04427 2.60156 0.953125 2.86198 0.953125 3.14844C0.953125 6.3776 1.76042 9.3724 3.375 12.1328C4.96354 14.8411 7.09896 16.9766 9.78125 18.5391C12.5677 20.1797 15.5885 21 18.8438 21C19.1042 21 19.3385 20.9089 19.5469 20.7266C19.7812 20.5443 19.9375 20.3229 20.0156 20.0625ZM2.20312 3.14844L6.10938 2.25L7.90625 6.46875L5.05469 8.77344C5.99219 10.8047 7.07292 12.4323 8.29687 13.6562C9.52083 14.8802 11.1484 15.9609 13.1797 16.8984L15.4844 14.0469L19.7031 15.8438L18.8047 19.75C15.8099 19.75 13.0234 18.9948 10.4453 17.4844C7.91927 16 5.92708 14.0078 4.46875 11.5078C2.95833 8.92969 2.20312 6.14323 2.20312 3.14844Z" fill="#0F001A"/>
</svg>
